<ttFont>
        <CharString name=".notdef">
          0 600 848 rmoveto
          -16 0 -14 8 -11 14 -127 217 -64 113 0 9 0 35 17 17 34 0 rrcurveto
          365 hlineto
          33 0 17 -17 0 -35 0 -9 -64 -113 -127 -217 -10 -14 -14 -8 -19 0 rrcurveto
          184 -707 rmoveto
          -365 hlineto
          -34 0 -17 17 0 34 0 11 64 113 127 215 11 16 14 8 16 0 19 0 15 -8 10 -17 127 -214 63 -113 0 -11 0 -34 -17 -17 -33 0 rrcurveto
          -485 253 rmoveto
          -35 0 -18 16 0 32 rrcurveto
          515 vlineto
          0 33 18 16 35 0 17 0 14 -7 12 -12 123 -180 62 -95 0 -11 0 -11 -62 -96 -123 -181 -12 -12 -14 -7 -17 0 rrcurveto
          603 hmoveto
          -15 0 -14 7 -13 12 -123 181 -61 96 0 11 0 10 61 96 123 180 13 12 14 7 15 0 36 0 18 -16 0 -33 rrcurveto
          -515 vlineto
          0 -32 -18 -16 -36 0 rrcurveto
          76 -384 rmoveto
          28 0 24 10 18 20 18 20 9 22 0 23 rrcurveto
          1187 vlineto
          0 26 -9 23 -18 19 -18 20 -24 10 -28 0 rrcurveto
          -756 hlineto
          -28 0 -23 -10 -18 -19 -18 -19 -9 -23 0 -27 rrcurveto
          -1187 vlineto
          0 -23 9 -22 18 -20 18 -20 23 -10 28 0 rrcurveto
          endchar
        </CharString>
        <CharString name="A">
          0 766 497 rmoveto
          -332 hlineto
          -17 0 -13 5 -9 11 -9 11 -5 12 0 13 0 5 56 185 113 366 8 25 17 12 25 0 25 0 17 -12 8 -25 113 -366 56 -185 0 -5 0 -13 -5 -12 -9 -11 -9 -11 -13 -5 -17 0 rrcurveto
          283 -512 rmoveto
          22 0 18 8 15 15 15 16 7 18 0 20 0 8 -1 8 -2 8 rrcurveto
          -379 1219 rlineto
          -11 33 -19 27 -26 20 -27 20 -29 10 -32 0 -32 0 -29 -10 -27 -20 -26 -20 -19 -27 -11 -33 rrcurveto
          -379 -1219 rlineto
          -2 -8 -1 -8 0 -8 0 -20 7 -18 15 -16 15 -15 18 -8 22 0 17 0 16 5 13 10 14 9 9 14 6 17 rrcurveto
          85 266 rlineto
          9 28 20 14 29 0 rrcurveto
          462 hlineto
          29 0 20 -14 9 -28 rrcurveto
          85 -266 rlineto
          6 -17 9 -14 14 -9 13 -10 16 -5 17 0 rrcurveto
          endchar
        </CharString>
        <CharString name="B">
          0 638 165 rmoveto
          -225 hlineto
          -16 0 -14 6 -11 11 -11 11 -5 14 0 16 rrcurveto
          368 vlineto
          0 16 5 14 11 11 11 11 14 5 16 0 rrcurveto
          226 1 rlineto
          82 -4 65 -24 49 -45 49 -44 24 -51 0 -57 0 -70 -26 -61 -53 -51 -53 -51 -63 -26 -75 0 rrcurveto
          634 vmoveto
          -225 hlineto
          -16 0 -14 5 -11 11 -11 11 -5 14 0 16 rrcurveto
          321 vlineto
          0 16 5 14 11 11 11 11 14 5 16 0 rrcurveto
          225 hlineto
          58 0 51 -19 43 -37 43 -37 22 -49 0 -59 0 -58 -22 -53 -44 -49 -43 -49 -51 -25 -57 0 rrcurveto
          -1 -784 rmoveto
          77 0 70 18 64 37 63 37 51 49 38 62 38 61 19 69 0 75 0 118 -48 88 -95 57 -2 0 -5 3 -10 6 -17 10 -8 12 0 13 0 13 9 13 19 13 37 28 27 36 17 46 rrcurveto
          16 41 8 52 0 62 0 54 -16 54 -33 54 -32 54 -44 45 -55 36 -56 36 -62 18 -70 0 rrcurveto
          -353 hlineto
          -22 0 -18 -8 -16 -16 -15 -15 -8 -19 0 -21 rrcurveto
          -1212 vlineto
          0 -22 8 -18 15 -16 16 -15 18 -8 22 0 rrcurveto
          endchar
        </CharString>
        <CharString name="C">
          0 726 -15 rmoveto
          93 0 83 13 74 25 39 13 19 24 0 35 0 30 -8 22 -17 15 -9 8 -14 4 -18 0 -6 0 -6 -1 -5 -3 -47 -24 -73 -12 -98 0 -121 3 -96 50 -72 98 -73 97 -36 138 0 179 rrcurveto
          0 182 39 140 79 98 79 97 93 50 108 3 113 0 74 -9 33 -18 8 -4 6 -2 5 0 14 0 13 5 10 9 17 15 8 19 0 23 0 72 -103 36 -205 0 -163 0 -131 -64 -99 -129 rrcurveto
          -95 -131 -50 -177 -3 -223 0 -207 49 -171 99 -135 99 -129 131 -64 163 0 rrcurveto
          endchar
        </CharString>
        <CharString name="D">
          0 445 165 rmoveto
          -32 hlineto
          -16 0 -14 6 -11 11 -11 11 -6 14 0 16 rrcurveto
          954 vlineto
          0 16 6 14 11 11 11 11 14 5 16 0 52 0 49 -1 46 -3 47 -3 44 -8 41 -15 41 -15 38 -24 34 -33 30 -31 22 -39 14 -47 14 -48 9 -54 4 -61 4 -61 2 -67 0 -72 rrcurveto
          0 -172 -36 -124 -73 -76 -72 -77 -117 -38 -161 0 rrcurveto
          -150 vmoveto
          141 0 115 21 90 42 89 42 66 68 43 93 43 93 22 124 0 154 rrcurveto
          136 vlineto
          0 141 -21 114 -42 88 -42 87 -63 64 -84 41 -84 41 -106 21 -128 0 rrcurveto
          -200 hlineto
          -22 0 -18 -8 -16 -16 -15 -15 -8 -19 0 -21 rrcurveto
          -1212 vlineto
          0 -22 8 -18 15 -16 16 -15 18 -8 22 0 rrcurveto
          endchar
        </CharString>
        <CharString name="E">
          0 968 15 rmoveto
          21 0 17 7 15 15 15 15 7 17 0 21 0 21 -7 17 -15 15 -15 15 -17 7 -21 0 rrcurveto
          -525 hlineto
          -16 0 -14 6 -11 11 -11 11 -6 14 0 15 rrcurveto
          346 vlineto
          0 16 6 14 11 11 11 11 14 5 16 0 rrcurveto
          468 hlineto
          21 0 17 7 15 15 15 15 7 17 0 21 0 21 -7 17 -15 15 -15 15 -17 7 -21 0 rrcurveto
          -468 hlineto
          -16 0 -14 6 -11 11 -11 11 -6 14 0 16 rrcurveto
          344 vlineto
          0 16 6 14 11 11 11 11 14 6 16 0 rrcurveto
          525 hlineto
          21 0 17 7 15 15 15 15 7 17 0 21 0 21 -7 17 -15 15 -15 15 -17 7 -21 0 rrcurveto
          -654 hlineto
          -22 0 -18 -8 -16 -15 -15 -16 -8 -18 0 -21 rrcurveto
          -1214 vlineto
          0 -21 8 -18 15 -16 16 -15 18 -8 22 0 rrcurveto
          endchar
        </CharString>
        <CharString name="F">
          0 310 -15 rmoveto
          21 0 17 7 15 15 15 15 7 17 0 21 rrcurveto
          508 vlineto
          0 16 6 14 11 11 11 11 14 5 16 0 rrcurveto
          460 hlineto
          21 0 17 7 15 15 15 15 7 17 0 21 0 21 -7 17 -15 15 -15 15 -17 7 -21 0 rrcurveto
          -460 hlineto
          -16 0 -14 6 -11 11 -11 11 -6 14 0 16 rrcurveto
          344 vlineto
          0 16 6 14 11 11 11 11 14 6 16 0 rrcurveto
          537 hlineto
          21 0 17 7 15 15 15 15 7 17 0 21 0 21 -7 17 -15 15 -15 15 -17 7 -21 0 rrcurveto
          -666 hlineto
          -22 0 -18 -8 -16 -15 -15 -16 -8 -18 0 -21 rrcurveto
          -1247 vlineto
          0 -21 7 -17 15 -15 15 -15 17 -7 21 0 rrcurveto
          endchar
        </CharString>
        <CharString name="G">
          0 606 -15 rmoveto
          142 0 118 53 96 107 21 25 11 31 0 36 rrcurveto
          448 vlineto
          0 10 -3 8 -5 6 -6 6 -7 3 -8 0 rrcurveto
          -319 hlineto
          -18 0 -16 -6 -14 -12 -14 -13 -7 -17 0 -21 0 -26 8 -21 16 -15 17 -15 16 -7 17 0 rrcurveto
          150 hlineto
          37 0 18 -19 0 -38 rrcurveto
          -238 vlineto
          0 -27 -11 -23 -21 -17 -59 -45 -66 -22 -73 0 -114 0 -83 44 -52 88 -53 89 -27 116 -3 145 rrcurveto
          167 vlineto
          0 73 9 71 18 69 43 178 96 89 150 0 121 0 81 -73 40 -145 10 -36 25 -18 38 0 18 0 17 7 13 14 14 14 7 19 0 23 0 5 -2 9 -3 12 -55 213 -126 106 -198 0 rrcurveto
          -123 0 -92 -32 -63 -63 -122 -119 -62 -179 -3 -239 rrcurveto
          -165 vlineto
          2 -105 18 -101 34 -98 35 -98 50 -80 66 -60 66 -61 85 -30 105 0 rrcurveto
          endchar
        </CharString>
        <CharString name="H">
          0 950 -15 rmoveto
          21 0 17 7 15 15 15 15 7 17 0 21 rrcurveto
          1280 vlineto
          0 21 -7 17 -15 15 -15 15 -17 7 -21 0 -21 0 -17 -7 -15 -15 -15 -15 -7 -17 0 -21 rrcurveto
          -507 vlineto
          0 -16 -6 -14 -11 -11 -11 -11 -14 -6 -16 0 rrcurveto
          -434 hlineto
          -16 0 -14 6 -11 11 -11 11 -5 14 0 16 rrcurveto
          507 vlineto
          0 20 -8 18 -15 15 -15 15 -17 7 -21 0 -21 0 -17 -7 -15 -15 -15 -15 -7 -17 0 -21 rrcurveto
          -1280 vlineto
          0 -21 7 -17 15 -15 15 -15 17 -7 21 0 21 0 17 7 15 15 15 15 8 18 0 20 rrcurveto
          508 vlineto
          0 16 5 14 11 11 11 11 14 5 16 0 rrcurveto
          434 hlineto
          16 0 14 -5 11 -11 11 -11 6 -14 0 -16 rrcurveto
          -508 vlineto
          0 -21 7 -17 15 -15 15 -15 17 -7 21 0 rrcurveto
          endchar
        </CharString>
        <CharString name="I">
          0 920 15 rmoveto
          21 0 17 7 15 15 15 15 7 17 0 21 0 21 -7 17 -15 15 -15 15 -17 7 -21 0 rrcurveto
          -188 hlineto
          -15 0 -14 6 -11 11 -11 11 -6 14 0 16 rrcurveto
          954 vlineto
          0 16 6 14 11 11 11 11 14 5 15 0 rrcurveto
          188 hlineto
          21 0 17 7 15 15 15 15 7 17 0 21 0 21 -7 17 -15 15 -15 15 -18 8 -20 0 rrcurveto
          -640 hlineto
          -20 0 -18 -8 -15 -15 -15 -15 -7 -17 0 -21 0 -21 7 -17 15 -15 15 -15 17 -7 21 0 rrcurveto
          187 hlineto
          16 0 14 -5 11 -11 11 -11 6 -14 0 -16 rrcurveto
          -954 vlineto
          0 -16 -6 -14 -11 -11 -11 -11 -14 -6 -16 0 rrcurveto
          -187 hlineto
          -21 0 -17 -7 -15 -15 -15 -15 -7 -17 0 -21 0 -21 7 -17 15 -15 15 -15 17 -7 21 0 rrcurveto
          endchar
        </CharString>
        <CharString name="J">
          0 590 -15 rmoveto
          73 0 67 16 60 33 60 33 48 45 35 56 35 57 17 64 0 72 rrcurveto
          947 vlineto
          0 21 -8 17 -15 16 -16 15 -18 8 -22 0 rrcurveto
          -413 hlineto
          -21 0 -17 -7 -15 -15 -15 -15 -7 -17 0 -21 0 -20 7 -18 15 -15 15 -15 18 -8 20 0 rrcurveto
          285 hlineto
          16 0 14 -5 11 -11 11 -10 5 -14 0 -16 rrcurveto
          -817 vlineto
          0 -61 -22 -54 -43 -45 -30 -29 -31 -19 -33 -9 -33 -9 -41 -5 -49 0 -67 0 -54 16 -42 31 -42 31 -28 40 -13 47 -15 36 -24 18 -35 0 -22 0 -18 -8 -14 -15 -15 -15 -7 -18 0 -21 rrcurveto
          2 -58 33 -59 62 -58 47 -46 49 -30 54 -14 53 -15 62 -7 71 0 rrcurveto
          endchar
        </CharString>
        <CharString name="K">
          0 1002 -15 rmoveto
          21 0 18 8 14 15 15 15 7 17 0 19 0 12 -3 12 -7 13 rrcurveto
          -413 681 rlineto
          -5 9 -3 10 0 9 0 13 4 13 9 11 rrcurveto
          330 451 rlineto
          11 15 5 15 0 16 0 20 -7 17 -14 16 -14 15 -17 8 -22 0 -23 0 -20 -9 -16 -19 rrcurveto
          -403 -545 rlineto
          -14 -14 -15 -7 -16 0 -15 0 -14 5 -12 11 -12 10 -6 14 0 18 rrcurveto
          461 vlineto
          0 21 -7 18 -15 14 -15 15 -17 7 -21 0 -21 0 -17 -7 -15 -15 -15 -14 -7 -18 0 -21 rrcurveto
          -1281 vlineto
          0 -20 7 -17 15 -15 15 -15 17 -7 21 0 21 0 17 7 15 15 15 15 7 17 0 20 rrcurveto
          362 vlineto
          0 25 7 22 15 19 rrcurveto
          91 130 rlineto
          14 15 15 7 17 0 20 0 16 -10 14 -19 rrcurveto
          361 -586 rlineto
          16 -26 23 -13 28 0 rrcurveto
          endchar
        </CharString>
        <CharString name="L">
          0 982 15 rmoveto
          20 0 17 7 14 15 15 15 7 17 0 20 -1 22 -7 18 -14 14 -13 15 -19 7 -23 0 rrcurveto
          -461 hlineto
          -29 0 -24 10 -20 20 -19 21 -10 24 0 29 rrcurveto
          1069 vlineto
          0 20 -7 18 -13 15 -13 16 -18 7 -23 1 -23 0 -18 -7 -14 -15 -14 -15 -7 -17 0 -21 rrcurveto
          -1201 vlineto
          0 -35 12 -29 24 -24 24 -24 29 -12 35 0 rrcurveto
          endchar
        </CharString>
        <CharString name="M">
          0 968 -15 rmoveto
          20 0 18 7 15 15 15 15 8 18 0 21 rrcurveto
          1260 vlineto
          0 25 -9 22 -19 19 -19 19 -22 9 -26 0 -19 0 -17 -5 -16 -10 -15 -10 -12 -14 -7 -18 rrcurveto
          -211 -549 rlineto
          -5 -12 -6 -10 -7 -9 -7 -9 -12 -5 -16 0 -25 0 -18 15 -10 30 rrcurveto
          -212 550 rlineto
          -7 17 -11 14 -16 10 -16 10 -17 5 -19 0 -25 0 -22 -9 -18 -19 -18 -19 -9 -22 0 -25 rrcurveto
          -1260 vlineto
          0 -21 7 -18 15 -15 15 -15 17 -7 21 0 20 0 17 7 15 15 15 15 8 18 0 21 rrcurveto
          833 vlineto
          0 24 12 12 23 0 14 0 10 -7 7 -14 rrcurveto
          132 -348 rlineto
          8 -20 13 -15 17 -10 17 -11 19 -5 20 0 20 0 20 6 17 11 18 11 13 14 7 18 rrcurveto
          132 349 rlineto
          8 14 11 7 13 0 9 0 8 -3 8 -7 7 -6 4 -9 0 -11 rrcurveto
          -833 vlineto
          0 -21 7 -18 15 -15 15 -15 17 -7 21 0 rrcurveto
          endchar
        </CharString>
        <CharString name="N">
          0 941 -15 rmoveto
          25 0 22 9 19 19 19 18 9 23 0 26 rrcurveto
          1260 vlineto
          0 21 -7 18 -15 14 -15 15 -17 7 -21 0 -21 0 -17 -7 -15 -15 -15 -14 -7 -18 0 -21 rrcurveto
          -880 vlineto
          0 -24 -12 -12 -23 0 -14 0 -10 7 -6 13 rrcurveto
          -474 916 rlineto
          -22 37 -28 18 -36 0 -26 0 -22 -9 -19 -19 -19 -19 -9 -22 0 -25 rrcurveto
          -1260 vlineto
          0 -21 7 -18 15 -15 15 -15 17 -7 21 0 21 0 18 7 15 15 15 15 7 18 0 21 rrcurveto
          880 vlineto
          0 23 11 12 23 0 13 0 10 -6 8 -13 rrcurveto
          473 -916 rlineto
          22 -37 29 -19 36 0 rrcurveto
          endchar
        </CharString>
        <CharString name="O">
          0 600 135 rmoveto
          -112 0 -80 66 -49 131 -36 99 -18 122 0 147 0 147 18 122 36 99 49 131 80 66 112 0 112 0 80 -66 49 -133 36 -100 18 -122 0 -144 0 -144 -18 -122 -36 -100 -48 -133 -80 -66 -113 0 rrcurveto
          -150 vmoveto
          141 0 106 54 72 109 84 126 42 184 0 242 0 60 -3 64 -7 66 -7 67 -13 64 -19 62 -18 62 -26 56 -34 50 -33 50 -42 40 -52 29 -51 30 -64 15 -75 0 -139 0 -106 -55 -73 -109 rrcurveto
          -85 -128 -43 -184 0 -239 0 -350 84 -223 169 -97 52 -30 64 -15 76 0 rrcurveto
          endchar
        </CharString>
        <CharString name="P">
          0 677 725 rmoveto
          -234 hlineto
          -16 0 -14 6 -11 11 -11 11 -6 14 0 16 rrcurveto
          394 vlineto
          0 16 6 14 11 11 11 11 14 5 16 0 rrcurveto
          234 hlineto
          40 0 36 -9 33 -18 34 -19 26 -27 20 -36 19 -35 10 -44 0 -53 0 -93 -21 -68 -43 -43 -43 -43 -52 -21 -59 0 rrcurveto
          -367 -740 rmoveto
          21 0 17 7 15 15 15 15 7 17 0 21 rrcurveto
          457 vlineto
          0 16 6 14 11 11 11 11 14 6 16 0 rrcurveto
          234 hlineto
          66 0 62 18 56 35 56 35 44 49 34 63 33 62 17 73 0 83 0 66 -9 55 -17 43 -18 44 -27 39 -36 35 -73 73 -87 37 -101 0 rrcurveto
          -363 hlineto
          -22 0 -18 -8 -16 -16 -15 -15 -8 -19 0 -21 rrcurveto
          -1246 vlineto
          0 -21 7 -17 15 -15 15 -15 17 -7 21 0 rrcurveto
          endchar
        </CharString>
        <CharString name="Q">
          0 600 135 rmoveto
          -112 0 -80 66 -49 131 -36 99 -18 122 0 147 0 147 18 122 36 99 49 131 80 66 112 0 112 0 80 -66 49 -133 36 -100 18 -122 0 -144 0 -144 -18 -122 -36 -100 -48 -133 -80 -66 -113 0 rrcurveto
          -150 vmoveto
          141 0 106 54 72 109 84 126 42 184 0 242 0 60 -3 64 -7 66 -7 67 -13 64 -19 62 -18 62 -26 56 -34 50 -33 50 -42 40 -52 29 -51 30 -64 15 -75 0 -139 0 -106 -55 -73 -109 rrcurveto
          -85 -128 -43 -184 0 -239 0 -350 84 -223 169 -97 52 -30 64 -15 76 0 rrcurveto
          386 -391 rmoveto
          20 0 18 8 15 16 15 15 8 17 0 19 0 15 -5 14 -9 13 -9 14 -12 9 -15 6 rrcurveto
          -390 142 rlineto
          -9 3 -8 2 -8 0 -21 0 -18 -8 -15 -15 -15 -16 -7 -17 0 -19 0 -15 5 -14 9 -13 9 -13 12 -10 14 -6 rrcurveto
          391 -142 rlineto
          9 -3 8 -2 8 0 rrcurveto
          endchar
        </CharString>
        <CharString name="R">
          0 638 735 rmoveto
          -224 hlineto
          -16 0 -14 6 -11 11 -11 11 -6 14 0 16 rrcurveto
          384 vlineto
          0 16 6 14 11 11 11 11 14 5 16 0 rrcurveto
          224 hlineto
          40 0 36 -8 33 -17 33 -17 27 -27 19 -35 20 -36 10 -45 0 -55 0 -54 -10 -47 -20 -39 -21 -38 -26 -30 -33 -20 -33 -21 -36 -10 -39 0 rrcurveto
          329 -750 rmoveto
          22 0 18 8 14 15 15 15 7 18 0 20 0 11 -3 12 -6 12 rrcurveto
          -281 440 rlineto
          -5 8 -2 9 0 10 0 24 11 18 23 12 42 18 38 27 34 34 34 35 27 42 21 51 20 50 10 57 0 63 0 71 -9 55 -18 42 -18 41 -27 38 -36 34 -72 73 -87 37 -101 0 rrcurveto
          -354 hlineto
          -21 0 -19 -8 -15 -16 -16 -15 -8 -19 0 -21 rrcurveto
          -1245 vlineto
          0 -22 8 -18 15 -14 15 -15 18 -7 22 0 19 0 17 7 15 15 15 15 7 18 0 21 rrcurveto
          466 vlineto
          0 16 6 14 11 11 11 11 14 6 16 0 rrcurveto
          109 hlineto
          20 0 16 -10 13 -19 rrcurveto
          330 -532 rlineto
          17 -26 21 -13 27 0 rrcurveto
          endchar
        </CharString>
        <CharString name="S">
          0 610 -15 rmoveto
          80 0 67 14 54 27 55 28 49 41 44 56 44 55 22 68 0 81 0 134 -69 108 -137 83 -51 30 -70 31 -88 31 -165 55 -84 90 -2 125 0 71 24 55 48 40 49 39 59 20 72 0 rrcurveto
          60 0 55 -12 47 -25 48 -24 32 -32 15 -41 15 -42 24 -21 33 0 41 0 21 24 0 49 0 8 -1 9 -3 9 -16 71 -42 58 -68 47 -69 47 -89 23 -111 0 -72 0 -65 -14 -57 -29 rrcurveto
          -56 -28 -48 -43 -38 -58 -38 -58 -19 -74 0 -90 0 -179 126 -134 251 -89 42 -14 42 -18 44 -22 107 -50 53 -65 0 -80 0 -89 -38 -65 -77 -41 -48 -25 -50 -12 -52 0 -111 3 -98 54 -85 105 rrcurveto
          -22 28 -23 14 -23 0 -21 0 -17 -8 -13 -15 -13 -16 -6 -20 0 -25 0 -10 2 -8 4 -8 26 -58 53 -56 82 -53 81 -53 88 -27 96 0 rrcurveto
          endchar
        </CharString>
        <CharString name="T">
          0 600 -15 rmoveto
          21 0 17 7 15 15 15 15 7 17 0 21 rrcurveto
          1117 vlineto
          0 16 6 14 11 11 11 11 14 6 16 0 rrcurveto
          247 hlineto
          21 0 17 7 15 15 15 14 7 18 0 20 0 21 -7 17 -15 15 -15 15 -18 8 -20 0 rrcurveto
          -760 hlineto
          -20 0 -18 -8 -15 -15 -15 -15 -7 -17 0 -21 0 -20 7 -18 15 -14 15 -15 17 -7 21 0 rrcurveto
          247 hlineto
          19 0 14 -6 10 -11 10 -12 5 -13 0 -16 rrcurveto
          -1117 vlineto
          0 -21 7 -17 15 -15 15 -15 17 -7 21 0 rrcurveto
          endchar
        </CharString>
        <CharString name="U">
          0 599 -15 rmoveto
          89 0 76 21 63 43 63 42 49 60 35 77 34 77 17 91 0 105 rrcurveto
          843 vlineto
          0 21 -7 17 -15 15 -15 15 -17 7 -21 0 -21 0 -17 -7 -15 -15 -15 -15 -8 -18 0 -20 rrcurveto
          -843 vlineto
          0 -68 -10 -61 -20 -54 -20 -55 -31 -43 -41 -32 -41 -32 -51 -16 -61 0 -61 0 -51 16 -40 33 -41 33 -31 44 -20 55 -20 54 -10 60 0 66 rrcurveto
          843 vlineto
          0 21 -7 17 -15 15 -15 15 -17 7 -21 0 -21 0 -17 -7 -15 -15 -15 -15 -7 -17 0 -21 rrcurveto
          -843 vlineto
          0 -105 17 -91 34 -77 34 -77 49 -60 63 -42 63 -43 76 -21 88 0 rrcurveto
          endchar
        </CharString>
        <CharString name="V">
          0 600 2 rmoveto
          22 0 21 7 18 15 18 14 13 19 7 23 rrcurveto
          354 1256 rlineto
          1 7 1 6 0 6 0 20 -7 18 -14 16 -15 15 -17 8 -22 0 -17 0 -16 -5 -13 -10 -14 -11 -9 -13 -5 -17 rrcurveto
          -271 -983 rlineto
          -3 -17 -12 -8 -20 0 -17 0 -11 8 -4 16 rrcurveto
          -274 984 rlineto
          -5 17 -10 13 -13 11 -13 10 -15 5 -17 0 -19 0 -17 -7 -16 -15 -16 -14 -8 -18 0 -21 0 -7 115 -426 230 -844 8 -26 13 -19 20 -13 19 -13 23 -7 27 0 rrcurveto
          endchar
        </CharString>
        <CharString name="W">
          0 906 -15 rmoveto
          25 0 22 8 18 17 18 17 10 22 2 26 rrcurveto
          68 1266 rlineto
          0 20 -8 17 -15 15 -16 15 -18 7 -21 0 -20 0 -17 -7 -15 -14 -15 -14 -8 -18 -2 -21 rrcurveto
          -40 -867 rlineto
          0 -23 -11 -11 -22 0 -16 0 -11 8 -5 17 rrcurveto
          -124 459 rlineto
          -6 17 -11 14 -16 11 -16 11 -17 6 -19 0 -19 0 -17 -6 -16 -11 -15 -11 -11 -14 -6 -16 rrcurveto
          -128 -461 rlineto
          -6 -16 -10 -8 -15 0 -19 0 -11 11 -1 22 rrcurveto
          -43 868 rlineto
          -1 22 -8 17 -14 14 -15 14 -17 7 -20 0 -21 0 -18 -7 -15 -14 -15 -14 -8 -17 0 -20 rrcurveto
          68 -1268 rlineto
          1 -26 10 -22 18 -17 19 -17 21 -8 25 0 20 0 18 6 16 11 17 12 11 15 8 20 rrcurveto
          188 635 rlineto
          6 15 9 8 14 0 15 0 10 -8 4 -16 rrcurveto
          188 -633 rlineto
          7 -19 11 -16 16 -12 17 -12 18 -6 20 0 rrcurveto
          endchar
        </CharString>
        <CharString name="X">
          0 961 -15 rmoveto
          22 0 18 8 15 16 14 17 7 18 0 20 0 12 -3 13 -6 13 rrcurveto
          -324 583 rlineto
          -5 8 -2 9 0 10 0 10 2 9 5 9 rrcurveto
          301 557 rlineto
          6 13 3 13 0 12 0 21 -7 18 -14 17 -15 16 -18 8 -22 0 -28 0 -23 -14 -18 -28 rrcurveto
          -238 -459 rlineto
          -7 -13 -9 -6 -12 0 -13 0 -9 6 -7 13 rrcurveto
          -238 459 rlineto
          -17 28 -24 14 -30 0 -22 0 -18 -8 -14 -16 -15 -17 -7 -18 0 -21 0 -12 3 -13 6 -13 rrcurveto
          301 -557 rlineto
          5 -9 2 -9 0 -10 0 -10 -2 -9 -5 -8 rrcurveto
          -324 -583 rlineto
          -7 -13 -3 -13 0 -13 0 -21 8 -18 15 -15 15 -16 19 -8 22 0 27 0 22 14 18 27 rrcurveto
          264 505 rlineto
          6 11 9 6 13 0 13 0 9 -6 6 -11 rrcurveto
          261 -505 rlineto
          18 -27 23 -14 28 0 rrcurveto
          endchar
        </CharString>
        <CharString name="Y">
          0 601 -15 rmoveto
          20 0 18 7 14 15 15 15 7 18 0 21 rrcurveto
          632 vlineto
          0 16 4 16 9 16 rrcurveto
          315 562 rlineto
          7 13 3 13 0 12 0 19 -7 18 -14 15 -14 15 -17 7 -21 0 -14 0 -13 -3 -12 -7 -13 -6 -9 -9 -7 -11 rrcurveto
          -226 -406 rlineto
          -13 -18 -16 -9 -19 0 -20 0 -16 9 -13 18 rrcurveto
          -222 405 rlineto
          -15 25 -23 12 -32 0 -21 0 -18 -7 -14 -15 -14 -15 -7 -17 0 -19 0 -13 4 -13 7 -13 rrcurveto
          317 -563 rlineto
          9 -15 5 -18 0 -20 rrcurveto
          -626 vlineto
          0 -21 7 -18 15 -15 15 -15 18 -7 21 0 rrcurveto
          endchar
        </CharString>
        <CharString name="Z">
          0 940 15 rmoveto
          21 0 17 7 15 15 15 15 7 17 0 21 0 21 -7 18 -15 14 -15 15 -17 7 -21 0 rrcurveto
          -483 hlineto
          -17 0 -14 6 -10 12 -11 11 -5 14 0 16 0 10 3 10 5 10 rrcurveto
          591 944 rlineto
          11 19 5 21 0 23 0 35 -12 29 -24 24 -24 24 -29 12 -34 0 rrcurveto
          -631 hlineto
          -19 0 -18 -7 -15 -15 -15 -15 -8 -18 0 -20 0 -21 8 -18 15 -15 15 -15 18 -7 19 0 rrcurveto
          483 hlineto
          18 0 14 -6 11 -11 11 -11 5 -14 0 -15 0 -10 -2 -9 -5 -9 rrcurveto
          -592 -945 rlineto
          -12 -19 -6 -21 0 -23 0 -35 12 -29 25 -25 25 -25 29 -12 35 0 rrcurveto
          endchar
        </CharString>
        <CharString name="a">
          0 485 150 rmoveto
          -122 0 -61 87 0 173 1 96 19 83 35 72 35 71 43 56 49 42 49 41 53 21 57 0 63 0 50 -35 37 -70 24 -46 12 -48 0 -51 0 -147 -31 -118 -62 -89 -65 -90 -84 -46 -102 -2 rrcurveto
          496 -165 rmoveto
          19 0 14 4 10 8 18 14 9 20 0 26 0 11 -2 8 -4 6 -44 63 -24 119 -1 174 0 223 9 185 19 148 0 21 -6 15 -12 10 -19 17 -19 8 -20 0 -42 0 -25 -20 -6 -40 rrcurveto
          -5 -21 -10 -11 -18 0 -12 0 -11 5 -9 10 -43 50 -49 26 -57 1 -90 0 -81 -31 -72 -63 -71 -63 -59 -81 -47 -99 -47 -99 -24 -109 0 -119 0 -138 29 -103 59 -70 59 -70 80 -35 99 0 rrcurveto
          70 0 67 20 65 39 64 40 43 39 19 38 7 15 11 8 16 0 16 0 13 -17 9 -35 27 -98 34 -49 44 0 rrcurveto
          endchar
        </CharString>
        <CharString name="ampersand">
          0 1023 -15 rmoveto
          21 0 18 8 14 15 14 15 7 18 0 23 0 44 -19 57 -38 71 -25 -63 -32 -49 -37 -36 15 -69 26 -34 36 0 rrcurveto
          -292 421 rmoveto
          19 15 26 50 31 84 rrcurveto
          -303 300 rlineto
          -85 82 -42 76 0 70 0 52 16 43 32 35 31 35 43 17 55 0 43 0 37 -11 31 -21 31 -21 23 -27 16 -33 15 -33 24 -17 32 0 20 0 17 8 14 15 13 15 7 17 0 20 rrcurveto
          0 7 -3 11 -5 15 -27 67 -41 51 -56 35 -57 35 -67 17 -77 0 -88 0 -76 -30 -65 -60 -65 -60 -33 -81 0 -103 0 -105 55 -105 110 -106 rrcurveto
          131 -780 rmoveto
          88 0 87 31 86 63 86 63 70 84 55 107 54 106 27 95 0 84 0 17 -6 15 -13 14 -13 13 -17 7 -23 0 -35 0 -22 -26 -10 -51 -28 -124 -49 -103 -70 -83 -83 -97 -89 -49 -95 0 rrcurveto
          -139 0 -70 73 0 147 0 83 20 79 41 74 -42 37 -37 37 -31 35 -68 -94 -34 -115 0 -136 0 -109 31 -92 63 -74 63 -74 88 -37 115 0 rrcurveto
          endchar
        </CharString>
        <CharString name="ampersand_ampersand">
          0 -107 -15 rmoveto
          21 0 18 8 14 15 14 15 7 18 0 23 0 44 -19 57 -38 71 -25 -63 -32 -49 -37 -36 15 -69 26 -34 36 0 rrcurveto
          768 421 rmoveto
          19 15 26 50 31 84 rrcurveto
          -303 300 rlineto
          -85 82 -42 76 0 70 0 52 16 43 32 35 31 35 43 17 55 0 43 0 37 -11 31 -21 31 -21 23 -27 16 -33 15 -33 24 -17 32 0 20 0 17 8 14 15 13 15 7 17 0 20 rrcurveto
          0 7 -3 11 -5 15 -27 67 -41 51 -56 35 -57 35 -67 17 -77 0 -88 0 -76 -30 -65 -60 -65 -60 -33 -81 0 -103 0 -105 55 -105 110 -106 rrcurveto
          131 -780 rmoveto
          88 0 87 31 86 63 86 63 70 84 55 107 54 106 27 95 0 84 0 17 -6 15 -13 14 -13 13 -17 7 -23 0 -35 0 -22 -26 -10 -51 -28 -124 -49 -103 -70 -83 -83 -97 -89 -49 -95 0 rrcurveto
          -139 0 -70 73 0 147 0 83 20 79 41 74 -42 37 -37 37 -31 35 -68 -94 -34 -115 0 -136 0 -109 31 -92 63 -74 63 -74 88 -37 115 0 rrcurveto
          510 hmoveto
          21 0 18 8 14 15 14 15 7 18 0 23 0 44 -19 57 -38 71 -25 -63 -32 -49 -37 -36 15 -69 26 -34 36 0 rrcurveto
          -1352 421 rmoveto
          19 15 26 50 31 84 rrcurveto
          -303 300 rlineto
          -85 82 -42 76 0 70 0 52 16 43 32 35 31 35 43 17 55 0 43 0 37 -11 31 -21 31 -21 23 -27 16 -33 15 -33 24 -17 32 0 20 0 17 8 14 15 13 15 7 17 0 20 rrcurveto
          0 7 -3 11 -5 15 -27 67 -41 51 -56 35 -57 35 -67 17 -77 0 -88 0 -76 -30 -65 -60 -65 -60 -33 -81 0 -103 0 -105 55 -105 110 -106 rrcurveto
          131 -780 rmoveto
          88 0 87 31 86 63 86 63 70 84 55 107 54 106 27 95 0 84 0 17 -6 15 -13 14 -13 13 -17 7 -23 0 -35 0 -22 -26 -10 -51 -28 -124 -49 -103 -70 -83 -83 -97 -89 -49 -95 0 rrcurveto
          -139 0 -70 73 0 147 0 83 20 79 41 74 -42 37 -37 37 -31 35 -68 -94 -34 -115 0 -136 0 -109 31 -92 63 -74 63 -74 88 -37 115 0 rrcurveto
          endchar
        </CharString>
        <CharString name="asciicircum">
          0 940 585 rmoveto
          11 0 12 3 10 6 28 18 14 22 0 26 0 15 -3 13 -7 9 rrcurveto
          -337 519 rlineto
          -20 27 -22 13 -24 0 -27 0 -23 -13 -20 -27 rrcurveto
          -337 -515 rlineto
          -7 -14 -3 -13 0 -13 0 -24 12 -22 23 -17 14 -8 14 -4 13 0 25 0 22 12 17 25 rrcurveto
          238 381 rlineto
          10 13 12 6 14 0 14 0 12 -6 10 -13 rrcurveto
          239 -379 rlineto
          18 -27 22 -13 26 0 rrcurveto
          endchar
        </CharString>
        <CharString name="asciitilde">
          0 788 397 rmoveto
          77 0 61 31 46 61 41 57 21 73 0 89 0 21 -6 18 -12 15 -11 15 -18 8 -23 0 -35 0 -21 -22 -7 -45 -16 -109 -35 -54 -53 0 -28 0 -22 6 -17 12 -32 23 -33 35 -36 47 rrcurveto
          -65 83 -71 42 -76 0 -81 0 -64 -31 -47 -63 -39 -55 -20 -72 0 -89 0 -25 6 -19 12 -14 12 -13 16 -7 19 0 21 0 17 6 13 12 13 12 7 16 1 22 5 109 36 55 68 0 rrcurveto
          44 0 55 -42 66 -83 68 -83 70 -42 73 0 rrcurveto
          endchar
        </CharString>
        <CharString name="asciitilde_at">
          0 146 1005 rmoveto
          40 55 51 47 60 37 61 37 66 19 73 0 138 -3 112 -54 85 -102 92 -110 46 -211 0 -312 rrcurveto
          -33 vlineto
          1 -68 22 -34 44 0 49 0 26 20 2 40 3 75 1 61 0 47 0 300 -54 219 -109 140 -110 133 -144 67 -177 0 -201 0 -160 -82 -120 -165 -98 -137 -66 -125 -35 -112 -41 -133 -69 -66 -97 0 rrcurveto
          -55 0 -35 6 -17 12 -32 23 -33 35 -36 47 -65 83 -71 42 -76 0 -81 0 -64 -31 -47 -63 -39 -55 -20 -72 0 -89 0 -25 6 -19 12 -14 12 -13 16 -7 19 0 21 0 17 6 13 12 rrcurveto
          13 12 7 16 1 22 5 109 36 55 68 0 44 0 55 -42 66 -83 68 -83 84 -42 99 0 85 0 69 22 52 45 63 57 45 71 27 84 29 100 59 110 89 119 rrcurveto
          759 -1020 rmoveto
          20 0 18 2 16 4 19 4 10 20 0 34 0 23 -5 16 -10 9 -11 12 -13 6 -13 0 -45 0 -35 2 -25 5 -64 14 -33 71 -2 128 -1 94 -1 90 -2 88 -3 87 -21 68 -40 48 rrcurveto
          -40 49 -62 24 -85 0 -147 -1 -106 -100 -63 -198 -26 -90 -13 -92 0 -94 0 -215 61 -108 123 0 117 2 59 49 0 97 0 15 -3 12 -6 9 -7 9 -7 4 -8 0 -13 0 -11 -5 -8 -11 rrcurveto
          -23 -29 -25 -15 -28 0 -58 0 -29 63 0 125 0 90 11 76 21 61 44 125 59 63 76 0 81 0 42 -55 3 -110 rrcurveto
          8 -250 rlineto
          4 -177 62 -104 119 -30 38 -9 40 -5 41 0 rrcurveto
          endchar
        </CharString>
        <CharString name="asterisk">
          0 600 146 rmoveto
          21 0 18 7 15 15 14 14 7 18 0 21 rrcurveto
          248 vlineto
          214 -124 rlineto
          11 -6 13 -3 13 0 22 0 18 7 15 15 14 14 7 17 0 21 0 27 -12 22 -25 16 rrcurveto
          -215 125 215 124 rlineto
          25 16 12 22 0 27 0 21 -7 17 -14 15 -15 14 -18 7 -22 0 -13 0 -13 -3 -11 -6 rrcurveto
          -214 -124 rlineto
          248 vlineto
          0 21 -7 18 -14 15 -15 14 -18 7 -21 0 -22 0 -18 -7 -14 -14 -14 -15 -7 -18 0 -21 rrcurveto
          -248 vlineto
          -215 124 rlineto
          -11 6 -13 3 -13 0 -21 0 -18 -7 -15 -14 -15 -15 -7 -17 0 -21 0 -28 12 -22 25 -15 rrcurveto
          216 -124 -215 -124 rlineto
          -25 -16 -13 -22 0 -28 0 -21 7 -18 15 -14 15 -14 18 -7 21 0 13 0 13 3 11 6 rrcurveto
          215 124 rlineto
          -248 vlineto
          0 -21 7 -18 14 -14 14 -15 18 -7 22 0 rrcurveto
          endchar
        </CharString>
        <CharString name="asterisk_slash">
          0 40 -185 rmoveto
          14 0 13 4 13 8 13 8 9 11 6 14 rrcurveto
          720 1623 rlineto
          5 11 2 10 0 10 0 14 -4 13 -8 13 -14 23 -21 11 -28 0 -14 0 -13 -4 -13 -7 -13 -8 -9 -11 -6 -14 rrcurveto
          -720 -1623 rlineto
          -5 -11 -2 -10 0 -9 0 -15 4 -13 8 -13 15 -23 21 -12 27 0 rrcurveto
          -640 171 rmoveto
          21 0 17 7 15 15 15 15 7 17 0 21 rrcurveto
          277 vlineto
          241 -133 rlineto
          13 -6 12 -3 12 0 21 0 18 7 15 15 15 15 7 17 0 20 0 26 -13 22 -25 17 rrcurveto
          -242 135 242 135 rlineto
          25 17 13 22 0 26 0 20 -7 17 -15 15 -15 15 -18 7 -21 0 -12 0 -12 -3 -13 -6 rrcurveto
          -241 -135 rlineto
          278 vlineto
          0 21 -7 17 -15 15 -15 15 -17 7 -21 0 -21 0 -17 -7 -15 -15 -15 -15 -7 -17 0 -21 rrcurveto
          -278 vlineto
          -241 135 rlineto
          -12 6 -12 3 -13 0 -21 0 -17 -7 -15 -15 -15 -15 -8 -17 0 -20 0 -29 12 -21 25 -15 rrcurveto
          243 -135 -242 -135 rlineto
          -25 -18 -13 -22 0 -26 0 -20 8 -17 15 -15 15 -15 17 -7 21 0 13 0 12 3 12 6 rrcurveto
          241 135 rlineto
          -278 vlineto
          0 -21 7 -17 15 -15 15 -15 17 -7 21 0 rrcurveto
          endchar
        </CharString>
        <CharString name="at">
          0 1037 273 rmoveto
          49 0 26 20 2 40 3 75 1 61 0 47 0 300 -54 219 -109 140 -110 133 -144 67 -177 0 -200 -1 -157 -82 -114 -163 -9 -14 -4 -17 0 -21 0 -31 8 -23 15 -15 15 -15 16 -8 17 0 rrcurveto
          21 0 16 7 13 14 52 60 51 48 49 34 49 35 62 17 73 0 138 -3 111 -53 85 -103 93 -110 46 -211 0 -312 rrcurveto
          -33 vlineto
          1 -68 22 -34 44 0 rrcurveto
          -132 -288 rmoveto
          20 0 18 2 16 4 19 4 10 20 0 34 0 23 -5 16 -10 9 -11 12 -13 6 -13 0 -45 0 -35 2 -25 5 -64 14 -33 71 -2 128 -1 94 -1 90 -2 88 -3 87 -21 68 -40 48 rrcurveto
          -40 49 -62 24 -85 0 -147 -1 -106 -100 -63 -198 -26 -90 -13 -92 0 -94 0 -215 61 -108 123 0 117 2 59 49 0 97 0 15 -3 12 -6 9 -7 9 -7 4 -8 0 -13 0 -11 -5 -8 -11 rrcurveto
          -23 -29 -25 -15 -28 0 -58 0 -29 63 0 125 0 90 11 76 21 61 44 125 59 63 76 0 81 0 42 -55 3 -110 rrcurveto
          8 -250 rlineto
          4 -177 62 -104 119 -30 39 -10 39 -4 41 0 rrcurveto
          endchar
        </CharString>
        <CharString name="b">
          0 619 136 rmoveto
          -14 hlineto
          -58 0 -56 24 -54 48 -55 48 -27 66 0 83 rrcurveto
          213 vlineto
          0 65 27 63 53 59 50 52 60 26 72 0 90 0 69 -31 46 -62 47 -62 23 -97 0 -132 -6 -238 -90 -121 -177 -4 rrcurveto
          33 -151 rmoveto
          137 0 98 46 61 92 62 92 31 136 1 178 0 168 -35 131 -71 95 -70 95 -96 47 -120 0 -68 0 -68 -28 -66 -57 -17 -13 -15 -6 -15 0 -31 0 -15 17 0 34 rrcurveto
          424 vlineto
          0 23 -8 19 -15 15 -15 15 -17 7 -19 0 -19 0 -17 -7 -16 -15 -16 -15 -8 -19 0 -23 rrcurveto
          -1374 vlineto
          0 -23 7 -19 13 -14 14 -14 17 -7 21 0 41 0 24 26 7 52 5 32 12 16 21 0 12 0 10 -5 10 -11 75 -73 78 -37 80 0 rrcurveto
          endchar
        </CharString>
        <CharString name="backslash">
          0 960 -185 rmoveto
          27 0 21 12 15 23 8 13 4 14 0 14 0 9 -2 10 -5 11 rrcurveto
          -720 1620 rlineto
          -6 14 -9 11 -13 7 -13 8 -13 4 -14 0 -27 0 -21 -12 -15 -23 -8 -12 -4 -13 0 -14 0 -10 2 -10 5 -11 rrcurveto
          720 -1620 rlineto
          6 -14 10 -11 13 -8 12 -8 13 -4 14 0 rrcurveto
          endchar
        </CharString>
        <CharString name="bar">
          0 600 -215 rmoveto
          20 0 17 8 15 15 15 15 8 17 0 20 rrcurveto
          1680 vlineto
          0 20 -8 18 -15 15 -15 15 -17 7 -20 0 -20 0 -17 -7 -15 -15 -15 -15 -8 -18 0 -20 rrcurveto
          -1680 vlineto
          0 -20 8 -17 15 -15 15 -15 17 -8 20 0 rrcurveto
          endchar
        </CharString>
        <CharString name="bar_bar">
          0 -400 -215 rmoveto
          21 0 17 7 15 15 15 15 7 17 0 21 rrcurveto
          1680 vlineto
          0 21 -7 18 -15 15 -15 14 -17 7 -21 0 -21 0 -18 -7 -14 -14 -15 -15 -7 -18 0 -21 rrcurveto
          -1680 vlineto
          0 -21 7 -17 15 -15 14 -15 18 -7 21 0 rrcurveto
          800 hmoveto
          21 0 17 7 15 15 15 15 7 17 0 21 rrcurveto
          1680 vlineto
          0 21 -7 18 -15 15 -15 14 -17 7 -21 0 -21 0 -18 -7 -14 -14 -15 -15 -7 -18 0 -21 rrcurveto
          -1680 vlineto
          0 -21 7 -17 15 -15 14 -15 18 -7 21 0 rrcurveto
          endchar
        </CharString>
        <CharString name="boxdrawingsdoubledownandhorizontal">
          0 520 -1000 rmoveto
          1620 -530 -160 370 -1460 vlineto
          850 1780 rmoveto
          160 -1220 -160 vlineto
          850 -1780 rmoveto
          1460 370 160 -530 -1620 vlineto
          endchar
        </CharString>
        <CharString name="boxdrawingsdoubledownandleft">
          0 520 -1000 rmoveto
          1620 -530 -160 370 -1460 vlineto
          480 hmoveto
          1940 -850 -160 690 -1780 vlineto
          endchar
        </CharString>
        <CharString name="boxdrawingsdoubledownandright">
          0 840 -1000 rmoveto
          1460 370 160 -530 -1620 vlineto
          -160 hmoveto
          1780 690 160 -850 -1940 vlineto
          endchar
        </CharString>
        <CharString name="boxdrawingsdoublehorizontal">
          0 1210 460 rmoveto
          160 -1220 -160 vlineto
          1220 320 rmoveto
          160 -1220 -160 vlineto
          endchar
        </CharString>
        <CharString name="boxdrawingsdoubleupandhorizontal">
          0 1210 460 rmoveto
          160 -1220 -160 vlineto
          1220 320 rmoveto
          160 -370 1060 -160 -1220 vlineto
          -160 hmoveto
          1220 -160 -1060 -370 -160 vlineto
          endchar
        </CharString>
        <CharString name="boxdrawingsdoubleupandleft">
          0 520 780 rmoveto
          1220 -160 -1060 -370 -160 vlineto
          850 -320 rmoveto
          1540 -160 -1380 -690 -160 vlineto
          endchar
        </CharString>
        <CharString name="boxdrawingsdoubleupandright">
          0 1210 780 rmoveto
          160 -370 1060 -160 -1220 vlineto
          530 -320 rmoveto
          160 -690 1380 -160 -1540 vlineto
          endchar
        </CharString>
        <CharString name="boxdrawingsdoublevertical">
          0 520 -1000 rmoveto
          3000 -160 -3000 vlineto
          480 hmoveto
          3000 -160 -3000 vlineto
          endchar
        </CharString>
        <CharString name="boxdrawingsdoubleverticalandhorizontal">
          0 520 -1000 rmoveto
          1620 -530 -160 370 -1460 vlineto
          160 1780 rmoveto
          1220 -160 -1060 -370 -160 vlineto
          1220 hmoveto
          160 -370 1060 -160 -1220 vlineto
          160 -1780 rmoveto
          1460 370 160 -530 -1620 vlineto
          endchar
        </CharString>
        <CharString name="boxdrawingsdoubleverticalandleft">
          0 520 -1000 rmoveto
          1620 -530 -160 370 -1460 vlineto
          480 hmoveto
          3000 -160 -3000 vlineto
          -160 1780 rmoveto
          1220 -160 -1060 -370 -160 vlineto
          endchar
        </CharString>
        <CharString name="boxdrawingsdoubleverticalandright">
          0 840 -1000 rmoveto
          1460 370 160 -530 -1620 vlineto
          -160 hmoveto
          3000 -160 -3000 vlineto
          850 1780 rmoveto
          160 -370 1060 -160 -1220 vlineto
          endchar
        </CharString>
        <CharString name="boxdrawingsdowndoubleandhorizontalsingle">
          0 840 -1000 rmoveto
          1620 370 160 -1220 -160 370 -1620 160 1620 160 -1620 vlineto
          endchar
        </CharString>
        <CharString name="boxdrawingsdowndoubleandleftsingle">
          0 840 -1000 rmoveto
          1780 -850 -160 370 -1620 160 1620 160 -1620 vlineto
          endchar
        </CharString>
        <CharString name="boxdrawingsdowndoubleandrightsingle">
          0 840 -1000 rmoveto
          1620 370 160 -850 -1780 160 1620 160 -1620 vlineto
          endchar
        </CharString>
        <CharString name="boxdrawingsdownheavyandhorizontallight">
          0 840 -1000 rmoveto
          1620 370 160 -1220 -160 370 -1620 vlineto
          endchar
        </CharString>
        <CharString name="boxdrawingsdownheavyandleftlight">
          0 840 -1000 rmoveto
          1780 -850 -160 370 -1620 vlineto
          endchar
        </CharString>
        <CharString name="boxdrawingsdownheavyandleftuplight">
          0 840 -1000 rmoveto
          1780 -160 1220 -160 -1220 -530 -160 370 -1620 vlineto
          endchar
        </CharString>
        <CharString name="boxdrawingsdownheavyandrightlight">
          0 840 -1000 rmoveto
          1620 370 160 -850 -1780 vlineto
          endchar
        </CharString>
        <CharString name="boxdrawingsdownheavyandrightuplight">
          0 840 -1000 rmoveto
          1620 370 160 -530 1220 -160 -1220 -160 -1780 vlineto
          endchar
        </CharString>
        <CharString name="boxdrawingsdownheavyanduphorizontallight">
          0 840 -1000 rmoveto
          1620 370 160 -530 1220 -160 -1220 -530 -160 370 -1620 vlineto
          endchar
        </CharString>
        <CharString name="boxdrawingsdownlightandhorizontalheavy">
          0 680 -1000 rmoveto
          1460 530 480 -1220 -480 530 -1460 vlineto
          endchar
        </CharString>
        <CharString name="boxdrawingsdownlightandleftheavy">
          0 680 -1000 rmoveto
          1940 -690 -480 530 -1460 vlineto
          endchar
        </CharString>
        <CharString name="boxdrawingsdownlightandleftupheavy">
          0 680 -1000 rmoveto
          1460 160 1540 -480 -1060 -370 -480 530 -1460 vlineto
          endchar
        </CharString>
        <CharString name="boxdrawingsdownlightandrightheavy">
          0 680 -1000 rmoveto
          1460 530 480 -690 -1940 vlineto
          endchar
        </CharString>
        <CharString name="boxdrawingsdownlightandrightupheavy">
          0 680 -1000 rmoveto
          1460 530 480 -370 1060 -480 -1540 160 -1460 vlineto
          endchar
        </CharString>
        <CharString name="boxdrawingsdownlightanduphorizontalheavy">
          0 680 -1000 rmoveto
          1460 530 480 -370 1060 -480 -1060 -370 -480 530 -1460 vlineto
          endchar
        </CharString>
        <CharString name="boxdrawingsdownsingleandhorizontaldouble">
          0 680 -1000 rmoveto
          1460 530 160 -1220 -160 530 -1460 vlineto
          690 1780 rmoveto
          160 -1220 -160 vlineto
          endchar
        </CharString>
        <CharString name="boxdrawingsdownsingleandleftdouble">
          0 680 -1000 rmoveto
          1940 -690 -160 530 -160 -530 -160 530 -1460 vlineto
          endchar
        </CharString>
        <CharString name="boxdrawingsdownsingleandrightdouble">
          0 680 -1000 rmoveto
          1460 530 160 -530 160 530 160 -690 -1940 vlineto
          endchar
        </CharString>
        <CharString name="boxdrawingsheavydoubledashhorizontal">
          0 520 460 rmoveto
          480 -440 -480 vlineto
          1040 hmoveto
          480 -440 -480 vlineto
          endchar
        </CharString>
        <CharString name="boxdrawingsheavydoubledashvertical">
          0 840 -360 rmoveto
          960 -480 -960 vlineto
          480 1440 rmoveto
          960 -480 -960 vlineto
          endchar
        </CharString>
        <CharString name="boxdrawingsheavydown">
          0 840 -1000 rmoveto
          1780 -480 -1780 vlineto
          endchar
        </CharString>
        <CharString name="boxdrawingsheavydownandhorizontal">
          0 840 -1000 rmoveto
          1460 370 480 -1220 -480 370 -1460 vlineto
          endchar
        </CharString>
        <CharString name="boxdrawingsheavydownandleft">
          0 840 -1000 rmoveto
          1940 -850 -480 370 -1460 vlineto
          endchar
        </CharString>
        <CharString name="boxdrawingsheavydownandright">
          0 840 -1000 rmoveto
          1460 370 480 -850 -1940 vlineto
          endchar
        </CharString>
        <CharString name="boxdrawingsheavyhorizontal">
          0 1210 460 rmoveto
          480 -1220 -480 vlineto
          endchar
        </CharString>
        <CharString name="boxdrawingsheavyleft">
          0 680 460 rmoveto
          480 -690 -480 vlineto
          endchar
        </CharString>
        <CharString name="boxdrawingsheavyleftandlightright">
          0 680 460 rmoveto
          160 530 160 -530 160 -690 -480 vlineto
          endchar
        </CharString>
        <CharString name="boxdrawingsheavyquadrupledashhorizontal">
          0 1125 460 rmoveto
          480 -150 -480 vlineto
          -450 hmoveto
          480 -150 -480 vlineto
          450 hmoveto
          480 -150 -480 vlineto
          -450 hmoveto
          480 -150 -480 vlineto
          endchar
        </CharString>
        <CharString name="boxdrawingsheavyquadrupledashvertical">
          0 840 -520 rmoveto
          540 -480 -540 vlineto
          480 2100 rmoveto
          540 -480 -540 vlineto
          480 -700 rmoveto
          540 -480 -540 vlineto
          480 -700 rmoveto
          540 -480 -540 vlineto
          endchar
        </CharString>
        <CharString name="boxdrawingsheavyright">
          0 1210 460 rmoveto
          480 -690 -480 vlineto
          endchar
        </CharString>
        <CharString name="boxdrawingsheavytripledashhorizontal">
          0 1120 460 rmoveto
          480 -240 -480 vlineto
          -560 hmoveto
          480 -240 -480 vlineto
          640 hmoveto
          480 -240 -480 vlineto
          endchar
        </CharString>
        <CharString name="boxdrawingsheavytripledashvertical">
          0 840 -520 rmoveto
          800 -480 -800 vlineto
          480 1920 rmoveto
          800 -480 -800 vlineto
          480 -960 rmoveto
          800 -480 -800 vlineto
          endchar
        </CharString>
        <CharString name="boxdrawingsheavyup">
          0 840 620 rmoveto
          1380 -480 -1380 vlineto
          endchar
        </CharString>
        <CharString name="boxdrawingsheavyupandhorizontal">
          0 1210 460 rmoveto
          480 -370 1060 -480 -1060 -370 -480 vlineto
          endchar
        </CharString>
        <CharString name="boxdrawingsheavyupandleft">
          0 840 460 rmoveto
          1540 -480 -1060 -370 -480 vlineto
          endchar
        </CharString>
        <CharString name="boxdrawingsheavyupandlightdown">
          0 680 -1000 rmoveto
          1620 160 1380 -480 -1380 160 -1620 vlineto
          endchar
        </CharString>
        <CharString name="boxdrawingsheavyupandright">
          0 1210 460 rmoveto
          480 -370 1060 -480 -1540 vlineto
          endchar
        </CharString>
        <CharString name="boxdrawingsheavyvertical">
          0 840 -1000 rmoveto
          3000 -480 -3000 vlineto
          endchar
        </CharString>
        <CharString name="boxdrawingsheavyverticalandhorizontal">
          0 840 -1000 rmoveto
          1460 370 480 -370 1060 -480 -1060 -370 -480 370 -1460 vlineto
          endchar
        </CharString>
        <CharString name="boxdrawingsheavyverticalandleft">
          0 840 -1000 rmoveto
          3000 -480 -1060 -370 -480 370 -1460 vlineto
          endchar
        </CharString>
        <CharString name="boxdrawingsheavyverticalandright">
          0 840 -1000 rmoveto
          1460 370 480 -370 1060 -480 -3000 vlineto
          endchar
        </CharString>
        <CharString name="boxdrawingsleftdownheavyandrightuplight">
          0 840 -1000 rmoveto
          1620 370 160 -370 160 -160 1060 -160 -1060 -530 -480 370 -1460 vlineto
          endchar
        </CharString>
        <CharString name="boxdrawingsleftheavyandrightdownlight">
          0 680 -1000 rmoveto
          1620 530 160 -530 160 -690 -480 530 -1460 vlineto
          endchar
        </CharString>
        <CharString name="boxdrawingsleftheavyandrightuplight">
          0 680 460 rmoveto
          160 530 160 -530 1220 -160 -1060 -530 -480 vlineto
          endchar
        </CharString>
        <CharString name="boxdrawingsleftheavyandrightverticallight">
          0 680 -1000 rmoveto
          1620 530 160 -530 1220 -160 -1060 -530 -480 530 -1460 vlineto
          endchar
        </CharString>
        <CharString name="boxdrawingsleftlightandrightdownheavy">
          0 840 -1000 rmoveto
          1460 370 480 -850 -160 -370 -160 370 -1620 vlineto
          endchar
        </CharString>
        <CharString name="boxdrawingsleftlightandrightupheavy">
          0 1210 460 rmoveto
          480 -370 1060 -480 -1220 -370 -160 370 -160 vlineto
          endchar
        </CharString>
        <CharString name="boxdrawingsleftlightandrightverticalheavy">
          0 840 -1000 rmoveto
          1460 370 480 -370 1060 -480 -1220 -370 -160 370 -1620 vlineto
          endchar
        </CharString>
        <CharString name="boxdrawingsleftupheavyandrightdownlight">
          0 680 -1000 rmoveto
          1460 160 160 370 160 -370 1220 -480 -1060 -370 -480 530 -1460 vlineto
          endchar
        </CharString>
        <CharString name="boxdrawingslightarcdownandleft">
          0 680 -1000 rmoveto
          1240 vlineto
          0 75 -14 70 -28 65 -28 65 -39 57 -49 50 -50 49 -57 39 -65 28 -65 28 -70 14 -75 0 rrcurveto
          -150 -160 150 hlineto
          69 0 64 -17 58 -34 57 -35 46 -46 35 -57 34 -58 17 -64 0 -69 rrcurveto
          -1240 vlineto
          endchar
        </CharString>
        <CharString name="boxdrawingslightarcdownandright">
          0 680 -1000 rmoveto
          1240 vlineto
          0 69 17 64 35 58 34 57 46 46 58 35 57 34 64 17 69 0 rrcurveto
          150 160 -150 hlineto
          -75 0 -69 -14 -65 -28 -65 -28 -58 -39 -49 -49 -50 -50 -39 -57 -28 -65 -28 -65 -14 -70 0 -75 rrcurveto
          -1240 vlineto
          endchar
        </CharString>
        <CharString name="boxdrawingslightarcupandleft">
          0 140 620 rmoveto
          75 0 70 14 65 28 65 28 57 39 50 50 49 49 39 58 28 65 28 65 14 69 0 75 rrcurveto
          1240 -160 -1240 vlineto
          0 -69 -17 -64 -34 -57 -35 -58 -46 -46 -57 -34 -58 -35 -64 -17 -69 0 rrcurveto
          -150 -160 hlineto
          endchar
        </CharString>
        <CharString name="boxdrawingslightarcupandright">
          0 1210 620 rmoveto
          160 -150 vlineto
          -69 0 -64 17 -57 35 -58 34 -46 46 -34 58 -35 57 -17 64 0 69 rrcurveto
          1240 -160 -1240 vlineto
          0 -75 14 -69 28 -65 28 -65 39 -58 50 -49 49 -50 58 -39 65 -28 65 -28 69 -14 75 0 rrcurveto
          endchar
        </CharString>
        <CharString name="boxdrawingslightdiagonalcross">
          0 1130 -635 rmoveto
          -530 1060 -530 -1060 -145 72 585 1169 -580 1160 144 71 526 -1051 526 1051 144 -71 -580 -1160 585 -1169 rlineto
          endchar
        </CharString>
        <CharString name="boxdrawingslightdiagonalupperlefttolowerright">
          0 1130 -635 rmoveto
          -1200 2401 144 71 1201 -2400 rlineto
          endchar
        </CharString>
        <CharString name="boxdrawingslightdiagonalupperrighttolowerleft">
          0 70 -635 rmoveto
          1200 2401 -144 71 -1201 -2400 rlineto
          endchar
        </CharString>
        <CharString name="boxdrawingslightdoubledashhorizontal">
          0 520 620 rmoveto
          160 -440 -160 vlineto
          1040 hmoveto
          160 -440 -160 vlineto
          endchar
        </CharString>
        <CharString name="boxdrawingslightdoubledashvertical">
          0 680 -520 rmoveto
          1280 -160 -1280 vlineto
          160 1440 rmoveto
          1280 -160 -1280 vlineto
          endchar
        </CharString>
        <CharString name="boxdrawingslightdown">
          0 680 -1000 rmoveto
          1780 -160 -1780 vlineto
          endchar
        </CharString>
        <CharString name="boxdrawingslightdownandhorizontal">
          0 680 -1000 rmoveto
          1620 530 160 -1220 -160 530 -1620 vlineto
          endchar
        </CharString>
        <CharString name="boxdrawingslightdownandleft">
          0 680 -1000 rmoveto
          1780 -690 -160 530 -1620 vlineto
          endchar
        </CharString>
        <CharString name="boxdrawingslightdownandright">
          0 680 -1000 rmoveto
          1620 530 160 -690 -1780 vlineto
          endchar
        </CharString>
        <CharString name="boxdrawingslighthorizontal">
          0 1210 620 rmoveto
          160 -1220 -160 vlineto
          endchar
        </CharString>
        <CharString name="boxdrawingslightleft">
          0 680 620 rmoveto
          160 -690 -160 vlineto
          endchar
        </CharString>
        <CharString name="boxdrawingslightleftandheavyright">
          0 1210 460 rmoveto
          480 -690 -160 -530 -160 530 -160 vlineto
          endchar
        </CharString>
        <CharString name="boxdrawingslightquadrupledashhorizontal">
          0 1125 620 rmoveto
          160 -150 -160 vlineto
          -450 hmoveto
          160 -150 -160 vlineto
          450 hmoveto
          160 -150 -160 vlineto
          -450 hmoveto
          160 -150 -160 vlineto
          endchar
        </CharString>
        <CharString name="boxdrawingslightquadrupledashvertical">
          0 680 -520 rmoveto
          540 -160 -540 vlineto
          160 2100 rmoveto
          540 -160 -540 vlineto
          160 -700 rmoveto
          540 -160 -540 vlineto
          160 -700 rmoveto
          540 -160 -540 vlineto
          endchar
        </CharString>
        <CharString name="boxdrawingslightright">
          0 1210 620 rmoveto
          160 -690 -160 vlineto
          endchar
        </CharString>
        <CharString name="boxdrawingslighttripledashhorizontal">
          0 1120 620 rmoveto
          160 -240 -160 vlineto
          -560 hmoveto
          160 -240 -160 vlineto
          640 hmoveto
          160 -240 -160 vlineto
          endchar
        </CharString>
        <CharString name="boxdrawingslighttripledashvertical">
          0 680 -520 rmoveto
          800 -160 -800 vlineto
          160 1920 rmoveto
          800 -160 -800 vlineto
          160 -960 rmoveto
          800 -160 -800 vlineto
          endchar
        </CharString>
        <CharString name="boxdrawingslightup">
          0 680 620 rmoveto
          1380 -160 -1380 vlineto
          endchar
        </CharString>
        <CharString name="boxdrawingslightupandheavydown">
          0 840 -1000 rmoveto
          1780 -160 1220 -160 -1220 -160 -1780 vlineto
          endchar
        </CharString>
        <CharString name="boxdrawingslightupandhorizontal">
          0 1210 620 rmoveto
          160 -530 1220 -160 -1220 -530 -160 vlineto
          endchar
        </CharString>
        <CharString name="boxdrawingslightupandleft">
          0 680 620 rmoveto
          1380 -160 -1220 -530 -160 vlineto
          endchar
        </CharString>
        <CharString name="boxdrawingslightupandright">
          0 1210 620 rmoveto
          160 -530 1220 -160 -1380 vlineto
          endchar
        </CharString>
        <CharString name="boxdrawingslightvertical">
          0 680 -1000 rmoveto
          3000 -160 -3000 vlineto
          endchar
        </CharString>
        <CharString name="boxdrawingslightverticalandhorizontal">
          0 680 -1000 rmoveto
          1620 530 160 -530 1220 -160 -1220 -530 -160 530 -1620 vlineto
          endchar
        </CharString>
        <CharString name="boxdrawingslightverticalandleft">
          0 680 -1000 rmoveto
          3000 -160 -1220 -530 -160 530 -1620 vlineto
          endchar
        </CharString>
        <CharString name="boxdrawingslightverticalandright">
          0 680 -1000 rmoveto
          1620 530 160 -530 1220 -160 -3000 vlineto
          endchar
        </CharString>
        <CharString name="boxdrawingsrightdownheavyandleftuplight">
          0 840 -1000 rmoveto
          1460 370 480 -530 1060 -160 -1060 -160 -160 -370 -160 370 -1620 vlineto
          endchar
        </CharString>
        <CharString name="boxdrawingsrightheavyandleftdownlight">
          0 680 -1000 rmoveto
          1460 530 480 -690 -160 -530 -160 530 -1620 vlineto
          endchar
        </CharString>
        <CharString name="boxdrawingsrightheavyandleftuplight">
          0 1210 460 rmoveto
          480 -530 1060 -160 -1220 -530 -160 530 -160 vlineto
          endchar
        </CharString>
        <CharString name="boxdrawingsrightheavyandleftverticallight">
          0 680 -1000 rmoveto
          1460 530 480 -530 1060 -160 -1220 -530 -160 530 -1620 vlineto
          endchar
        </CharString>
        <CharString name="boxdrawingsrightlightandleftdownheavy">
          0 840 -1000 rmoveto
          1620 370 160 -370 160 -850 -480 370 -1460 vlineto
          endchar
        </CharString>
        <CharString name="boxdrawingsrightlightandleftupheavy">
          0 840 460 rmoveto
          160 370 160 -370 1220 -480 -1060 -370 -480 vlineto
          endchar
        </CharString>
        <CharString name="boxdrawingsrightlightandleftverticalheavy">
          0 840 -1000 rmoveto
          1620 370 160 -370 1220 -480 -1060 -370 -480 370 -1460 vlineto
          endchar
        </CharString>
        <CharString name="boxdrawingsrightupheavyandleftdownlight">
          0 680 -1000 rmoveto
          1460 530 480 -370 1060 -480 -1220 -370 -160 370 -160 160 -1460 vlineto
          endchar
        </CharString>
        <CharString name="boxdrawingsupdoubleandhorizontalsingle">
          0 1210 620 rmoveto
          160 -370 1220 -160 -1220 -160 1220 -160 -1220 -370 -160 vlineto
          endchar
        </CharString>
        <CharString name="boxdrawingsupdoubleandleftsingle">
          0 840 620 rmoveto
          1380 -160 -1220 -160 1220 -160 -1220 -370 -160 vlineto
          endchar
        </CharString>
        <CharString name="boxdrawingsupdoubleandrightsingle">
          0 1210 620 rmoveto
          160 -370 1220 -160 -1220 -160 1220 -160 -1380 vlineto
          endchar
        </CharString>
        <CharString name="boxdrawingsupheavyanddownhorizontallight">
          0 680 -1000 rmoveto
          1620 530 160 -370 1220 -480 -1220 -370 -160 530 -1620 vlineto
          endchar
        </CharString>
        <CharString name="boxdrawingsupheavyandhorizontallight">
          0 1210 620 rmoveto
          160 -370 1220 -480 -1220 -370 -160 vlineto
          endchar
        </CharString>
        <CharString name="boxdrawingsupheavyandleftdownlight">
          0 680 -1000 rmoveto
          1620 160 1380 -480 -1220 -370 -160 530 -1620 vlineto
          endchar
        </CharString>
        <CharString name="boxdrawingsupheavyandleftlight">
          0 840 620 rmoveto
          1380 -480 -1220 -370 -160 vlineto
          endchar
        </CharString>
        <CharString name="boxdrawingsupheavyandrightdownlight">
          0 680 -1000 rmoveto
          1620 530 160 -370 1220 -480 -1380 160 -1620 vlineto
          endchar
        </CharString>
        <CharString name="boxdrawingsupheavyandrightlight">
          0 1210 620 rmoveto
          160 -370 1220 -480 -1380 vlineto
          endchar
        </CharString>
        <CharString name="boxdrawingsuplightanddownhorizontalheavy">
          0 840 -1000 rmoveto
          1460 370 480 -530 1060 -160 -1060 -530 -480 370 -1460 vlineto
          endchar
        </CharString>
        <CharString name="boxdrawingsuplightandhorizontalheavy">
          0 1210 460 rmoveto
          480 -530 1060 -160 -1060 -530 -480 vlineto
          endchar
        </CharString>
        <CharString name="boxdrawingsuplightandleftdownheavy">
          0 840 -1000 rmoveto
          1940 -160 1060 -160 -1060 -530 -480 370 -1460 vlineto
          endchar
        </CharString>
        <CharString name="boxdrawingsuplightandleftheavy">
          0 680 460 rmoveto
          1540 -160 -1060 -530 -480 vlineto
          endchar
        </CharString>
        <CharString name="boxdrawingsuplightandrightdownheavy">
          0 840 -1000 rmoveto
          1460 370 480 -530 1060 -160 -1060 -160 -1940 vlineto
          endchar
        </CharString>
        <CharString name="boxdrawingsuplightandrightheavy">
          0 1210 460 rmoveto
          480 -530 1060 -160 -1540 vlineto
          endchar
        </CharString>
        <CharString name="boxdrawingsupsingleandhorizontaldouble">
          0 1210 460 rmoveto
          160 -1220 -160 vlineto
          1220 320 rmoveto
          160 -530 1060 -160 -1060 -530 -160 vlineto
          endchar
        </CharString>
        <CharString name="boxdrawingsupsingleandleftdouble">
          0 680 460 rmoveto
          1540 -160 -1060 -530 -160 530 -160 -530 -160 vlineto
          endchar
        </CharString>
        <CharString name="boxdrawingsupsingleandrightdouble">
          0 1210 460 rmoveto
          160 -530 160 530 160 -530 1060 -160 -1540 vlineto
          endchar
        </CharString>
        <CharString name="boxdrawingsverticaldoubleandhorizontalsingle">
          0 840 -1000 rmoveto
          1620 370 160 -370 1220 -160 -1220 -160 1220 -160 -1220 -370 -160 370 -1620 160 1620 160 -1620 vlineto
          endchar
        </CharString>
        <CharString name="boxdrawingsverticaldoubleandleftsingle">
          0 840 -1000 rmoveto
          3000 -160 -3000 vlineto
          -160 hmoveto
          3000 -160 -1220 -370 -160 370 -1620 vlineto
          endchar
        </CharString>
        <CharString name="boxdrawingsverticaldoubleandrightsingle">
          0 520 -1000 rmoveto
          3000 -160 -3000 vlineto
          480 hmoveto
          1620 370 160 -370 1220 -160 -3000 vlineto
          endchar
        </CharString>
        <CharString name="boxdrawingsverticalheavyandhorizontallight">
          0 840 -1000 rmoveto
          1620 370 160 -370 1220 -480 -1220 -370 -160 370 -1620 vlineto
          endchar
        </CharString>
        <CharString name="boxdrawingsverticalheavyandleftlight">
          0 840 -1000 rmoveto
          3000 -480 -1220 -370 -160 370 -1620 vlineto
          endchar
        </CharString>
        <CharString name="boxdrawingsverticalheavyandrightlight">
          0 840 -1000 rmoveto
          1620 370 160 -370 1220 -480 -3000 vlineto
          endchar
        </CharString>
        <CharString name="boxdrawingsverticallightandhorizontalheavy">
          0 680 -1000 rmoveto
          1460 530 480 -530 1060 -160 -1060 -530 -480 530 -1460 vlineto
          endchar
        </CharString>
        <CharString name="boxdrawingsverticallightandleftheavy">
          0 680 -1000 rmoveto
          3000 -160 -1060 -530 -480 530 -1460 vlineto
          endchar
        </CharString>
        <CharString name="boxdrawingsverticallightandrightheavy">
          0 680 -1000 rmoveto
          1460 530 480 -530 1060 -160 -3000 vlineto
          endchar
        </CharString>
        <CharString name="boxdrawingsverticalsingleandhorizontaldouble">
          0 680 -1000 rmoveto
          1460 530 160 -530 160 530 160 -530 1060 -160 -1060 -530 -160 530 -160 -530 -160 530 -1460 vlineto
          endchar
        </CharString>
        <CharString name="boxdrawingsverticalsingleandleftdouble">
          0 680 -1000 rmoveto
          3000 -160 -1060 -530 -160 530 -160 -530 -160 530 -1460 vlineto
          endchar
        </CharString>
        <CharString name="boxdrawingsverticalsingleandrightdouble">
          0 680 -1000 rmoveto
          1460 530 160 -530 160 530 160 -530 1060 -160 -3000 vlineto
          endchar
        </CharString>
        <CharString name="braceleft">
          0 928 -248 rmoveto
          18 0 16 6 13 12 13 12 6 19 0 25 0 20 -7 16 -13 13 -13 13 -16 7 -17 0 rrcurveto
          -68 hlineto
          -79 0 -58 12 -35 25 -57 38 -29 52 0 66 0 17 1 28 2 40 rrcurveto
          3 208 rlineto
          0 135 -29 93 -59 50 -13 11 -7 14 0 16 0 16 7 14 13 11 59 50 29 93 0 135 rrcurveto
          -3 208 rlineto
          -2 40 -1 28 0 17 0 66 29 52 57 38 35 25 58 12 79 0 rrcurveto
          69 hlineto
          17 0 16 7 13 13 13 13 7 16 0 20 0 25 -6 19 -13 12 -13 12 -16 6 -18 0 -104 0 -64 -1 -26 -1 -66 -5 -56 -20 -44 -36 -81 -62 -40 -90 0 -120 0 -27 2 -55 3 -84 rrcurveto
          3 -83 2 -52 0 -20 0 -78 -19 -57 -38 -38 -28 -27 -36 -14 -43 0 -59 0 -30 -26 0 -52 0 -52 30 -26 59 0 43 0 36 -14 28 -27 38 -38 19 -57 0 -78 0 -20 -2 -52 -3 -83 rrcurveto
          -3 -84 -2 -55 0 -27 0 -120 40 -90 81 -62 44 -36 56 -20 66 -5 26 -1 64 -1 103 0 rrcurveto
          endchar
        </CharString>
        <CharString name="braceright">
          0 363 -248 rmoveto
          42 0 34 1 25 1 26 2 28 6 31 9 30 10 28 14 24 20 81 62 40 90 0 120 0 27 -2 55 -3 84 -3 83 -2 52 0 20 0 78 19 57 38 38 28 27 36 14 43 0 rrcurveto
          59 0 30 26 0 52 0 52 -30 26 -59 0 -43 0 -36 14 -28 27 -38 38 -19 57 0 78 0 20 2 52 3 83 3 84 2 55 0 27 0 120 -40 90 -81 62 -44 36 -56 20 -66 5 rrcurveto
          -26 1 -64 1 -104 0 -18 0 -16 -6 -13 -12 -13 -12 -6 -19 0 -25 0 -20 7 -16 13 -13 13 -13 16 -7 17 0 rrcurveto
          69 hlineto
          79 0 58 -12 35 -25 57 -38 29 -52 0 -66 0 -17 -1 -28 -2 -40 rrcurveto
          -3 -208 rlineto
          0 -135 29 -93 59 -50 13 -11 7 -14 0 -16 0 -16 -7 -14 -13 -11 -59 -50 -29 -93 0 -135 rrcurveto
          3 -208 rlineto
          2 -40 1 -28 0 -17 0 -66 -29 -52 -57 -38 -35 -25 -58 -12 -79 0 rrcurveto
          -68 hlineto
          -17 0 -16 -7 -13 -13 -13 -13 -7 -16 0 -20 0 -25 6 -19 13 -12 13 -12 16 -6 18 0 rrcurveto
          endchar
        </CharString>
        <CharString name="bracketleft">
          0 840 -255 rmoveto
          21 0 17 7 15 15 15 15 7 17 0 21 0 21 -7 17 -15 15 -15 15 -17 7 -21 0 rrcurveto
          -337 hlineto
          -32 0 -16 16 0 32 rrcurveto
          1515 vlineto
          0 31 16 16 32 0 rrcurveto
          337 hlineto
          21 0 17 7 15 15 15 15 7 17 0 21 0 21 -7 17 -15 15 -15 15 -17 7 -21 0 rrcurveto
          -456 hlineto
          -22 0 -18 -8 -16 -15 -15 -16 -8 -18 0 -21 rrcurveto
          -1754 vlineto
          0 -21 8 -18 15 -16 16 -15 18 -8 22 0 rrcurveto
          endchar
        </CharString>
        <CharString name="bracketright">
          0 380 -255 rmoveto
          456 hlineto
          22 0 18 8 16 15 15 16 8 18 0 21 rrcurveto
          1754 vlineto
          0 21 -8 18 -15 16 -16 15 -18 8 -22 0 rrcurveto
          -456 hlineto
          -21 0 -17 -7 -15 -15 -15 -15 -7 -17 0 -21 0 -21 7 -17 15 -15 15 -15 17 -7 21 0 rrcurveto
          337 hlineto
          32 0 16 -16 0 -31 rrcurveto
          -1515 vlineto
          0 -32 -16 -16 -32 0 rrcurveto
          -337 hlineto
          -21 0 -17 -7 -15 -15 -15 -15 -7 -17 0 -21 0 -21 7 -17 15 -15 15 -15 17 -7 21 0 rrcurveto
          endchar
        </CharString>
        <CharString name="bracketright_numbersign">
          0 -384 -255 rmoveto
          22 0 19 8 15 15 15 15 8 19 0 21 rrcurveto
          542 940 150 -940 370 540 150 -540 542 vlineto
          0 21 -8 19 -15 15 -15 15 -19 8 -22 0 rrcurveto
          -456 hlineto
          -21 0 -17 -7 -15 -15 -15 -15 -7 -17 0 -21 0 -21 7 -17 15 -15 15 -15 17 -7 21 0 rrcurveto
          337 hlineto
          32 0 16 -16 0 -31 rrcurveto
          -1515 vlineto
          0 -32 -16 -16 -32 0 rrcurveto
          -337 hlineto
          -21 0 -17 -7 -15 -15 -15 -15 -7 -17 0 -21 0 -21 7 -17 15 -15 15 -15 17 -7 21 0 rrcurveto
          1910 1140 rmoveto
          21 0 18 7 15 15 14 15 7 18 0 21 0 21 -7 17 -15 15 -15 14 -17 7 -21 0 rrcurveto
          -505 -150 hlineto
          -164 -900 rmoveto
          21 0 17 7 15 15 15 14 7 18 0 21 rrcurveto
          195 -151 -195 vlineto
          0 -21 7 -18 15 -14 15 -15 18 -7 21 0 rrcurveto
          75 640 rmoveto
          716 vlineto
          0 21 -7 17 -15 15 -15 14 -18 7 -21 0 -21 0 -17 -7 -15 -14 -15 -15 -7 -17 0 -21 rrcurveto
          -716 vlineto
          476 -640 rmoveto
          21 0 17 7 15 15 14 14 7 18 0 21 rrcurveto
          715 -150 -715 vlineto
          0 -21 7 -18 15 -14 15 -15 18 -7 21 0 rrcurveto
          74 1160 rmoveto
          196 vlineto
          0 21 -7 17 -14 15 -15 14 -18 7 -21 0 -21 0 -17 -7 -15 -14 -15 -15 -7 -17 0 -21 rrcurveto
          -196 vlineto
          345 -780 rmoveto
          21 0 17 7 15 15 15 14 7 18 0 21 0 21 -7 17 -15 15 -15 15 -17 7 -21 0 rrcurveto
          -105 -150 hlineto
          endchar
        </CharString>
        <CharString name="c">
          0 680 -15 rmoveto
          107 0 104 39 99 78 17 13 9 17 0 22 0 24 -6 18 -11 13 -12 13 -14 7 -17 0 -15 0 -11 -3 -9 -7 -77 -55 -77 -28 -75 0 -105 0 -81 34 -57 68 -56 69 -28 92 0 117 rrcurveto
          0 127 30 96 59 65 59 66 80 33 101 0 65 0 65 -20 67 -41 13 -8 13 -4 13 0 21 0 16 8 11 15 11 16 6 17 0 18 0 22 -8 19 -17 16 -77 69 -93 35 -110 0 rrcurveto
          -89 0 -82 -21 -75 -41 -75 -41 -60 -60 -46 -77 -45 -77 -23 -103 0 -129 0 -112 20 -95 41 -78 40 -79 58 -60 76 -43 75 -43 84 -21 91 0 rrcurveto
          endchar
        </CharString>
        <CharString name="colon">
          0 604 766 rmoveto
          39 0 34 15 28 29 28 29 14 35 0 41 0 42 -14 35 -28 29 -28 29 -34 15 -39 0 -42 0 -36 -15 -28 -29 -29 -29 -14 -35 0 -42 0 -41 14 -35 29 -29 28 -29 36 -15 42 0 rrcurveto
          -781 vmoveto
          39 0 34 15 28 29 28 29 14 35 0 41 0 42 -14 36 -28 29 -28 29 -34 15 -39 0 -42 0 -36 -15 -28 -29 -29 -29 -14 -36 0 -42 0 -41 14 -35 29 -29 28 -29 36 -15 42 0 rrcurveto
          endchar
        </CharString>
        <CharString name="colon_center">
          0 604 155 rmoveto
          39 0 34 15 28 29 28 29 14 35 0 41 0 42 -14 36 -28 29 -28 29 -34 15 -39 0 -43 0 -35 -15 -28 -29 -29 -29 -14 -36 0 -42 0 -41 14 -35 29 -29 28 -29 35 -15 43 0 rrcurveto
          591 vmoveto
          39 0 34 15 28 29 28 29 14 35 0 41 0 42 -14 36 -28 29 -28 29 -34 14 -39 0 -43 0 -35 -14 -28 -29 -29 -29 -14 -36 0 -42 0 -41 14 -35 29 -29 28 -29 35 -15 43 0 rrcurveto
          endchar
        </CharString>
        <CharString name="colon_center_left">
          0 304 155 rmoveto
          39 0 34 15 28 29 28 29 14 35 0 41 0 42 -14 36 -28 29 -28 29 -34 15 -39 0 -43 0 -35 -15 -28 -29 -29 -29 -14 -36 0 -42 0 -41 14 -35 29 -29 28 -29 35 -15 43 0 rrcurveto
          591 vmoveto
          39 0 34 15 28 29 28 29 14 35 0 41 0 42 -14 36 -28 29 -28 29 -34 14 -39 0 -43 0 -35 -14 -28 -29 -29 -29 -14 -36 0 -42 0 -41 14 -35 29 -29 28 -29 35 -15 43 0 rrcurveto
          endchar
        </CharString>
        <CharString name="colon_center_right">
          0 904 155 rmoveto
          39 0 34 15 28 29 28 29 14 35 0 41 0 42 -14 36 -28 29 -28 29 -34 15 -39 0 -43 0 -35 -15 -28 -29 -29 -29 -14 -36 0 -42 0 -41 14 -35 29 -29 28 -29 35 -15 43 0 rrcurveto
          591 vmoveto
          39 0 34 15 28 29 28 29 14 35 0 41 0 42 -14 36 -28 29 -28 29 -34 14 -39 0 -43 0 -35 -14 -28 -29 -29 -29 -14 -36 0 -42 0 -41 14 -35 29 -29 28 -29 35 -15 43 0 rrcurveto
          endchar
        </CharString>
        <CharString name="comma">
          0 370 -398 rmoveto
          142 15 109 56 77 97 55 71 28 81 0 90 0 101 -25 76 -51 51 -30 30 -35 15 -39 0 -53 0 -39 -19 -24 -39 -15 -21 -8 -25 0 -27 0 -43 19 -41 39 -37 38 -37 19 -41 0 -43 rrcurveto
          0 -41 -19 -35 -39 -31 -39 -31 -51 -20 -65 -8 -47 -5 -24 -27 0 -48 5 -43 25 -21 47 0 rrcurveto
          endchar
        </CharString>
        <CharString name="d">
          0 595 136 rmoveto
          -14 hlineto
          -177 4 -91 121 -5 238 0 132 23 97 47 62 46 62 69 31 90 0 71 0 60 -26 50 -52 54 -59 27 -63 0 -65 rrcurveto
          -213 vlineto
          0 -83 -27 -66 -55 -48 -54 -48 -56 -24 -58 0 rrcurveto
          328 -151 rmoveto
          20 0 18 7 13 14 14 14 7 19 0 23 rrcurveto
          1374 vlineto
          0 23 -8 19 -16 15 -16 15 -17 7 -19 0 -19 0 -17 -7 -15 -15 -15 -15 -8 -19 0 -23 rrcurveto
          -424 vlineto
          0 -34 -15 -17 -31 0 -15 0 -15 6 -17 13 -66 57 -68 28 -68 0 -120 0 -96 -47 -70 -95 -71 -95 -35 -131 0 -168 1 -178 31 -136 62 -92 61 -92 98 -46 137 0 80 0 77 37 75 74 rrcurveto
          11 10 11 5 11 0 21 0 12 -16 5 -32 7 -52 24 -26 41 0 rrcurveto
          endchar
        </CharString>
        <CharString name="dagger">
          0 940 885 rmoveto
          21 0 17 7 15 15 15 15 7 17 0 21 0 21 -7 17 -15 15 -15 15 -17 7 -21 0 rrcurveto
          -680 hlineto
          -21 0 -17 -7 -15 -15 -15 -15 -7 -17 0 -21 0 -21 7 -17 15 -15 15 -15 17 -7 21 0 rrcurveto
          415 300 rmoveto
          155 vlineto
          0 20 -8 18 -15 15 -15 15 -17 7 -20 0 -20 0 -17 -7 -15 -15 -15 -15 -8 -18 0 -20 rrcurveto
          -155 vlineto
          75 -1200 rmoveto
          20 0 17 8 15 15 15 15 8 17 0 20 rrcurveto
          675 -150 -675 vlineto
          0 -20 8 -17 15 -15 15 -15 17 -8 20 0 rrcurveto
          endchar
        </CharString>
        <CharString name="darkshade">
          0 -600 vmoveto
          1200 2640 -120 -120 -120 120 -120 -120 -120 120 -120 -120 -120 120 -120 -120 -120 120 -120 -120 -120 -120 120 -120 -120 -120 120 -120 -120 -120 120 -120 -120 -120 120 -120 -120 -120 120 -120 -120 -120 120 -120 -120 -120 120 -120 hlineto
          -120 -120 120 -120 -120 -120 120 -120 -120 -120 120 -120 -120 hlineto
          960 2160 rmoveto
          120 120 -120 vlineto
          -360 hmoveto
          120 120 -120 vlineto
          -360 hmoveto
          120 120 -120 vlineto
          -360 hmoveto
          120 120 -120 vlineto
          600 -240 rmoveto
          120 120 -120 vlineto
          -360 hmoveto
          120 120 -120 vlineto
          -360 hmoveto
          120 120 -120 vlineto
          -360 hmoveto
          120 120 -120 vlineto
          600 -240 rmoveto
          120 120 -120 vlineto
          -360 hmoveto
          120 120 -120 vlineto
          -600 hmoveto
          120 120 -120 vlineto
          120 hmoveto
          120 120 -120 vlineto
          360 -240 rmoveto
          120 120 -120 vlineto
          -840 hmoveto
          120 120 -120 vlineto
          360 hmoveto
          120 120 -120 vlineto
          -360 hmoveto
          120 120 -120 vlineto
          -360 -240 rmoveto
          120 120 -120 vlineto
          600 hmoveto
          120 120 -120 vlineto
          -600 hmoveto
          120 120 -120 vlineto
          120 hmoveto
          120 120 -120 vlineto
          -120 -240 rmoveto
          120 120 -120 vlineto
          -600 hmoveto
          120 120 -120 vlineto
          120 hmoveto
          120 120 -120 vlineto
          360 hmoveto
          120 120 -120 vlineto
          -840 -240 rmoveto
          120 120 -120 vlineto
          120 hmoveto
          120 120 -120 vlineto
          120 hmoveto
          120 120 -120 vlineto
          120 hmoveto
          120 120 -120 vlineto
          -120 -240 rmoveto
          120 120 -120 vlineto
          -360 hmoveto
          120 120 -120 vlineto
          -360 hmoveto
          120 120 -120 vlineto
          -360 hmoveto
          120 120 -120 vlineto
          600 -240 rmoveto
          120 120 -120 vlineto
          -360 hmoveto
          120 120 -120 vlineto
          -360 hmoveto
          120 120 -120 vlineto
          -360 hmoveto
          120 120 -120 vlineto
          -120 -240 rmoveto
          120 120 -120 vlineto
          600 hmoveto
          120 120 -120 vlineto
          -360 hmoveto
          120 120 -120 vlineto
          -360 hmoveto
          120 120 -120 vlineto
          endchar
        </CharString>
        <CharString name="divide">
          0 940 525 rmoveto
          21 0 17 7 15 15 15 15 7 17 0 21 0 21 -7 17 -15 15 -15 15 -17 7 -21 0 rrcurveto
          -680 hlineto
          -21 0 -17 -7 -15 -15 -15 -15 -7 -17 0 -21 0 -21 7 -17 15 -15 15 -15 17 -7 21 0 rrcurveto
          342 320 rmoveto
          29 0 24 11 21 21 21 22 10 25 0 30 0 31 -10 26 -21 22 -21 21 -24 11 -29 0 -31 0 -26 -11 -21 -21 -21 -22 -10 -26 0 -31 0 -30 10 -25 21 -22 21 -21 26 -11 31 0 rrcurveto
          -710 vmoveto
          29 0 24 11 21 21 21 22 10 25 0 30 0 31 -10 26 -21 22 -21 21 -24 11 -29 0 -31 0 -26 -11 -21 -21 -21 -22 -10 -26 0 -31 0 -30 10 -25 21 -22 21 -21 26 -11 31 0 rrcurveto
          endchar
        </CharString>
        <CharString name="dollar">
          0 765 27 rmoveto
          172 54 86 109 0 165 0 135 -68 107 -136 81 -51 31 -69 31 -89 31 -170 64 -86 90 -2 117 0 47 28 50 55 53 rrcurveto
          198 vlineto
          -77 -45 -56 -49 -34 -53 -39 -58 -19 -74 0 -90 0 -179 126 -133 252 -89 41 -15 43 -18 43 -21 107 -50 53 -65 0 -81 0 -83 -37 -59 -73 -35 rrcurveto
          -90 676 rmoveto
          671 vlineto
          0 21 -7 17 -15 15 -15 15 -17 7 -21 0 -21 0 -17 -7 -15 -15 -15 -15 -7 -17 0 -21 rrcurveto
          -606 vlineto
          43 -28 50 -22 57 -15 rrcurveto
          -75 -1084 rmoveto
          21 0 17 7 15 15 15 15 7 17 0 21 rrcurveto
          609 vlineto
          -27 18 -50 21 -73 25 rrcurveto
          -673 vlineto
          0 -21 7 -17 15 -15 15 -15 17 -7 21 0 rrcurveto
          340 1285 rmoveto
          41 0 21 24 0 49 0 9 -1 9 -3 8 -25 110 -78 72 -130 36 rrcurveto
          -174 vlineto
          60 -27 34 -26 9 -27 15 -42 24 -21 33 0 rrcurveto
          -505 -1043 rmoveto
          171 vlineto
          -57 39 -39 34 -22 29 -23 28 -23 14 -23 0 -21 0 -17 -8 -13 -15 -13 -15 -6 -21 0 -25 0 -8 2 -9 4 -9 26 -59 41 -48 56 -39 44 -28 43 -20 41 -11 rrcurveto
          endchar
        </CharString>
        <CharString name="downwardsarrow">
          0 598 hmoveto
          567 481 rlineto
          170 vlineto
          -345 -294 rlineto
          -59 -51 -37 -38 -16 -23 rrcurveto
          -45 hlineto
          4 28 3 29 2 30 2 30 1 29 0 29 rrcurveto
          1025 -150 -1025 vlineto
          0 -29 1 -29 3 -30 3 -30 2 -29 2 -28 rrcurveto
          -44 hlineto
          -8 12 -13 15 -18 18 -18 18 -24 22 -29 25 rrcurveto
          -347 295 rlineto
          -171 vlineto
          endchar
        </CharString>
        <CharString name="e">
          0 820 597 rmoveto
          -428 hlineto
          -44 0 -22 15 0 30 0 31 8 32 15 32 23 49 34 42 46 35 47 35 54 17 62 0 86 0 66 -29 46 -58 45 -58 23 -60 1 -64 0 -33 -21 -16 -41 0 rrcurveto
          -182 -612 rmoveto
          135 0 119 47 103 94 14 13 7 15 0 17 0 15 -6 16 -12 16 -12 16 -17 8 -21 0 -10 0 -9 -4 -10 -7 -80 -63 -91 -32 -102 0 -78 0 -74 26 -69 51 -70 51 -35 69 0 86 rrcurveto
          0 35 20 17 40 0 rrcurveto
          585 -2 rlineto
          21 0 16 8 13 15 13 16 6 18 0 20 -1 120 -17 96 -33 71 -33 72 -47 57 -63 41 -62 41 -75 21 -88 0 -82 0 -73 -21 -65 -42 -64 -42 -55 -60 -44 -77 -44 -77 -22 -99 0 -119 rrcurveto
          0 -219 68 -155 135 -92 77 -51 90 -26 102 0 rrcurveto
          endchar
        </CharString>
        <CharString name="eight">
          0 598 135 rmoveto
          -99 0 -71 20 -44 41 -44 40 -22 59 0 78 0 63 18 54 35 46 55 71 76 36 98 0 43 0 34 -5 25 -9 59 -25 44 -33 28 -41 29 -41 14 -52 0 -64 0 -78 -22 -59 -43 -40 rrcurveto
          -43 -41 -71 -20 -99 0 rrcurveto
          2 693 rmoveto
          -26 0 -21 3 -17 7 -59 20 -45 27 -31 34 -31 34 -15 44 0 55 0 66 22 52 45 38 45 38 59 19 74 0 74 0 59 -19 45 -37 45 -37 22 -53 0 -67 0 -53 -16 -44 -32 -34 rrcurveto
          -32 -35 -48 -28 -61 -22 -13 -5 -18 -3 -25 0 rrcurveto
          -843 vmoveto
          84 0 74 14 64 29 63 29 49 42 35 54 35 54 18 66 0 78 0 80 -19 71 -37 59 -37 60 -52 49 -65 37 -12 9 -6 10 0 12 0 13 6 9 11 6 123 74 61 97 0 122 rrcurveto
          0 105 -35 86 -71 66 -71 66 -96 33 -122 0 -123 0 -96 -33 -71 -66 -70 -66 -35 -86 0 -105 0 -122 61 -97 121 -74 11 -7 5 -10 0 -11 0 -12 -6 -10 -12 -9 -67 -37 -51 -49 -37 -60 rrcurveto
          -36 -59 -18 -70 0 -81 0 -116 37 -90 73 -64 74 -64 104 -32 136 0 rrcurveto
          endchar
        </CharString>
        <CharString name="emdash">
          0 1140 525 rmoveto
          21 0 17 7 15 15 15 15 7 17 0 21 0 21 -7 17 -15 15 -15 15 -17 7 -21 0 rrcurveto
          -1080 hlineto
          -21 0 -17 -7 -15 -15 -15 -15 -7 -17 0 -21 0 -21 7 -17 15 -15 15 -15 17 -7 21 0 rrcurveto
          endchar
        </CharString>
        <CharString name="equal">
          0 940 725 rmoveto
          21 0 17 7 15 15 15 15 7 17 0 21 0 21 -7 17 -15 15 -15 15 -17 7 -21 0 rrcurveto
          -680 hlineto
          -21 0 -17 -7 -15 -15 -15 -15 -7 -17 0 -21 0 -21 7 -17 15 -15 15 -15 17 -7 21 0 rrcurveto
          680 -400 rmoveto
          21 0 17 7 15 15 15 15 7 17 0 21 0 21 -7 17 -15 15 -15 15 -17 7 -21 0 rrcurveto
          -680 hlineto
          -21 0 -17 -7 -15 -15 -15 -15 -7 -17 0 -21 0 -21 7 -17 15 -15 15 -15 17 -7 21 0 rrcurveto
          endchar
        </CharString>
        <CharString name="exclam">
          0 600 484 rmoveto
          19 0 15 6 13 13 13 12 6 15 1 19 rrcurveto
          25 806 rlineto
          0 25 -9 21 -17 18 -18 18 -22 9 -26 0 -26 0 -22 -9 -17 -18 -18 -19 -9 -22 0 -25 rrcurveto
          25 -804 rlineto
          1 -19 6 -15 13 -12 13 -13 15 -6 19 0 rrcurveto
          4 -499 rmoveto
          39 0 33 15 29 29 28 29 14 35 0 41 0 42 -14 36 -28 29 -29 29 -33 15 -39 0 -42 0 -35 -15 -29 -29 -29 -29 -14 -36 0 -42 0 -41 14 -35 29 -29 29 -29 35 -15 42 0 rrcurveto
          endchar
        </CharString>
        <CharString name="exclam_exclam">
          0 -400 484 rmoveto
          19 0 15 6 13 13 13 12 6 15 1 19 rrcurveto
          25 806 rlineto
          0 25 -9 21 -17 18 -18 18 -22 9 -26 0 -26 0 -22 -9 -17 -18 -18 -19 -9 -22 0 -25 rrcurveto
          25 -804 rlineto
          1 -19 6 -15 13 -12 13 -13 15 -6 19 0 rrcurveto
          804 -499 rmoveto
          39 0 33 15 29 29 28 29 14 35 0 41 0 42 -14 36 -28 29 -29 29 -33 15 -39 0 -42 0 -35 -15 -29 -29 -29 -29 -14 -36 0 -42 0 -41 14 -35 29 -29 29 -29 35 -15 42 0 rrcurveto
          -4 499 rmoveto
          19 0 15 6 13 13 13 12 6 15 1 19 rrcurveto
          25 806 rlineto
          0 25 -9 21 -17 18 -18 18 -22 9 -26 0 -26 0 -22 -9 -17 -18 -18 -19 -9 -22 0 -25 rrcurveto
          25 -804 rlineto
          1 -19 6 -15 13 -12 13 -13 15 -6 19 0 rrcurveto
          -796 -499 rmoveto
          39 0 33 15 29 29 28 29 14 35 0 41 0 42 -14 36 -28 29 -29 29 -33 15 -39 0 -42 0 -35 -15 -29 -29 -29 -29 -14 -36 0 -42 0 -41 14 -35 29 -29 29 -29 35 -15 42 0 rrcurveto
          endchar
        </CharString>
        <CharString name="f">
          0 513 -15 rmoveto
          21 0 18 7 15 15 15 15 7 17 0 21 rrcurveto
          748 vlineto
          0 15 5 14 11 11 11 11 14 6 16 0 rrcurveto
          356 hlineto
          21 0 17 7 15 15 15 15 7 17 0 21 0 21 -7 17 -15 15 -15 15 -17 7 -21 0 rrcurveto
          -356 hlineto
          -16 0 -14 5 -11 11 -11 10 -5 12 0 13 rrcurveto
          102 vlineto
          0 52 17 45 35 40 34 40 45 20 56 0 rrcurveto
          208 hlineto
          21 0 17 7 15 15 15 15 7 17 0 21 0 21 -7 17 -15 15 -15 15 -17 7 -21 0 rrcurveto
          -246 hlineto
          -58 0 -51 -14 -45 -29 -45 -28 -36 -38 -26 -47 -26 -47 -13 -51 0 -55 rrcurveto
          -140 vlineto
          0 -13 -5 -12 -11 -10 -11 -11 -14 -5 -16 0 rrcurveto
          -145 hlineto
          -21 0 -17 -7 -15 -15 -15 -15 -7 -17 0 -21 0 -21 7 -17 15 -15 15 -15 17 -7 21 0 rrcurveto
          145 hlineto
          16 0 14 -6 11 -11 11 -11 5 -14 0 -15 rrcurveto
          -748 vlineto
          0 -21 7 -17 15 -15 15 -15 17 -7 21 0 rrcurveto
          endchar
        </CharString>
        <CharString name="five">
          0 542 -15 rmoveto
          134 0 107 40 78 79 74 81 41 99 7 116 2 26 1 26 0 27 0 236 -169 118 -337 0 rrcurveto
          -60 hlineto
          -16 0 -15 5 -14 11 -13 11 -7 14 0 16 rrcurveto
          304 vlineto
          0 16 7 14 14 11 14 11 14 6 16 0 rrcurveto
          464 hlineto
          20 0 17 7 13 14 14 14 7 17 0 19 0 20 -7 17 -14 14 -13 14 -17 7 -20 0 rrcurveto
          -600 hlineto
          -21 0 -19 -8 -15 -15 -16 -16 -8 -18 0 -22 rrcurveto
          -548 vlineto
          0 -21 8 -19 16 -15 16 -16 18 -8 21 0 rrcurveto
          163 hlineto
          127 0 95 -20 63 -41 63 -41 31 -54 0 -68 0 -23 -1 -22 -3 -21 -26 -173 -96 -88 -165 -3 -121 0 -79 6 -36 12 -16 5 -18 2 -20 0 -6 0 -9 -2 -11 -4 -12 -4 -11 -8 -10 -11 rrcurveto
          -9 -12 -5 -18 0 -24 0 -19 7 -15 13 -13 31 -30 116 -15 203 0 rrcurveto
          endchar
        </CharString>
        <CharString name="four">
          0 697 470 rmoveto
          -345 hlineto
          -22 2 -11 12 0 20 0 7 61 97 123 186 122 186 63 94 4 2 4 1 5 1 5 0 17 0 8 -9 0 -18 rrcurveto
          -547 vlineto
          -1 -23 -12 -11 -21 0 rrcurveto
          109 -485 rmoveto
          20 0 17 7 15 15 15 15 7 17 0 21 rrcurveto
          227 vlineto
          2 22 12 11 20 0 rrcurveto
          77 hlineto
          20 0 17 8 15 15 15 15 8 17 0 20 0 20 -8 17 -15 15 -15 15 -17 8 -20 0 rrcurveto
          -77 hlineto
          -23 1 -11 12 0 21 rrcurveto
          814 vlineto
          0 26 -10 23 -19 19 -19 19 -23 10 -26 0 -32 0 -27 -15 -23 -30 rrcurveto
          -578 -867 rlineto
          -13 -21 -6 -21 0 -23 0 -32 12 -28 23 -23 23 -23 27 -12 32 0 rrcurveto
          476 hlineto
          23 -1 11 -12 0 -21 rrcurveto
          -226 vlineto
          0 -21 7 -17 15 -15 15 -15 17 -7 21 0 rrcurveto
          endchar
        </CharString>
        <CharString name="fullblock">
          0 -600 vmoveto
          1200 2640 -1200 hlineto
          endchar
        </CharString>
        <CharString name="g">
          0 568 153 rmoveto
          -87 0 -67 31 -46 63 -47 62 -23 90 0 118 5 251 91 128 178 4 66 0 61 -24 54 -49 54 -49 27 -66 0 -82 rrcurveto
          -211 vlineto
          0 -65 -27 -62 -54 -59 -50 -53 -62 -27 -73 0 rrcurveto
          -4 -618 rmoveto
          126 0 102 36 77 73 77 72 38 100 0 127 rrcurveto
          1044 vlineto
          0 24 -7 19 -13 14 -13 14 -17 7 -21 0 -42 0 -25 -20 -6 -40 -6 -32 -12 -16 -20 0 -11 0 -10 5 -11 11 -58 61 -78 30 -97 0 -122 0 -96 -46 -68 -92 -68 -93 -35 -142 -1 -191 rrcurveto
          0 -155 35 -124 71 -95 70 -94 96 -47 120 0 82 0 68 22 53 44 16 13 16 7 15 0 30 0 15 -18 0 -35 rrcurveto
          -2 -133 rlineto
          0 -52 -22 -48 -45 -42 -45 -43 -67 -22 -89 -1 -65 0 -55 10 -42 19 -43 20 -43 30 -42 41 -13 12 -16 6 -17 0 -19 0 -18 -12 -19 -23 -10 -11 -5 -14 0 -15 0 -17 6 -16 12 -14 rrcurveto
          96 -105 129 -53 164 0 rrcurveto
          endchar
        </CharString>
        <CharString name="grave">
          0 756 1035 rmoveto
          19 0 17 7 15 15 15 16 8 19 0 19 0 19 -8 18 -15 17 rrcurveto
          -307 307 rlineto
          -17 15 -18 8 -19 0 -19 0 -18 -8 -16 -15 -15 -15 -8 -17 0 -19 0 -19 8 -19 16 -18 rrcurveto
          306 -306 rlineto
          18 -16 19 -8 19 0 rrcurveto
          endchar
        </CharString>
        <CharString name="greater">
          0 255 162 rmoveto
          11 0 10 2 11 5 rrcurveto
          692 363 rlineto
          28 16 14 23 0 29 0 14 -4 13 -7 12 -7 12 -10 10 -14 7 rrcurveto
          -690 355 rlineto
          -11 5 -12 3 -11 0 -19 0 -17 -7 -15 -15 -15 -15 -8 -17 0 -20 0 -28 15 -24 29 -18 rrcurveto
          472 -250 rlineto
          17 -10 8 -12 0 -15 0 -16 -8 -13 -15 -10 rrcurveto
          -476 -254 rlineto
          -29 -18 -15 -24 0 -28 0 -20 8 -17 15 -15 15 -15 18 -8 20 0 rrcurveto
          endchar
        </CharString>
        <CharString name="greater_greater">
          0 105 162 rmoveto
          11 0 10 2 11 5 rrcurveto
          692 363 rlineto
          28 17 14 22 0 29 0 31 -14 23 -28 14 rrcurveto
          -690 355 rlineto
          -11 5 -12 3 -11 0 -19 0 -17 -7 -15 -15 -15 -15 -8 -17 0 -20 0 -29 15 -23 29 -18 rrcurveto
          472 -250 rlineto
          17 -9 8 -13 0 -15 0 -16 -8 -13 -15 -10 rrcurveto
          -476 -254 rlineto
          -29 -18 -15 -23 0 -29 0 -20 8 -17 15 -15 15 -15 18 -8 20 0 rrcurveto
          -900 hmoveto
          11 0 10 2 11 5 rrcurveto
          692 363 rlineto
          28 17 14 22 0 29 0 31 -14 23 -28 14 rrcurveto
          -690 355 rlineto
          -11 5 -12 3 -11 0 -19 0 -17 -7 -15 -15 -15 -15 -8 -17 0 -20 0 -29 15 -23 29 -18 rrcurveto
          472 -250 rlineto
          17 -9 8 -13 0 -15 0 -16 -8 -13 -15 -10 rrcurveto
          -476 -254 rlineto
          -29 -18 -15 -23 0 -29 0 -20 8 -17 15 -15 15 -15 18 -8 20 0 rrcurveto
          endchar
        </CharString>
        <CharString name="greater_greater_greater">
          0 -945 162 rmoveto
          11 0 10 2 11 5 rrcurveto
          692 363 rlineto
          28 17 14 22 0 29 0 31 -14 23 -28 14 rrcurveto
          -690 355 rlineto
          -11 5 -12 3 -11 0 -19 0 -17 -7 -15 -15 -15 -15 -8 -17 0 -20 0 -29 15 -23 29 -18 rrcurveto
          472 -250 rlineto
          17 -9 8 -13 0 -15 0 -16 -8 -13 -15 -10 rrcurveto
          -476 -254 rlineto
          -29 -18 -15 -23 0 -29 0 -20 8 -17 15 -15 15 -15 18 -8 20 0 rrcurveto
          -900 hmoveto
          11 0 10 2 11 5 rrcurveto
          692 363 rlineto
          28 17 14 22 0 29 0 31 -14 23 -28 14 rrcurveto
          -690 355 rlineto
          -11 5 -12 3 -11 0 -19 0 -17 -7 -15 -15 -15 -15 -8 -17 0 -20 0 -29 15 -23 29 -18 rrcurveto
          472 -250 rlineto
          17 -9 8 -13 0 -15 0 -16 -8 -13 -15 -10 rrcurveto
          -476 -254 rlineto
          -29 -18 -15 -23 0 -29 0 -20 8 -17 15 -15 15 -15 18 -8 20 0 rrcurveto
          1800 hmoveto
          11 0 10 2 11 5 rrcurveto
          692 363 rlineto
          28 17 14 22 0 29 0 31 -14 23 -28 14 rrcurveto
          -690 355 rlineto
          -11 5 -12 3 -11 0 -19 0 -17 -7 -15 -15 -15 -15 -8 -17 0 -20 0 -29 15 -23 29 -18 rrcurveto
          472 -250 rlineto
          17 -9 8 -13 0 -15 0 -16 -8 -13 -15 -10 rrcurveto
          -476 -254 rlineto
          -29 -18 -15 -23 0 -29 0 -20 8 -17 15 -15 15 -15 18 -8 20 0 rrcurveto
          endchar
        </CharString>
        <CharString name="h">
          0 939 -15 rmoveto
          24 0 18 7 13 14 12 14 6 20 0 24 rrcurveto
          581 vlineto
          0 152 -31 109 -61 65 -56 63 -83 31 -111 0 -92 -1 -89 -45 -84 -88 -11 -11 -11 -6 -9 0 -20 0 -10 13 0 26 rrcurveto
          481 vlineto
          0 23 -8 19 -15 16 -16 15 -17 8 -21 0 -21 0 -17 -8 -16 -15 -15 -16 -8 -19 0 -23 rrcurveto
          -1370 vlineto
          0 -24 7 -19 14 -14 14 -15 19 -7 23 0 24 0 18 7 13 14 12 14 6 20 0 24 rrcurveto
          548 vlineto
          0 95 39 74 78 53 61 41 63 21 64 1 142 0 72 -88 3 -176 rrcurveto
          -569 vlineto
          0 -24 7 -19 15 -14 14 -15 18 -7 23 0 rrcurveto
          endchar
        </CharString>
        <CharString name="hyphen">
          0 840 525 rmoveto
          21 0 17 7 15 15 15 15 7 17 0 21 0 21 -7 17 -15 15 -15 15 -17 7 -21 0 rrcurveto
          -480 hlineto
          -21 0 -17 -7 -15 -15 -15 -15 -7 -17 0 -21 0 -21 7 -17 15 -15 15 -15 17 -7 21 0 rrcurveto
          endchar
        </CharString>
        <CharString name="hyphenminus">
          0 940 525 rmoveto
          21 0 18 7 15 14 14 14 7 18 0 22 0 21 -7 18 -14 15 -15 14 -18 7 -21 0 rrcurveto
          -680 hlineto
          -22 0 -18 -7 -14 -14 -14 -15 -7 -18 0 -21 0 -22 7 -18 14 -14 14 -14 18 -7 22 0 rrcurveto
          endchar
        </CharString>
        <CharString name="i">
          0 1015 12 rmoveto
          19 0 17 7 16 14 16 15 8 18 0 22 0 25 -8 20 -16 14 -16 13 -17 7 -19 0 rrcurveto
          -241 hlineto
          -38 0 -19 20 0 39 rrcurveto
          616 vlineto
          0 48 -17 41 -33 33 -34 34 -40 17 -46 0 rrcurveto
          -283 hlineto
          -19 0 -17 -7 -14 -14 -15 -14 -7 -19 0 -24 0 -23 7 -19 15 -14 15 -14 16 -7 19 0 rrcurveto
          199 hlineto
          28 0 24 -10 21 -20 21 -20 10 -25 0 -31 rrcurveto
          -528 vlineto
          0 -39 -20 -20 -39 0 rrcurveto
          -242 hlineto
          -17 0 -16 -7 -16 -13 -15 -14 -8 -20 0 -25 0 -22 8 -18 15 -15 16 -14 16 -7 17 0 rrcurveto
          323 1258 rmoveto
          34 0 30 13 26 26 25 25 13 31 0 37 0 37 -13 32 -25 25 -26 26 -30 13 -34 0 -36 0 -31 -13 -25 -26 -25 -25 -12 -32 0 -37 0 -37 12 -31 25 -25 25 -26 31 -13 36 0 rrcurveto
          endchar
        </CharString>
        <CharString name="j">
          0 466 -465 rmoveto
          126 0 102 36 77 73 74 67 38 89 2 111 rrcurveto
          930 vlineto
          0 47 -16 40 -33 35 -32 35 -39 17 -44 0 rrcurveto
          -370 hlineto
          -20 0 -18 -8 -14 -15 -15 -16 -7 -19 0 -21 0 -21 7 -19 15 -15 14 -15 18 -8 20 0 rrcurveto
          285 hlineto
          30 0 25 -10 17 -20 18 -19 9 -24 0 -28 rrcurveto
          -1 -872 rlineto
          0 -52 -22 -48 -45 -42 -45 -43 -67 -22 -89 -1 -39 0 -38 10 -37 19 -37 20 -40 30 -42 41 -13 12 -16 6 -17 0 -19 0 -18 -12 -19 -23 -10 -11 -5 -14 0 -15 0 -17 6 -16 12 -14 rrcurveto
          95 -105 111 -53 126 0 rrcurveto
          294 1739 rmoveto
          34 0 29 13 25 26 25 25 12 31 0 37 0 35 -12 31 -25 25 -25 25 -29 13 -34 0 -35 0 -30 -13 -24 -25 -25 -25 -12 -31 0 -35 0 -37 12 -31 25 -25 24 -26 30 -13 35 0 rrcurveto
          endchar
        </CharString>
        <CharString name="k">
          0 987 -15 rmoveto
          54 1 27 25 0 50 0 18 -4 15 -8 11 rrcurveto
          -318 460 rlineto
          -12 17 -6 16 0 17 0 23 10 21 19 21 rrcurveto
          229 254 rlineto
          15 16 7 19 0 21 0 22 -8 18 -15 14 -15 14 -20 7 -23 0 -22 0 -21 -11 -20 -22 rrcurveto
          -392 -421 rlineto
          -11 -11 -15 -6 -18 0 -35 0 -17 19 0 37 rrcurveto
          784 vlineto
          0 23 -7 19 -15 16 -15 15 -19 8 -22 0 -20 0 -17 -8 -14 -15 -15 -15 -7 -18 0 -23 rrcurveto
          -1366 vlineto
          0 -26 7 -20 14 -16 14 -15 18 -8 24 0 22 0 18 8 14 16 13 16 7 21 0 24 rrcurveto
          148 vlineto
          0 39 15 36 30 30 rrcurveto
          130 139 rlineto
          11 9 14 5 19 0 17 0 14 -9 12 -18 rrcurveto
          284 -425 rlineto
          17 -26 24 -13 32 0 rrcurveto
          endchar
        </CharString>
        <CharString name="l">
          0 815 -15 rmoveto
          102 1 68 23 35 43 11 15 6 17 0 19 0 17 -4 14 -7 11 -8 10 -9 8 -11 4 -11 5 -9 2 -9 0 -7 0 -8 -3 -10 -5 -34 -21 -37 -10 -39 0 -138 0 -69 101 0 202 rrcurveto
          885 vlineto
          0 58 -17 46 -34 35 -34 35 -46 18 -58 0 rrcurveto
          -217 hlineto
          -20 0 -18 -7 -15 -14 -15 -14 -7 -19 0 -25 0 -22 7 -17 15 -13 15 -13 18 -6 20 0 rrcurveto
          133 hlineto
          40 0 31 -11 21 -23 21 -23 10 -30 0 -38 rrcurveto
          -838 vlineto
          1 -278 113 -139 224 0 rrcurveto
          endchar
        </CharString>
        <CharString name="lamda-grek">
          0 223 1515 rmoveto
          -50 0 -25 -22 0 -45 0 -48 30 -24 61 0 75 0 64 -32 52 -64 58 -74 29 -63 0 -52 0 -15 -2 -14 -5 -14 -235 -649 -117 -328 0 -8 0 -21 8 -18 16 -15 15 -16 18 -8 21 0 rrcurveto
          37 0 25 17 13 34 rrcurveto
          254 718 rlineto
          6 16 11 8 18 0 18 0 12 -8 6 -16 rrcurveto
          254 -718 rlineto
          13 -34 25 -17 37 0 21 0 19 8 15 16 15 15 8 18 0 21 0 7 -113 328 -225 650 -67 181 -63 118 -58 55 -82 75 -98 38 -114 0 rrcurveto
          endchar
        </CharString>
        <CharString name="left_arrow_single">
          0 -581 463 rmoveto
          -12 0 -11 4 -9 9 rrcurveto
          -90 89 rlineto
          -9 9 -4 11 0 12 0 12 4 11 9 9 rrcurveto
          90 89 rlineto
          9 9 11 4 12 0 12 0 11 -4 9 -9 rrcurveto
          88 -89 rlineto
          10 -9 5 -10 0 -13 0 -12 -5 -11 -9 -10 rrcurveto
          -89 -88 rlineto
          -9 -9 -11 -4 -12 0 rrcurveto
          198 -397 rmoveto
          21 0 18 7 15 15 14 14 7 18 0 21 0 18 -7 18 -15 17 rrcurveto
          -113 113 rlineto
          -9 9 -4 11 0 12 0 12 4 11 9 9 rrcurveto
          113 118 rlineto
          11 10 15 9 17 7 17 7 15 3 14 0 rrcurveto
          1181 hlineto
          21 0 17 7 15 15 15 15 7 17 0 21 0 21 -7 17 -15 15 -15 15 -17 7 -21 0 rrcurveto
          -1180 hlineto
          -15 0 -15 4 -17 7 -17 7 -13 8 -11 10 rrcurveto
          -115 115 rlineto
          -9 9 -4 11 0 12 0 11 4 11 9 9 rrcurveto
          113 113 rlineto
          15 17 7 18 0 19 0 22 -8 18 -15 15 -15 14 -18 7 -19 0 -18 0 -18 -7 -17 -15 rrcurveto
          -456 -458 rlineto
          -15 -16 -8 -18 0 -20 0 -19 8 -18 15 -18 rrcurveto
          456 -456 rlineto
          17 -14 17 -7 19 0 rrcurveto
          endchar
        </CharString>
        <CharString name="left_right_arrow_double">
          0 523 407 rmoveto
          -12 0 -11 4 -9 9 rrcurveto
          -33 33 rlineto
          -16 15 -18 8 -20 0 rrcurveto
          -2008 hlineto
          -20 0 -18 -8 -16 -15 rrcurveto
          -33 -33 rlineto
          -9 -9 -11 -4 -12 0 -12 0 -11 4 -9 9 rrcurveto
          -148 147 rlineto
          -9 9 -4 11 0 12 0 12 4 11 9 9 rrcurveto
          150 149 rlineto
          9 9 11 4 12 0 12 0 11 -4 9 -9 rrcurveto
          32 -33 rlineto
          17 -15 18 -7 19 0 rrcurveto
          2006 hlineto
          19 0 18 7 17 15 rrcurveto
          32 33 rlineto
          9 9 11 4 12 0 12 0 11 -4 9 -9 rrcurveto
          150 -149 rlineto
          9 -9 4 -11 0 -12 0 -12 -4 -11 -9 -9 rrcurveto
          -148 -147 rlineto
          -9 -9 -11 -4 -12 0 rrcurveto
          -140 -341 rmoveto
          18 0 18 7 17 15 rrcurveto
          456 456 rlineto
          15 17 8 18 0 20 0 20 -8 18 -15 15 rrcurveto
          -456 458 rlineto
          -17 15 -18 7 -18 0 -21 0 -17 -7 -15 -14 -15 -15 -7 -18 0 -21 0 -19 7 -18 15 -17 41 -41 22 -23 2 -5 1 -5 1 -6 0 -5 0 -11 -4 -10 -9 -9 -9 -9 -10 -4 -11 0 rrcurveto
          -1908 hlineto
          -11 0 -10 4 -9 9 -9 9 -4 10 0 11 0 13 4 10 8 9 rrcurveto
          55 53 rlineto
          15 17 7 18 0 19 0 21 -7 18 -15 15 -15 14 -17 7 -21 0 -18 0 -18 -7 -17 -15 rrcurveto
          -456 -458 rlineto
          -15 -15 -8 -18 0 -20 0 -20 8 -18 15 -17 rrcurveto
          456 -456 rlineto
          17 -15 18 -7 18 0 21 0 17 7 15 15 15 15 7 17 0 21 0 20 -8 19 -17 17 -17 17 -19 18 -19 20 -8 9 -4 9 0 11 0 12 5 11 9 9 9 9 10 4 11 0 rrcurveto
          1912 hlineto
          11 0 11 -4 9 -9 9 -9 4 -11 0 -12 0 -11 -4 -9 -8 -9 -19 -20 -18 -18 -17 -17 -17 -17 -9 -19 0 -20 0 -21 7 -17 15 -15 15 -15 17 -7 21 0 rrcurveto
          endchar
        </CharString>
        <CharString name="left_right_arrow_double_long">
          0 523 407 rmoveto
          -12 0 -11 4 -9 9 rrcurveto
          -33 33 rlineto
          -16 15 -18 8 -20 0 rrcurveto
          -3208 hlineto
          -20 0 -18 -8 -16 -15 rrcurveto
          -33 -33 rlineto
          -9 -9 -11 -4 -12 0 -12 0 -11 4 -9 9 rrcurveto
          -148 147 rlineto
          -9 9 -4 11 0 12 0 12 4 11 9 9 rrcurveto
          150 149 rlineto
          9 9 11 4 12 0 12 0 11 -4 9 -9 rrcurveto
          32 -33 rlineto
          17 -15 18 -7 19 0 rrcurveto
          3206 hlineto
          19 0 18 7 17 15 rrcurveto
          32 33 rlineto
          9 9 11 4 12 0 12 0 11 -4 9 -9 rrcurveto
          150 -149 rlineto
          9 -9 4 -11 0 -12 0 -12 -4 -11 -9 -9 rrcurveto
          -148 -147 rlineto
          -9 -9 -11 -4 -12 0 rrcurveto
          -140 -341 rmoveto
          18 0 18 7 17 15 rrcurveto
          456 456 rlineto
          15 17 8 18 0 20 0 20 -8 18 -15 15 rrcurveto
          -456 458 rlineto
          -17 15 -18 7 -18 0 -21 0 -17 -7 -15 -14 -15 -15 -7 -18 0 -21 0 -19 7 -18 15 -17 41 -41 22 -23 2 -5 1 -5 1 -6 0 -5 0 -11 -4 -10 -9 -9 -9 -9 -10 -4 -11 0 rrcurveto
          -3108 hlineto
          -11 0 -10 4 -9 9 -9 9 -4 10 0 11 0 13 4 10 8 9 rrcurveto
          55 53 rlineto
          15 17 7 18 0 19 0 21 -7 18 -15 15 -15 14 -17 7 -21 0 -18 0 -18 -7 -17 -15 rrcurveto
          -456 -458 rlineto
          -15 -15 -8 -18 0 -20 0 -20 8 -18 15 -17 rrcurveto
          456 -456 rlineto
          17 -15 18 -7 18 0 21 0 17 7 15 15 15 15 7 17 0 21 0 20 -8 19 -17 17 -17 17 -19 18 -19 20 -8 9 -4 9 0 11 0 12 5 11 9 9 9 9 10 4 11 0 rrcurveto
          3112 hlineto
          11 0 11 -4 9 -9 9 -9 4 -11 0 -12 0 -11 -4 -9 -8 -9 -19 -20 -18 -18 -17 -17 -17 -17 -9 -19 0 -20 0 -21 7 -17 15 -15 15 -15 17 -7 21 0 rrcurveto
          endchar
        </CharString>
        <CharString name="left_right_arrow_single">
          0 -1781 463 rmoveto
          -12 0 -11 4 -9 9 rrcurveto
          -90 89 rlineto
          -9 9 -4 11 0 12 0 12 4 11 9 9 rrcurveto
          90 89 rlineto
          9 9 11 4 12 0 12 0 11 -4 9 -9 rrcurveto
          88 -89 rlineto
          10 -9 5 -10 0 -13 0 -12 -5 -11 -9 -10 rrcurveto
          -89 -88 rlineto
          -9 -9 -11 -4 -12 0 rrcurveto
          198 -397 rmoveto
          21 0 18 7 15 15 14 14 7 18 0 21 0 18 -7 18 -15 17 rrcurveto
          -113 113 rlineto
          -9 9 -4 11 0 12 0 12 4 11 9 9 rrcurveto
          113 118 rlineto
          11 10 15 9 17 7 17 7 15 3 14 0 rrcurveto
          2381 hlineto
          21 0 17 7 15 15 15 15 7 17 0 21 0 21 -7 17 -15 15 -15 15 -17 7 -21 0 rrcurveto
          -2380 hlineto
          -15 0 -15 4 -17 7 -17 7 -13 8 -11 10 rrcurveto
          -115 115 rlineto
          -9 9 -4 11 0 12 0 11 4 11 9 9 rrcurveto
          113 113 rlineto
          15 17 7 18 0 19 0 22 -8 18 -15 15 -15 14 -18 7 -19 0 -18 0 -18 -7 -17 -15 rrcurveto
          -456 -458 rlineto
          -15 -16 -8 -18 0 -20 0 -19 8 -18 15 -18 rrcurveto
          456 -456 rlineto
          17 -14 17 -7 19 0 rrcurveto
          endchar
        </CharString>
        <CharString name="left_right_arrow_single_long">
          0 581 463 rmoveto
          -12 0 -11 4 -9 9 rrcurveto
          -90 89 rlineto
          -9 9 -4 11 0 12 0 12 4 11 9 9 rrcurveto
          90 89 rlineto
          9 9 11 4 12 0 12 0 11 -4 9 -9 rrcurveto
          88 -89 rlineto
          10 -9 5 -10 0 -13 0 -12 -5 -11 -9 -10 rrcurveto
          -89 -88 rlineto
          -9 -9 -11 -4 -12 0 rrcurveto
          -3562 hmoveto
          -12 0 -11 4 -9 9 rrcurveto
          -89 88 rlineto
          -9 10 -5 11 0 12 0 13 5 10 10 9 rrcurveto
          88 89 rlineto
          9 9 11 4 12 0 12 0 11 -4 9 -9 rrcurveto
          90 -89 rlineto
          9 -9 4 -11 0 -12 0 -12 -4 -11 -9 -9 rrcurveto
          -90 -89 rlineto
          -9 -9 -11 -4 -12 0 rrcurveto
          3364 -397 rmoveto
          19 0 17 7 17 14 rrcurveto
          456 456 rlineto
          15 18 8 18 0 19 0 20 -8 18 -15 16 rrcurveto
          -456 458 rlineto
          -17 15 -18 7 -18 0 -19 0 -18 -7 -15 -14 -15 -15 -8 -18 0 -22 0 -19 7 -18 15 -17 rrcurveto
          113 -113 rlineto
          9 -9 4 -11 0 -11 0 -12 -4 -11 -9 -9 rrcurveto
          -115 -115 rlineto
          -11 -10 -13 -8 -17 -7 -17 -7 -15 -4 -15 0 rrcurveto
          -2880 hlineto
          -15 0 -15 4 -17 7 -17 7 -13 8 -11 10 rrcurveto
          -115 115 rlineto
          -9 9 -4 11 0 12 0 11 4 11 9 9 rrcurveto
          113 113 rlineto
          15 17 7 18 0 19 0 22 -8 18 -15 15 -15 14 -18 7 -19 0 -18 0 -18 -7 -17 -15 rrcurveto
          -456 -458 rlineto
          -15 -16 -8 -18 0 -20 0 -19 8 -18 15 -18 rrcurveto
          456 -456 rlineto
          17 -14 17 -7 19 0 21 0 18 7 15 15 14 14 7 18 0 21 0 18 -7 18 -15 17 rrcurveto
          -113 113 rlineto
          -9 9 -4 11 0 12 0 12 4 11 9 9 rrcurveto
          113 118 rlineto
          11 10 15 9 17 7 17 7 15 3 14 0 rrcurveto
          2881 hlineto
          15 0 15 -3 17 -7 17 -7 13 -9 11 -10 rrcurveto
          115 -118 rlineto
          9 -9 4 -11 0 -12 0 -12 -4 -11 -9 -9 rrcurveto
          -113 -113 rlineto
          -15 -17 -7 -18 0 -18 0 -21 7 -18 15 -14 14 -15 18 -7 21 0 rrcurveto
          endchar
        </CharString>
        <CharString name="leftfiveeighthsblock">
          0 -600 vmoveto
          750 2640 -750 hlineto
          endchar
        </CharString>
        <CharString name="lefthalfblock">
          0 -600 vmoveto
          600 2640 -600 hlineto
          endchar
        </CharString>
        <CharString name="leftoneeighthblock">
          0 -600 vmoveto
          150 2640 -150 hlineto
          endchar
        </CharString>
        <CharString name="leftonequarterblock">
          0 -600 vmoveto
          300 2640 -300 hlineto
          endchar
        </CharString>
        <CharString name="leftrightarrow">
          0 311 85 rmoveto
          172 hlineto
          -305 383 rlineto
          -17 20 -16 18 -17 17 -16 18 -15 13 -12 11 rrcurveto
          41 vlineto
          28 -2 28 -2 27 -3 27 -3 24 -1 21 0 rrcurveto
          720 hlineto
          22 0 25 1 26 2 27 2 27 2 28 2 rrcurveto
          -41 vlineto
          -15 -12 -17 -14 -16 -17 -17 -16 -15 -16 -13 -17 rrcurveto
          -305 -386 rlineto
          174 hlineto
          450 575 -452 575 rlineto
          -172 hlineto
          305 -383 rlineto
          17 -20 16 -18 17 -17 16 -18 15 -13 12 -11 rrcurveto
          -42 vlineto
          -28 4 -28 3 -26 2 -26 2 -25 1 -22 0 rrcurveto
          -720 hlineto
          -21 0 -24 -1 -27 -1 -27 -1 -28 -3 -28 -4 rrcurveto
          42 vlineto
          15 12 17 14 16 17 17 16 15 16 13 17 rrcurveto
          305 386 rlineto
          -174 hlineto
          -450 -575 rlineto
          endchar
        </CharString>
        <CharString name="leftseveneighthsblock">
          0 -600 vmoveto
          1050 2640 -1050 hlineto
          endchar
        </CharString>
        <CharString name="leftthreeeighthsblock">
          0 -600 vmoveto
          400 2640 -400 hlineto
          endchar
        </CharString>
        <CharString name="leftthreequartersblock">
          0 -600 vmoveto
          900 2640 -900 hlineto
          endchar
        </CharString>
        <CharString name="leftwardsarrow">
          0 551 85 rmoveto
          172 hlineto
          -305 383 rlineto
          -17 20 -16 18 -17 17 -16 18 -15 13 -12 11 rrcurveto
          41 vlineto
          28 -2 28 -2 27 -3 27 -3 24 -1 21 0 rrcurveto
          645 130 -645 hlineto
          -21 0 -24 -1 -27 -1 -27 -1 -28 -3 -28 -4 rrcurveto
          42 vlineto
          15 12 17 14 16 17 17 16 15 16 13 17 rrcurveto
          305 386 rlineto
          -174 hlineto
          -450 -575 rlineto
          endchar
        </CharString>
        <CharString name="less">
          0 946 162 rmoveto
          20 0 17 8 15 15 15 15 8 17 0 20 0 28 -15 24 -29 18 rrcurveto
          -475 254 rlineto
          -15 10 -8 13 0 16 0 15 8 12 16 10 rrcurveto
          472 250 rlineto
          29 18 15 24 0 28 0 20 -7 17 -15 15 -15 15 -17 7 -19 0 -12 0 -11 -3 -11 -5 rrcurveto
          -691 -355 rlineto
          -14 -7 -10 -10 -7 -12 -7 -12 -4 -13 0 -14 0 -29 14 -23 28 -16 rrcurveto
          692 -363 rlineto
          11 -5 11 -2 11 0 rrcurveto
          endchar
        </CharString>
        <CharString name="less_greater">
          0 1 189 rmoveto
          -698 372 rlineto
          -16 8 -8 13 0 18 0 17 8 12 16 8 rrcurveto
          697 367 697 -367 rlineto
          17 -9 8 -12 0 -16 0 -18 -8 -13 -16 -8 rrcurveto
          -693 -535 rmoveto
          9 0 15 6 23 13 rrcurveto
          927 487 rlineto
          28 15 14 23 0 30 0 31 -14 23 -28 14 rrcurveto
          -936 483 rlineto
          -18 9 -16 4 -14 0 -6 0 -13 -5 -19 -9 rrcurveto
          -936 -482 rlineto
          -28 -14 -14 -23 0 -31 0 -29 14 -23 28 -16 rrcurveto
          929 -488 rlineto
          22 -12 18 -6 15 0 rrcurveto
          endchar
        </CharString>
        <CharString name="less_less">
          0 796 162 rmoveto
          20 0 18 8 15 15 15 15 7 17 0 20 0 29 -15 23 -29 18 rrcurveto
          -475 254 rlineto
          -15 10 -8 13 0 16 0 15 8 12 16 10 rrcurveto
          472 250 rlineto
          29 18 15 23 0 29 0 20 -7 17 -15 15 -15 15 -17 7 -19 0 -11 0 -12 -3 -11 -5 rrcurveto
          -691 -355 rlineto
          -28 -14 -14 -23 0 -31 0 -29 14 -22 28 -17 rrcurveto
          692 -363 rlineto
          11 -5 11 -2 11 0 rrcurveto
          -900 hmoveto
          20 0 18 8 15 15 15 15 7 17 0 20 0 29 -15 23 -29 18 rrcurveto
          -475 254 rlineto
          -15 10 -8 13 0 16 0 15 8 12 16 10 rrcurveto
          472 250 rlineto
          29 18 15 23 0 29 0 20 -7 17 -15 15 -15 15 -17 7 -19 0 -11 0 -12 -3 -11 -5 rrcurveto
          -691 -355 rlineto
          -28 -14 -14 -23 0 -31 0 -29 14 -22 28 -17 rrcurveto
          692 -363 rlineto
          11 -5 11 -2 11 0 rrcurveto
          endchar
        </CharString>
        <CharString name="less_less_less">
          0 646 162 rmoveto
          20 0 18 8 15 15 15 15 7 17 0 20 0 29 -15 23 -29 18 rrcurveto
          -475 254 rlineto
          -15 10 -8 13 0 16 0 15 8 12 16 10 rrcurveto
          472 250 rlineto
          29 18 15 23 0 29 0 20 -7 17 -15 15 -15 15 -17 7 -19 0 -11 0 -12 -3 -11 -5 rrcurveto
          -691 -355 rlineto
          -28 -14 -14 -23 0 -31 0 -29 14 -22 28 -17 rrcurveto
          692 -363 rlineto
          11 -5 11 -2 11 0 rrcurveto
          -900 hmoveto
          20 0 18 8 15 15 15 15 7 17 0 20 0 29 -15 23 -29 18 rrcurveto
          -475 254 rlineto
          -15 10 -8 13 0 16 0 15 8 12 16 10 rrcurveto
          472 250 rlineto
          29 18 15 23 0 29 0 20 -7 17 -15 15 -15 15 -17 7 -19 0 -11 0 -12 -3 -11 -5 rrcurveto
          -691 -355 rlineto
          -28 -14 -14 -23 0 -31 0 -29 14 -22 28 -17 rrcurveto
          692 -363 rlineto
          11 -5 11 -2 11 0 rrcurveto
          -900 hmoveto
          20 0 18 8 15 15 15 15 7 17 0 20 0 29 -15 23 -29 18 rrcurveto
          -475 254 rlineto
          -15 10 -8 13 0 16 0 15 8 12 16 10 rrcurveto
          472 250 rlineto
          29 18 15 23 0 29 0 20 -7 17 -15 15 -15 15 -17 7 -19 0 -11 0 -12 -3 -11 -5 rrcurveto
          -691 -355 rlineto
          -28 -14 -14 -23 0 -31 0 -29 14 -22 28 -17 rrcurveto
          692 -363 rlineto
          11 -5 11 -2 11 0 rrcurveto
          endchar
        </CharString>
        <CharString name="less_slash">
          0 -88 -315 rmoveto
          14 0 13 4 13 8 13 8 9 11 6 14 rrcurveto
          778 1750 rlineto
          5 11 2 10 0 10 0 14 -4 13 -8 13 -14 23 -21 11 -28 0 -14 0 -13 -4 -13 -7 -13 -8 -9 -11 -6 -14 rrcurveto
          -606 -1362 -714 382 rlineto
          -15 10 -8 13 0 16 0 15 8 12 16 10 rrcurveto
          472 250 rlineto
          29 18 15 23 0 29 0 20 -7 17 -15 15 -15 15 -17 7 -19 0 -11 0 -12 -3 -11 -5 rrcurveto
          -691 -355 rlineto
          -28 -14 -14 -23 0 -31 0 -29 14 -22 28 -17 rrcurveto
          933 -492 -110 -249 rlineto
          -5 -11 -2 -10 0 -9 0 -15 4 -13 8 -13 15 -23 21 -12 27 0 rrcurveto
          endchar
        </CharString>
        <CharString name="less_slash_greater">
          0 -1018 -315 rmoveto
          14 0 13 4 13 8 13 8 9 11 6 14 rrcurveto
          589 1323 788 -416 rlineto
          17 -9 8 -13 0 -15 0 -16 -8 -13 -15 -10 rrcurveto
          -476 -254 rlineto
          -29 -18 -15 -23 0 -29 0 -20 8 -17 15 -15 15 -15 18 -8 20 0 11 0 10 2 11 5 rrcurveto
          692 363 rlineto
          28 17 14 22 0 29 0 31 -14 23 -28 14 rrcurveto
          -1009 522 128 290 rlineto
          5 11 2 10 0 10 0 14 -4 13 -8 13 -14 23 -21 11 -28 0 -14 0 -13 -4 -13 -7 -13 -8 -9 -11 -6 -14 rrcurveto
          -606 -1362 -714 382 rlineto
          -15 10 -8 13 0 16 0 15 8 12 16 10 rrcurveto
          472 250 rlineto
          29 18 15 23 0 29 0 20 -7 17 -15 15 -15 15 -17 7 -19 0 -11 0 -12 -3 -11 -5 rrcurveto
          -691 -355 rlineto
          -28 -14 -14 -23 0 -31 0 -29 14 -22 28 -17 rrcurveto
          933 -492 -110 -249 rlineto
          -5 -11 -2 -10 0 -9 0 -15 4 -13 8 -13 15 -23 21 -12 27 0 rrcurveto
          endchar
        </CharString>
        <CharString name="lightshade">
          0 1080 1920 rmoveto
          120 120 -120 hlineto
          -960 -120 rmoveto
          120 120 -120 hlineto
          240 -120 rmoveto
          120 120 -120 hlineto
          240 -120 rmoveto
          120 120 -120 hlineto
          240 -120 rmoveto
          120 120 -120 hlineto
          240 -360 rmoveto
          120 120 -120 hlineto
          -960 -120 rmoveto
          120 120 -120 hlineto
          240 -120 rmoveto
          120 120 -120 hlineto
          240 -120 rmoveto
          120 120 -120 hlineto
          240 -120 rmoveto
          120 120 -120 hlineto
          240 -360 rmoveto
          120 120 -120 hlineto
          -960 -120 rmoveto
          120 120 -120 hlineto
          240 -120 rmoveto
          120 120 -120 hlineto
          240 -120 rmoveto
          120 120 -120 hlineto
          240 -120 rmoveto
          120 120 -120 hlineto
          240 -360 rmoveto
          120 120 -120 hlineto
          -960 -120 rmoveto
          120 120 -120 hlineto
          240 -120 rmoveto
          120 120 -120 hlineto
          240 -120 rmoveto
          120 120 -120 hlineto
          240 -120 rmoveto
          120 120 -120 hlineto
          240 -360 rmoveto
          120 120 -120 hlineto
          -960 -120 rmoveto
          120 120 -120 hlineto
          240 -120 rmoveto
          120 120 -120 hlineto
          240 -120 rmoveto
          120 120 -120 hlineto
          240 -120 rmoveto
          120 120 -120 hlineto
          240 -360 rmoveto
          120 120 -120 hlineto
          -960 -120 rmoveto
          120 120 -120 hlineto
          240 -120 rmoveto
          120 120 -120 hlineto
          240 -120 rmoveto
          120 120 -120 hlineto
          240 -120 rmoveto
          120 120 -120 hlineto
          240 -360 rmoveto
          120 120 -120 hlineto
          -960 -120 rmoveto
          120 120 -120 hlineto
          240 -120 rmoveto
          120 120 -120 hlineto
          240 -120 rmoveto
          120 120 -120 hlineto
          240 -120 rmoveto
          120 120 -120 hlineto
          240 -360 rmoveto
          120 120 -120 hlineto
          -960 -120 rmoveto
          120 120 -120 hlineto
          240 -120 rmoveto
          120 120 -120 hlineto
          240 -120 rmoveto
          120 120 -120 hlineto
          240 -120 rmoveto
          120 120 -120 hlineto
          240 -360 rmoveto
          120 120 -120 hlineto
          -960 -120 rmoveto
          120 120 -120 hlineto
          240 -120 rmoveto
          120 120 -120 hlineto
          240 -120 rmoveto
          120 120 -120 hlineto
          240 -120 rmoveto
          120 120 -120 hlineto
          240 -360 rmoveto
          120 120 -120 hlineto
          -960 -120 rmoveto
          120 120 -120 hlineto
          240 -120 rmoveto
          120 120 -120 hlineto
          240 -120 rmoveto
          120 120 -120 hlineto
          240 -120 rmoveto
          120 120 -120 hlineto
          240 -360 rmoveto
          120 120 -120 hlineto
          -960 -120 rmoveto
          120 120 -120 hlineto
          240 -120 rmoveto
          120 120 -120 hlineto
          240 -120 rmoveto
          120 120 -120 hlineto
          240 -120 rmoveto
          120 120 -120 hlineto
          endchar
        </CharString>
        <CharString name="lowerfiveeighthsblock">
          0 -600 vmoveto
          1200 1650 -1200 hlineto
          endchar
        </CharString>
        <CharString name="lowerhalfblock">
          0 -600 vmoveto
          1200 1320 -1200 hlineto
          endchar
        </CharString>
        <CharString name="loweroneeighthblock">
          0 -600 vmoveto
          1200 330 -1200 hlineto
          endchar
        </CharString>
        <CharString name="loweronequarterblock">
          0 -600 vmoveto
          1200 660 -1200 hlineto
          endchar
        </CharString>
        <CharString name="lowerseveneighthsblock">
          0 -600 vmoveto
          1200 2310 -1200 hlineto
          endchar
        </CharString>
        <CharString name="lowerthreeeighthsblock">
          0 -600 vmoveto
          1200 990 -1200 hlineto
          endchar
        </CharString>
        <CharString name="lowerthreequartersblock">
          0 -600 vmoveto
          1200 1980 -1200 hlineto
          endchar
        </CharString>
        <CharString name="m">
          0 971 -15 rmoveto
          21 0 17 7 15 15 15 15 7 17 0 21 rrcurveto
          766 vlineto
          0 83 -19 60 -37 39 -37 39 -52 19 -66 0 -62 0 -46 -20 -28 -39 -8 -11 -8 -16 -9 -22 -6 -14 -7 -7 -9 0 -12 0 -7 8 -3 16 -6 33 -17 26 -29 18 -30 19 -33 9 -37 0 rrcurveto
          -68 0 -45 -30 -22 -61 -9 -25 -10 -13 -10 0 -18 0 -9 12 1 23 rrcurveto
          27 vlineto
          0 18 -6 16 -12 13 -12 13 -15 7 -20 0 -19 0 -16 -7 -13 -14 -14 -13 -7 -16 0 -19 rrcurveto
          -937 vlineto
          0 -21 7 -17 15 -15 15 -15 17 -7 21 0 21 0 17 7 15 15 15 15 7 17 0 21 rrcurveto
          740 vlineto
          0 31 10 28 21 24 21 25 28 12 35 0 38 0 29 -11 19 -22 20 -21 10 -27 1 -32 rrcurveto
          -747 vlineto
          0 -21 6 -18 12 -14 12 -15 15 -7 19 0 20 0 16 7 12 15 12 14 6 18 0 21 rrcurveto
          744 vlineto
          0 30 12 26 25 23 25 23 28 12 32 0 35 -1 27 -13 19 -25 18 -21 9 -26 0 -30 rrcurveto
          -742 vlineto
          0 -20 7 -17 15 -15 15 -15 18 -8 20 0 rrcurveto
          endchar
        </CharString>
        <CharString name="mediumshade">
          0 1080 1920 rmoveto
          120 120 -120 hlineto
          -240 -120 rmoveto
          120 120 -120 hlineto
          -240 -120 rmoveto
          120 120 -120 hlineto
          -240 -120 rmoveto
          120 120 -120 hlineto
          -240 -120 rmoveto
          120 120 -120 hlineto
          840 -240 rmoveto
          120 120 -120 hlineto
          -240 -120 rmoveto
          120 120 -120 hlineto
          -240 -120 rmoveto
          120 120 -120 hlineto
          -240 -120 rmoveto
          120 120 -120 hlineto
          -240 -120 rmoveto
          120 120 -120 hlineto
          1080 -240 rmoveto
          120 120 -120 hlineto
          -240 -120 rmoveto
          120 120 -120 hlineto
          -720 -120 rmoveto
          120 120 -120 hlineto
          480 -120 rmoveto
          120 120 -120 hlineto
          -240 -120 rmoveto
          120 120 -120 hlineto
          600 -240 rmoveto
          120 120 -120 hlineto
          -720 -120 rmoveto
          120 120 -120 hlineto
          480 -120 rmoveto
          120 120 -120 hlineto
          -720 -120 rmoveto
          120 120 -120 hlineto
          480 -120 rmoveto
          120 120 -120 hlineto
          -120 -240 rmoveto
          120 120 -120 hlineto
          720 -120 rmoveto
          120 120 -120 hlineto
          -240 -120 rmoveto
          120 120 -120 hlineto
          -720 -120 rmoveto
          120 120 -120 hlineto
          480 -120 rmoveto
          120 120 -120 hlineto
          360 -240 rmoveto
          120 120 -120 hlineto
          -480 -120 rmoveto
          120 120 -120 hlineto
          -240 -120 rmoveto
          120 120 -120 hlineto
          -240 -120 rmoveto
          120 120 -120 hlineto
          720 -120 rmoveto
          120 120 -120 hlineto
          360 -240 rmoveto
          120 120 -120 hlineto
          -720 -120 rmoveto
          120 120 -120 hlineto
          480 -120 rmoveto
          120 120 -120 hlineto
          -240 -120 rmoveto
          120 120 -120 hlineto
          -480 -120 rmoveto
          120 120 -120 hlineto
          600 -240 rmoveto
          120 120 -120 hlineto
          -480 -120 rmoveto
          120 120 -120 hlineto
          240 -120 rmoveto
          120 120 -120 hlineto
          480 -120 rmoveto
          120 120 -120 hlineto
          -960 -120 rmoveto
          120 120 -120 hlineto
          600 -240 rmoveto
          120 120 -120 hlineto
          480 -120 rmoveto
          120 120 -120 hlineto
          -720 -120 rmoveto
          120 120 -120 hlineto
          -240 -120 rmoveto
          120 120 -120 hlineto
          720 -120 rmoveto
          120 120 -120 hlineto
          -840 -240 rmoveto
          120 120 -120 hlineto
          960 -120 rmoveto
          120 120 -120 hlineto
          -240 -120 rmoveto
          120 120 -120 hlineto
          -480 -120 rmoveto
          120 120 -120 hlineto
          240 -120 rmoveto
          120 120 -120 hlineto
          600 -240 rmoveto
          120 120 -120 hlineto
          -480 -120 rmoveto
          120 120 -120 hlineto
          -240 -120 rmoveto
          120 120 -120 hlineto
          -240 -120 rmoveto
          120 120 -120 hlineto
          720 -120 rmoveto
          120 120 -120 hlineto
          -360 -240 rmoveto
          120 120 -120 hlineto
          240 -120 rmoveto
          120 120 -120 hlineto
          -720 -120 rmoveto
          120 120 -120 hlineto
          240 -120 rmoveto
          120 120 -120 hlineto
          720 -120 rmoveto
          120 120 -120 hlineto
          -360 -240 rmoveto
          120 120 -120 hlineto
          -480 -120 rmoveto
          120 120 -120 hlineto
          240 -120 rmoveto
          120 120 -120 hlineto
          720 -120 rmoveto
          120 120 -120 hlineto
          -240 -120 rmoveto
          120 120 -120 hlineto
          -120 -240 rmoveto
          120 120 -120 hlineto
          -480 -120 rmoveto
          120 120 -120 hlineto
          720 -120 rmoveto
          120 120 -120 hlineto
          -480 -120 rmoveto
          120 120 -120 hlineto
          -480 -120 rmoveto
          120 120 -120 hlineto
          840 -240 rmoveto
          120 120 -120 hlineto
          -480 -120 rmoveto
          120 120 -120 hlineto
          240 -120 rmoveto
          120 120 -120 hlineto
          480 -120 rmoveto
          120 120 -120 hlineto
          -960 -120 rmoveto
          120 120 -120 hlineto
          840 -240 rmoveto
          120 120 -120 hlineto
          -960 -120 rmoveto
          120 120 -120 hlineto
          480 -120 rmoveto
          120 120 -120 hlineto
          240 -120 rmoveto
          120 120 -120 hlineto
          -480 -120 rmoveto
          120 120 -120 hlineto
          -120 -240 rmoveto
          120 120 -120 hlineto
          720 -120 rmoveto
          120 120 -120 hlineto
          -240 -120 rmoveto
          120 120 -120 hlineto
          -240 -120 rmoveto
          120 120 -120 hlineto
          720 -120 rmoveto
          120 120 -120 hlineto
          -120 -240 rmoveto
          120 120 -120 hlineto
          -240 -120 rmoveto
          120 120 -120 hlineto
          -720 -120 rmoveto
          120 120 -120 hlineto
          480 -120 rmoveto
          120 120 -120 hlineto
          -240 -120 rmoveto
          120 120 -120 hlineto
          840 -240 rmoveto
          120 120 -120 hlineto
          -240 -120 rmoveto
          120 120 -120 hlineto
          -720 -120 rmoveto
          120 120 -120 hlineto
          480 -120 rmoveto
          120 120 -120 hlineto
          -240 -120 rmoveto
          120 120 -120 hlineto
          -120 -240 rmoveto
          120 120 -120 hlineto
          720 -120 rmoveto
          120 120 -120 hlineto
          -240 -120 rmoveto
          120 120 -120 hlineto
          -240 -120 rmoveto
          120 120 -120 hlineto
          -480 -120 rmoveto
          120 120 -120 hlineto
          1080 -240 rmoveto
          120 120 -120 hlineto
          -720 -120 rmoveto
          120 120 -120 hlineto
          480 -120 rmoveto
          120 120 -120 hlineto
          -240 -120 rmoveto
          120 120 -120 hlineto
          -480 -120 rmoveto
          120 120 -120 hlineto
          360 -240 rmoveto
          120 120 -120 hlineto
          480 -120 rmoveto
          120 120 -120 hlineto
          -240 -120 rmoveto
          120 120 -120 hlineto
          -480 -120 rmoveto
          120 120 -120 hlineto
          -240 -120 rmoveto
          120 120 -120 hlineto
          endchar
        </CharString>
        <CharString name="n">
          0 266 1065 rmoveto
          -20 0 -18 -8 -15 -16 -16 -15 -8 -19 0 -23 rrcurveto
          -920 vlineto
          0 -24 7 -20 15 -14 14 -14 18 -7 23 0 24 0 19 7 12 14 13 14 6 19 0 25 rrcurveto
          547 vlineto
          0 95 39 74 77 53 62 41 60 21 57 1 148 0 76 -88 3 -175 rrcurveto
          -569 vlineto
          0 -25 7 -19 14 -14 14 -14 19 -7 23 0 24 0 18 7 12 14 12 14 6 19 0 25 rrcurveto
          580 vlineto
          0 153 -30 109 -61 65 -56 62 -87 31 -117 0 -86 -1 -86 -45 -84 -88 -11 -11 -11 -6 -9 0 -19 0 -10 13 0 26 rrcurveto
          32 vlineto
          0 23 -8 19 -16 15 -15 16 -18 8 -21 0 rrcurveto
          endchar
        </CharString>
        <CharString name="nine">
          0 575 675 rmoveto
          -81 0 -62 24 -42 47 -43 48 -21 66 0 84 0 56 10 52 21 49 20 49 31 40 41 30 42 30 50 15 60 0 60 0 51 -17 40 -35 40 -34 29 -42 20 -50 19 -49 10 -49 0 -49 rrcurveto
          0 -66 -12 -51 -24 -37 -42 -58 -57 -34 -72 -12 -31 -5 -29 -2 -28 0 rrcurveto
          -210 -690 rmoveto
          149 0 123 32 97 65 97 65 73 91 48 117 49 117 24 135 0 155 0 155 -17 125 -33 96 -34 96 -48 71 -63 44 -62 44 -77 22 -90 0 -94 0 -78 -22 -63 -43 -62 -44 -48 -59 -32 -75 rrcurveto
          -32 -75 -16 -83 0 -93 0 -93 17 -75 34 -58 34 -58 47 -43 57 -28 58 -27 66 -14 72 0 46 0 45 7 42 14 42 14 35 16 28 19 6 5 7 2 8 0 22 0 11 -14 0 -27 rrcurveto
          0 -45 -17 -58 -34 -71 -47 -94 -72 -71 -96 -47 -34 -15 -37 -10 -41 -5 -60 -8 -50 -4 -39 0 -20 -1 -17 -8 -14 -14 -13 -14 -7 -17 0 -21 0 -19 7 -17 14 -15 14 -15 16 -7 20 0 rrcurveto
          endchar
        </CharString>
        <CharString name="northeastarrow">
          0 138 174 rmoveto
          699 705 rlineto
          19 18 18 20 20 23 19 22 16 21 13 18 rrcurveto
          37 -10 rlineto
          -4 -26 -3 -29 -3 -31 -3 -32 -1 -32 0 -33 rrcurveto
          -383 130 800 -800 -126 375 vlineto
          33 0 31 1 29 3 29 3 27 2 24 2 rrcurveto
          5 -36 rlineto
          -16 -13 -18 -15 -20 -16 -20 -17 -19 -17 -18 -19 rrcurveto
          -696 -701 rlineto
          endchar
        </CharString>
        <CharString name="northwestarrow">
          0 1058 171 rmoveto
          101 105 -696 702 rlineto
          -17 18 -18 17 -21 17 -20 16 -19 15 -16 13 rrcurveto
          5 36 rlineto
          24 -2 27 -2 29 -3 29 -3 31 -1 33 0 rrcurveto
          375 126 -800 -800 130 383 hlineto
          0 33 -2 32 -4 30 -4 31 -4 29 -4 26 rrcurveto
          36 10 rlineto
          15 -18 17 -21 18 -22 19 -23 18 -20 19 -18 rrcurveto
          endchar
        </CharString>
        <CharString name="numbersign">
          0 401 -15 rmoveto
          21 0 17 7 15 15 15 14 7 18 0 21 rrcurveto
          195 -151 -195 vlineto
          0 -21 7 -18 15 -14 15 -15 18 -7 21 0 rrcurveto
          -166 900 rmoveto
          150 -106 vlineto
          -21 0 -18 -7 -14 -14 -15 -15 -7 -18 0 -21 0 -21 7 -18 15 -14 15 -15 17 -7 21 0 rrcurveto
          941 hmoveto
          21 0 18 7 15 15 14 15 7 18 0 21 0 21 -7 17 -15 15 -15 14 -17 7 -21 0 rrcurveto
          -505 -150 hlineto
          70 -520 rmoveto
          150 -506 vlineto
          -21 0 -17 -7 -15 -15 -15 -15 -7 -17 0 -21 0 -21 7 -18 15 -14 15 -15 17 -7 21 0 rrcurveto
          941 hmoveto
          21 0 17 7 15 15 15 14 7 18 0 21 0 21 -7 17 -15 15 -15 15 -17 7 -21 0 rrcurveto
          -105 -150 hlineto
          -90 780 rmoveto
          196 vlineto
          0 21 -7 17 -14 15 -15 14 -18 7 -21 0 -21 0 -17 -7 -15 -14 -15 -15 -7 -17 0 -21 rrcurveto
          -196 vlineto
          76 -1160 rmoveto
          21 0 17 7 15 15 14 14 7 18 0 21 rrcurveto
          715 -150 -715 vlineto
          0 -21 7 -18 15 -14 15 -15 18 -7 21 0 rrcurveto
          -325 640 rmoveto
          716 vlineto
          0 21 -7 17 -15 15 -15 14 -18 7 -21 0 -21 0 -17 -7 -15 -14 -15 -15 -7 -17 0 -21 rrcurveto
          -716 vlineto
          endchar
        </CharString>
        <CharString name="numbersign_braceleft">
          0 -965 885 rmoveto
          150 -106 vlineto
          -21 0 -18 -7 -14 -14 -15 -15 -7 -18 0 -21 0 -21 7 -18 15 -14 15 -15 17 -7 21 0 rrcurveto
          1636 -365 rmoveto
          13 0 7 9 0 17 0 9 -5 10 -11 9 rrcurveto
          -90 81 rlineto
          -14 13 -7 15 0 17 0 18 7 15 14 12 rrcurveto
          90 81 rlineto
          11 9 5 10 0 9 0 17 -7 9 -13 0 -5 0 -103 -46 -203 -93 -23 -7 -11 -14 0 -20 0 -20 11 -14 23 -7 203 -93 103 -46 5 0 rrcurveto
          -1364 -535 rmoveto
          21 0 17 7 15 15 15 14 7 18 0 21 rrcurveto
          195 -151 -195 vlineto
          0 -21 7 -18 15 -14 15 -15 18 -7 21 0 rrcurveto
          75 640 rmoveto
          716 vlineto
          0 21 -7 17 -15 15 -15 14 -18 7 -21 0 -21 0 -17 -7 -15 -14 -15 -15 -7 -17 0 -21 rrcurveto
          -716 vlineto
          476 -640 rmoveto
          21 0 17 7 15 15 14 14 7 18 0 21 rrcurveto
          715 -150 -715 vlineto
          0 -21 7 -18 15 -14 15 -15 18 -7 21 0 rrcurveto
          74 1160 rmoveto
          196 vlineto
          0 21 -7 17 -14 15 -15 14 -18 7 -21 0 -21 0 -17 -7 -15 -14 -15 -15 -7 -17 0 -21 rrcurveto
          -196 vlineto
          1403 -1393 rmoveto
          19 0 15 6 13 13 13 10 6 18 0 27 0 21 -7 17 -13 11 -13 13 -15 7 -18 0 rrcurveto
          -68 hlineto
          -77 0 -58 12 -37 25 -57 40 -29 52 0 64 0 17 0 17 1 15 1 21 1 41 0 63 0 15 -6 15 -13 15 -13 15 -15 12 -17 8 rrcurveto
          -290 136 rlineto
          -51 25 -52 12 -54 0 rrcurveto
          -329 -150 568 hlineto
          27 0 24 -9 22 -19 22 -19 13 -22 3 -25 3 -25 2 -35 0 -45 rrcurveto
          -1 -79 rlineto
          0 -122 40 -91 81 -59 48 -37 55 -20 63 -3 25 -2 65 -1 103 0 rrcurveto
          -1493 613 rmoveto
          150 -506 vlineto
          -21 0 -17 -7 -15 -15 -15 -15 -7 -17 0 -21 0 -21 7 -18 15 -14 15 -15 17 -7 21 0 rrcurveto
          1165 520 rmoveto
          54 0 52 12 51 24 rrcurveto
          290 137 rlineto
          16 8 15 12 13 15 13 15 7 15 0 15 rrcurveto
          89 vlineto
          -2 41 -1 28 0 16 0 65 29 52 57 39 37 25 58 12 77 0 rrcurveto
          69 hlineto
          18 0 15 7 13 13 13 11 7 17 0 21 0 27 -6 19 -13 10 -12 12 -16 6 -19 0 -104 0 -65 -1 -25 -1 -69 -5 -55 -21 -42 -35 -81 -59 -40 -91 0 -122 0 -27 2 -55 3 -85 rrcurveto
          0 -27 -13 -26 -27 -23 -27 -23 -26 -12 -27 0 rrcurveto
          -968 -150 hlineto
          endchar
        </CharString>
        <CharString name="numbersign_bracketleft">
          0 -565 365 rmoveto
          150 -506 vlineto
          -21 0 -17 -7 -15 -15 -15 -15 -7 -17 0 -21 0 -21 7 -18 15 -14 15 -15 17 -7 21 0 rrcurveto
          106 520 rmoveto
          150 -106 vlineto
          -21 0 -18 -7 -14 -14 -15 -15 -7 -18 0 -21 0 -21 7 -18 15 -14 15 -15 17 -7 21 0 rrcurveto
          272 -900 rmoveto
          21 0 17 7 15 15 15 14 7 18 0 21 rrcurveto
          195 -151 -195 vlineto
          0 -21 7 -18 15 -14 15 -15 18 -7 21 0 rrcurveto
          75 640 rmoveto
          716 vlineto
          0 21 -7 17 -15 15 -15 14 -18 7 -21 0 -21 0 -17 -7 -15 -14 -15 -15 -7 -17 0 -21 rrcurveto
          -716 vlineto
          476 -640 rmoveto
          21 0 17 7 15 15 14 14 7 18 0 21 rrcurveto
          715 -150 -715 vlineto
          0 -21 7 -18 15 -14 15 -15 18 -7 21 0 rrcurveto
          74 1160 rmoveto
          196 vlineto
          0 21 -7 17 -14 15 -15 14 -18 7 -21 0 -21 0 -17 -7 -15 -14 -15 -15 -7 -17 0 -21 rrcurveto
          -196 vlineto
          1315 -1400 rmoveto
          21 0 17 7 15 15 15 15 7 17 0 21 0 21 -7 17 -15 15 -15 15 -17 7 -21 0 rrcurveto
          -337 hlineto
          -32 2 -16 16 0 30 rrcurveto
          1516 vlineto
          4 31 16 15 28 0 rrcurveto
          337 hlineto
          21 0 17 7 15 15 15 15 7 17 0 21 0 21 -7 17 -15 15 -15 15 -17 7 -21 0 rrcurveto
          -456 hlineto
          -22 0 -19 -8 -15 -15 -15 -15 -8 -19 0 -21 rrcurveto
          -542 -940 -150 940 -370 -540 -150 540 -542 vlineto
          0 -21 8 -19 15 -15 15 -15 19 -8 22 0 rrcurveto
          endchar
        </CharString>
        <CharString name="numbersign_expand">
          0 476 665 rmoveto
          676 vlineto
          0 20 -7 17 -15 15 -15 15 -18 7 -21 0 -20 0 -17 -7 -15 -15 -15 -15 -8 -17 0 -20 rrcurveto
          -676 vlineto
          76 -680 rmoveto
          20 0 18 8 15 15 15 15 7 17 0 20 rrcurveto
          155 -151 -155 vlineto
          0 -20 8 -17 15 -15 15 -15 17 -8 21 0 rrcurveto
          -206 900 rmoveto
          150 -66 vlineto
          -20 0 -17 -7 -15 -15 -15 -15 -8 -18 0 -20 0 -20 8 -17 15 -15 15 -15 17 -8 20 0 rrcurveto
          1266 hmoveto
          150 -790 -150 vlineto
          -10 -520 rmoveto
          150 -466 vlineto
          -20 0 -17 -7 -15 -15 -15 -15 -8 -18 0 -20 0 -20 8 -17 15 -15 15 -15 17 -8 20 0 rrcurveto
          1666 hmoveto
          150 -790 -150 vlineto
          -130 820 rmoveto
          156 vlineto
          0 20 -7 17 -15 15 -15 15 -17 7 -21 0 -20 0 -17 -7 -15 -15 -15 -15 -8 -17 0 -20 rrcurveto
          -156 vlineto
          76 -1200 rmoveto
          20 0 17 8 15 15 15 15 7 17 0 20 rrcurveto
          675 -150 -675 vlineto
          0 -20 8 -17 15 -15 15 -15 17 -8 21 0 rrcurveto
          endchar
        </CharString>
        <CharString name="numbersign_parenleft">
          0 -565 365 rmoveto
          150 -506 vlineto
          -21 0 -17 -7 -15 -15 -15 -15 -7 -17 0 -21 0 -21 7 -18 15 -14 15 -15 17 -7 21 0 rrcurveto
          106 520 rmoveto
          150 -106 vlineto
          -21 0 -18 -7 -14 -14 -15 -15 -7 -18 0 -21 0 -21 7 -18 15 -14 15 -15 17 -7 21 0 rrcurveto
          272 -900 rmoveto
          21 0 17 7 15 15 15 14 7 18 0 21 rrcurveto
          195 -151 -195 vlineto
          0 -21 7 -18 15 -14 15 -15 18 -7 21 0 rrcurveto
          75 640 rmoveto
          716 vlineto
          0 21 -7 17 -15 15 -15 14 -18 7 -21 0 -21 0 -17 -7 -15 -14 -15 -15 -7 -17 0 -21 rrcurveto
          -716 vlineto
          476 -640 rmoveto
          21 0 17 7 15 15 14 14 7 18 0 21 rrcurveto
          715 -150 -715 vlineto
          0 -21 7 -18 15 -14 15 -15 18 -7 21 0 rrcurveto
          74 1160 rmoveto
          196 vlineto
          0 21 -7 17 -14 15 -15 14 -18 7 -21 0 -21 0 -17 -7 -15 -14 -15 -15 -7 -17 0 -21 rrcurveto
          -196 vlineto
          1341 -1500 rmoveto
          25 0 21 11 15 21 6 7 3 12 0 16 0 25 -10 19 -20 15 -119 81 -102 96 -84 113 -122 159 -62 185 -3 211 rrcurveto
          90 vlineto
          3 182 63 177 124 173 82 113 101 97 119 81 20 14 10 19 0 25 0 15 -3 12 -6 9 -13 21 -21 11 -27 0 -12 0 -10 -2 -7 -5 -153 -91 -126 -115 -98 -139 -60 -86 -46 -89 -31 -93 rrcurveto
          -958 -150 917 hlineto
          -12 -71 -6 -83 0 -93 0 -37 2 -41 3 -45 rrcurveto
          -504 -150 530 hlineto
          34 -137 55 -123 76 -109 98 -139 126 -114 153 -91 7 -5 10 -2 12 0 rrcurveto
          endchar
        </CharString>
        <CharString name="o">
          0 600 141 rmoveto
          -183 0 -91 128 0 256 0 123 23 95 46 66 45 67 69 33 91 0 91 0 68 -33 46 -67 46 -66 23 -95 0 -123 0 -256 -91 -128 -183 0 rrcurveto
          -156 vmoveto
          91 0 75 21 59 42 60 41 49 61 38 79 39 79 19 99 0 120 0 118 -19 98 -39 79 -38 79 -49 61 -60 41 -59 41 -75 21 -91 0 -90 0 -74 -21 -61 -41 -60 -41 -49 -61 -39 -79 rrcurveto
          -38 -79 -19 -98 0 -118 0 -120 19 -99 38 -79 39 -79 49 -61 60 -41 61 -42 74 -21 90 0 rrcurveto
          endchar
        </CharString>
        <CharString name="one">
          0 939 15 rmoveto
          20 0 18 8 15 15 15 15 7 17 0 20 0 21 -7 18 -15 14 -15 15 -17 7 -21 0 rrcurveto
          -228 hlineto
          -24 3 -12 13 0 23 rrcurveto
          1098 vlineto
          0 31 -11 27 -23 22 -22 22 -27 11 -31 0 -28 0 -26 -9 -23 -18 rrcurveto
          -277 -266 rlineto
          -17 -17 -8 -19 0 -21 0 -17 6 -16 11 -15 18 -18 19 -9 21 0 21 0 17 6 11 12 rrcurveto
          148 153 rlineto
          8 7 10 4 10 0 11 0 10 -4 9 -8 9 -7 4 -11 0 -13 rrcurveto
          -926 vlineto
          -3 -25 -13 -13 -23 0 rrcurveto
          -226 hlineto
          -21 0 -17 -7 -15 -15 -15 -14 -7 -18 0 -21 0 -20 7 -17 15 -15 15 -15 18 -8 20 0 rrcurveto
          endchar
        </CharString>
        <CharString name="p">
          0 623 143 rmoveto
          -74 0 -63 27 -50 53 -54 59 -27 63 0 65 rrcurveto
          211 vlineto
          0 82 28 67 55 51 55 51 63 25 69 0 181 -4 91 -115 0 -228 0 -138 -27 -104 -53 -68 -51 -65 -64 -32 -79 0 rrcurveto
          -341 -616 rmoveto
          19 0 16 7 15 15 15 14 8 19 0 24 rrcurveto
          412 vlineto
          0 35 15 18 30 0 16 0 15 -7 16 -14 54 -43 68 -22 81 0 114 0 91 47 70 94 78 104 39 145 0 186 0 336 -130 168 -260 0 -95 0 -78 -36 -59 -73 -9 -11 -12 -6 -13 0 rrcurveto
          -20 0 -13 23 -4 45 -4 39 -22 19 -41 0 -21 0 -19 -7 -15 -14 -15 -14 -7 -18 0 -24 rrcurveto
          -1382 vlineto
          0 -24 8 -19 15 -14 16 -15 18 -7 20 0 rrcurveto
          endchar
        </CharString>
        <CharString name="parenleft">
          0 866 -304 rmoveto
          26 0 20 11 15 21 6 7 3 12 0 16 0 25 -10 19 -20 14 -119 81 -102 97 -84 113 -122 159 -62 185 -3 211 rrcurveto
          90 vlineto
          3 182 63 177 124 173 82 113 101 97 119 82 20 13 10 19 0 25 0 15 -3 11 -6 9 -14 22 -20 11 -27 0 -12 0 -10 -2 -7 -5 -153 -91 -125 -115 -99 -139 -131 -187 -65 -207 0 -225 rrcurveto
          -46 vlineto
          0 -241 65 -214 131 -187 99 -138 125 -115 153 -91 7 -5 10 -2 12 0 rrcurveto
          endchar
        </CharString>
        <CharString name="parenright">
          0 334 -304 rmoveto
          12 0 10 2 7 5 153 91 125 115 99 138 131 187 65 214 0 241 rrcurveto
          46 vlineto
          0 225 -65 207 -131 187 -99 139 -125 115 -153 91 -7 5 -10 2 -12 0 -27 0 -20 -11 -14 -22 -6 -9 -3 -11 0 -15 0 -25 10 -19 20 -13 119 -82 101 -97 82 -113 124 -173 63 -177 3 -182 rrcurveto
          -90 vlineto
          -3 -211 -62 -185 -122 -159 -84 -113 -102 -97 -119 -81 -20 -14 -10 -19 0 -25 0 -16 3 -12 6 -7 15 -21 20 -11 26 0 rrcurveto
          endchar
        </CharString>
        <CharString name="percent">
          0 840 109 rmoveto
          -90 0 -45 70 0 141 0 160 45 80 90 0 90 0 45 -80 0 -160 0 -141 -45 -70 -90 0 rrcurveto
          -480 741 rmoveto
          -90 0 -45 70 0 141 0 160 45 80 90 0 90 0 45 -80 0 -160 0 -141 -45 -70 -90 0 rrcurveto
          480 -855 rmoveto
          87 0 67 31 49 61 48 61 24 77 0 95 0 121 -24 89 -48 58 -49 57 -67 29 -87 0 -181 0 -91 -118 -3 -236 0 -99 25 -79 49 -59 49 -59 67 -29 85 0 rrcurveto
          -480 741 rmoveto
          87 0 67 31 49 61 48 61 24 77 0 95 0 121 -24 89 -48 58 -49 57 -67 29 -87 0 -181 0 -91 -118 -3 -236 0 -99 25 -79 49 -59 49 -59 67 -29 85 0 rrcurveto
          -183 -571 rmoveto
          25 0 23 10 20 20 rrcurveto
          256 316 rlineto
          11 13 5 15 0 16 0 21 -6 17 -13 12 -13 11 -17 6 -21 0 -16 0 -15 -6 -15 -13 rrcurveto
          -291 -284 rlineto
          -16 -15 -8 -23 0 -30 0 -20 8 -19 16 -19 15 -19 23 -9 29 0 rrcurveto
          577 613 rmoveto
          17 0 15 6 13 13 rrcurveto
          292 284 rlineto
          11 10 6 9 3 9 3 9 1 11 0 13 0 26 -8 22 -15 17 -16 17 -23 10 -29 1 -25 0 -23 -10 -20 -20 rrcurveto
          -256 -316 rlineto
          -11 -13 -5 -14 0 -14 0 -45 23 -24 47 -1 rrcurveto
          endchar
        </CharString>
        <CharString name="period">
          0 604 -15 rmoveto
          39 0 33 15 29 29 28 29 14 35 0 41 0 42 -14 36 -28 29 -29 29 -33 15 -39 0 -42 0 -35 -15 -29 -29 -29 -29 -14 -36 0 -42 0 -41 14 -35 29 -29 29 -29 35 -15 42 0 rrcurveto
          endchar
        </CharString>
        <CharString name="period_period">
          0 434 -15 rmoveto
          39 0 34 15 28 29 28 29 14 35 0 41 0 42 -14 36 -28 29 -28 29 -34 15 -39 0 -43 0 -35 -15 -28 -29 -29 -29 -14 -36 0 -42 0 -41 14 -35 29 -29 28 -29 35 -15 43 0 rrcurveto
          -860 hmoveto
          39 0 34 15 28 29 28 29 14 35 0 41 0 42 -14 36 -28 29 -28 29 -34 15 -39 0 -43 0 -35 -15 -28 -29 -29 -29 -14 -36 0 -42 0 -41 14 -35 29 -29 28 -29 35 -15 43 0 rrcurveto
          endchar
        </CharString>
        <CharString name="period_period_period">
          0 -596 -15 rmoveto
          39 0 34 15 28 29 28 29 14 35 0 41 0 42 -14 36 -28 29 -28 29 -34 15 -39 0 -43 0 -35 -15 -28 -29 -29 -29 -14 -36 0 -42 0 -41 14 -35 29 -29 28 -29 35 -15 43 0 rrcurveto
          -760 hmoveto
          39 0 34 15 28 29 28 29 14 35 0 41 0 42 -14 36 -28 29 -28 29 -34 15 -39 0 -43 0 -35 -15 -28 -29 -29 -29 -14 -36 0 -42 0 -41 14 -35 29 -29 28 -29 35 -15 43 0 rrcurveto
          1520 hmoveto
          39 0 34 15 28 29 28 29 14 35 0 41 0 42 -14 36 -28 29 -28 29 -34 15 -39 0 -43 0 -35 -15 -28 -29 -29 -29 -14 -36 0 -42 0 -41 14 -35 29 -29 28 -29 35 -15 43 0 rrcurveto
          endchar
        </CharString>
        <CharString name="placeholder">
          0 endchar
        </CharString>
        <CharString name="plus">
          0 600 184 rmoveto
          21 0 17 8 15 15 15 15 7 17 0 21 rrcurveto
          265 265 vlineto
          21 0 17 7 15 15 15 15 7 17 0 21 0 21 -7 17 -15 15 -15 15 -17 7 -21 0 rrcurveto
          -265 265 hlineto
          0 21 -7 17 -15 15 -15 15 -17 7 -21 0 -21 0 -17 -7 -15 -15 -15 -15 -7 -17 0 -21 rrcurveto
          -265 -265 vlineto
          -21 0 -17 -7 -15 -15 -15 -15 -7 -17 0 -21 0 -21 7 -17 15 -15 15 -15 17 -7 21 0 rrcurveto
          265 -265 hlineto
          0 -21 7 -17 15 -15 15 -15 17 -8 21 0 rrcurveto
          endchar
        </CharString>
        <CharString name="plus_plus">
          0 480 184 rmoveto
          21 0 17 8 15 15 15 15 7 17 0 21 rrcurveto
          265 265 vlineto
          21 0 17 7 15 15 15 15 7 17 0 21 0 21 -7 17 -15 15 -15 15 -17 7 -21 0 rrcurveto
          -265 265 hlineto
          0 21 -7 17 -15 15 -15 15 -17 7 -21 0 -21 0 -17 -7 -15 -15 -15 -15 -7 -17 0 -21 rrcurveto
          -265 -810 265 vlineto
          0 21 -7 17 -15 15 -15 15 -17 7 -21 0 -21 0 -17 -7 -15 -15 -15 -15 -7 -17 0 -21 rrcurveto
          -265 -265 vlineto
          -21 0 -17 -7 -15 -15 -15 -15 -7 -17 0 -21 0 -21 7 -17 15 -15 15 -15 17 -7 21 0 rrcurveto
          265 -265 hlineto
          0 -21 7 -17 15 -15 15 -15 17 -8 21 0 21 0 17 8 15 15 15 15 7 17 0 21 rrcurveto
          265 810 -265 vlineto
          0 -21 7 -17 15 -15 15 -15 17 -8 21 0 rrcurveto
          endchar
        </CharString>
        <CharString name="plus_plus_plus">
          0 360 184 rmoveto
          21 0 17 8 15 15 15 15 7 17 0 21 rrcurveto
          265 265 vlineto
          21 0 17 7 15 15 15 15 7 17 0 21 0 21 -7 17 -15 15 -15 15 -17 7 -21 0 rrcurveto
          -265 265 hlineto
          0 21 -7 17 -15 15 -15 15 -17 7 -21 0 -21 0 -17 -7 -15 -15 -15 -15 -7 -17 0 -21 rrcurveto
          -265 -810 265 vlineto
          0 21 -7 17 -15 15 -15 15 -17 7 -21 0 -21 0 -17 -7 -15 -15 -15 -15 -7 -17 0 -21 rrcurveto
          -265 -810 265 vlineto
          0 21 -7 17 -15 15 -15 15 -17 7 -21 0 -21 0 -17 -7 -15 -15 -15 -15 -7 -17 0 -21 rrcurveto
          -265 -265 vlineto
          -21 0 -17 -7 -15 -15 -15 -15 -7 -17 0 -21 0 -21 7 -17 15 -15 15 -15 17 -7 21 0 rrcurveto
          265 -265 hlineto
          0 -21 7 -17 15 -15 15 -15 17 -8 21 0 21 0 17 8 15 15 15 15 7 17 0 21 rrcurveto
          265 810 -265 vlineto
          0 -21 7 -17 15 -15 15 -15 17 -8 21 0 21 0 17 8 15 15 15 15 7 17 0 21 rrcurveto
          265 810 -265 vlineto
          0 -21 7 -17 15 -15 15 -15 17 -8 21 0 rrcurveto
          endchar
        </CharString>
        <CharString name="q">
          0 578 146 rmoveto
          -92 0 -71 32 -50 65 -41 55 -20 104 0 155 0 228 91 116 181 4 69 0 63 -25 55 -51 55 -51 28 -67 0 -82 rrcurveto
          -213 vlineto
          0 -68 -27 -63 -54 -59 -50 -53 -63 -27 -74 0 rrcurveto
          341 -619 rmoveto
          20 0 18 7 16 15 15 14 8 19 0 24 rrcurveto
          1382 vlineto
          0 24 -7 19 -15 13 -14 14 -18 7 -21 0 -45 0 -23 -19 -2 -38 -3 -46 -12 -23 -22 0 -13 0 -11 5 -9 11 -60 73 -72 37 -85 0 -266 0 -133 -176 0 -353 0 -198 36 -142 71 -85 rrcurveto
          71 -85 93 -42 114 0 81 0 68 22 55 44 16 13 16 7 14 0 30 0 15 -18 0 -35 rrcurveto
          -411 vlineto
          0 -24 8 -19 15 -14 15 -15 17 -7 19 0 rrcurveto
          endchar
        </CharString>
        <CharString name="quadrantlowerleft">
          0 -600 vmoveto
          600 1320 -600 hlineto
          endchar
        </CharString>
        <CharString name="quadrantlowerright">
          0 600 -600 rmoveto
          600 1320 -600 hlineto
          endchar
        </CharString>
        <CharString name="quadrantupperleft">
          0 720 vmoveto
          600 1320 -600 hlineto
          endchar
        </CharString>
        <CharString name="quadrantupperleftandlowerleftandlowerright">
          0 -600 vmoveto
          1200 1320 -600 1320 -600 hlineto
          endchar
        </CharString>
        <CharString name="quadrantupperleftandlowerright">
          0 720 vmoveto
          600 1320 -600 hlineto
          600 -2640 rmoveto
          600 1320 -600 hlineto
          endchar
        </CharString>
        <CharString name="quadrantupperleftandupperrightandlowerleft">
          0 -600 vmoveto
          600 1320 600 1320 -1200 hlineto
          endchar
        </CharString>
        <CharString name="quadrantupperleftandupperrightandlowerright">
          0 600 -600 rmoveto
          600 2640 -1220 -1320 620 hlineto
          endchar
        </CharString>
        <CharString name="quadrantupperright">
          0 600 720 rmoveto
          600 1320 -600 hlineto
          endchar
        </CharString>
        <CharString name="quadrantupperrightandlowerleft">
          0 600 720 rmoveto
          600 1320 -600 hlineto
          -600 -2640 rmoveto
          600 1320 -600 hlineto
          endchar
        </CharString>
        <CharString name="quadrantupperrightandlowerleftandlowerright">
          0 -600 vmoveto
          1200 2640 -600 -1320 -600 hlineto
          endchar
        </CharString>
        <CharString name="question">
          0 604 -15 rmoveto
          39 0 34 15 28 29 28 29 14 35 0 41 0 42 -14 36 -28 29 -28 29 -34 15 -39 0 -42 0 -36 -15 -28 -29 -29 -29 -14 -36 0 -42 0 -41 14 -35 29 -29 28 -29 36 -15 42 0 rrcurveto
          -4 492 rmoveto
          45 0 26 28 7 56 7 56 45 67 83 79 88 86 44 112 0 139 0 107 -29 87 -58 64 -59 65 -87 32 -116 0 -166 0 -109 -70 -51 -141 -10 -26 -5 -22 0 -19 0 -52 24 -26 49 -1 rrcurveto
          14 0 12 4 12 7 12 7 13 20 16 34 42 89 63 44 82 0 141 -1 71 -70 2 -139 0 -86 -37 -77 -75 -67 -59 -56 -44 -48 -30 -39 -29 -39 -15 -48 0 -57 0 -66 27 -33 54 0 rrcurveto
          endchar
        </CharString>
        <CharString name="question_question">
          0 -456 -15 rmoveto
          39 0 33 15 29 29 28 29 14 35 0 41 0 42 -14 36 -28 29 -29 29 -33 15 -39 0 -42 0 -35 -15 -29 -29 -29 -29 -14 -36 0 -42 0 -41 14 -35 29 -29 29 -29 35 -15 42 0 rrcurveto
          916 492 rmoveto
          45 0 26 25 6 49 8 63 45 70 83 79 88 85 44 113 0 139 0 107 -29 86 -58 65 -58 65 -87 32 -117 0 -167 0 -108 -70 -51 -141 -10 -26 -5 -22 0 -19 0 -52 24 -26 49 -1 rrcurveto
          14 0 13 4 11 7 11 7 14 20 16 34 43 89 62 44 82 0 141 -1 71 -70 2 -139 0 -87 -37 -76 -75 -67 -59 -56 -45 -48 -29 -39 -29 -39 -15 -48 0 -57 0 -66 27 -33 54 0 rrcurveto
          4 -492 rmoveto
          39 0 33 15 29 29 28 29 14 35 0 41 0 42 -14 36 -28 29 -29 29 -33 15 -39 0 -42 0 -35 -15 -29 -29 -29 -29 -14 -36 0 -42 0 -41 14 -35 29 -29 29 -29 35 -15 42 0 rrcurveto
          -924 492 rmoveto
          45 0 26 25 6 49 8 63 45 70 83 79 88 85 44 113 0 139 0 107 -29 86 -58 65 -58 65 -87 32 -117 0 -167 0 -108 -70 -51 -141 -10 -26 -5 -22 0 -19 0 -52 24 -26 49 -1 rrcurveto
          14 0 13 4 11 7 11 7 14 20 16 34 43 89 62 44 82 0 141 -1 71 -70 2 -139 0 -87 -37 -76 -75 -67 -59 -56 -45 -48 -29 -39 -29 -39 -15 -48 0 -57 0 -66 27 -33 54 0 rrcurveto
          endchar
        </CharString>
        <CharString name="quotedbl">
          0 441 1035 rmoveto
          20 0 18 8 15 15 15 15 7 17 0 20 rrcurveto
          310 vlineto
          0 20 -7 18 -15 15 -15 15 -18 7 -20 0 -20 0 -17 -7 -15 -15 -15 -15 -8 -18 0 -20 rrcurveto
          -310 vlineto
          0 -20 8 -17 15 -15 15 -15 17 -8 20 0 rrcurveto
          319 hmoveto
          20 0 18 8 15 15 15 15 7 17 0 20 rrcurveto
          310 vlineto
          0 20 -7 18 -15 15 -15 15 -18 7 -20 0 -20 0 -17 -7 -15 -15 -15 -15 -8 -18 0 -20 rrcurveto
          -310 vlineto
          0 -20 8 -17 15 -15 15 -15 17 -8 20 0 rrcurveto
          endchar
        </CharString>
        <CharString name="quotesingle">
          0 601 1035 rmoveto
          20 0 18 8 15 15 15 15 7 17 0 20 rrcurveto
          310 vlineto
          0 20 -7 18 -15 15 -15 15 -18 7 -20 0 -20 0 -17 -7 -15 -15 -15 -15 -8 -18 0 -20 rrcurveto
          -310 vlineto
          0 -20 8 -17 15 -15 15 -15 17 -8 20 0 rrcurveto
          endchar
        </CharString>
        <CharString name="r">
          0 312 -15 rmoveto
          20 0 17 7 14 14 15 14 7 19 0 22 rrcurveto
          519 vlineto
          0 85 41 77 81 67 82 67 76 33 70 0 101 0 59 -57 15 -115 3 -22 9 -17 14 -10 15 -11 17 -5 21 0 18 0 16 7 12 14 13 15 6 18 0 22 0 112 -27 81 -55 50 rrcurveto
          -55 49 -74 25 -91 0 -112 0 -100 -50 -89 -99 -11 -13 -11 -7 -10 0 -23 0 -11 15 0 30 rrcurveto
          49 vlineto
          0 21 -8 18 -15 14 -15 15 -18 7 -23 0 -20 0 -17 -7 -13 -15 -14 -14 -7 -18 0 -21 rrcurveto
          -929 vlineto
          0 -23 7 -18 14 -14 13 -14 19 -7 24 0 rrcurveto
          endchar
        </CharString>
        <CharString name="referencemark">
          0 600 140 rmoveto
          31 0 26 11 21 22 22 21 11 26 0 30 0 33 -11 26 -21 21 -21 21 -26 11 -32 0 -30 0 -26 -11 -21 -21 -21 -21 -11 -27 0 -32 0 -30 11 -26 22 -21 21 -22 26 -11 29 0 rrcurveto
          896 vmoveto
          31 0 26 11 21 22 22 21 11 27 0 31 0 33 -11 26 -21 21 -21 21 -26 11 -32 0 -30 0 -26 -11 -21 -21 -21 -21 -11 -27 0 -32 0 -31 11 -27 22 -21 21 -22 26 -11 29 0 rrcurveto
          -452 -866 rmoveto
          19 0 17 8 15 17 rrcurveto
          403 403 404 -403 rlineto
          16 -16 17 -8 18 0 18 0 17 8 16 16 16 16 8 18 0 19 0 17 -9 17 -17 16 rrcurveto
          -402 401 402 404 rlineto
          15 15 8 16 0 19 0 18 -8 16 -16 16 -15 15 -17 8 -19 0 -18 0 -16 -7 -14 -15 rrcurveto
          -404 -403 -403 403 rlineto
          -15 15 -17 7 -19 0 -17 0 -17 -8 -15 -15 -16 -16 -8 -16 0 -18 0 -19 8 -17 17 -15 rrcurveto
          400 -403 -400 -403 rlineto
          -17 -15 -8 -17 0 -19 0 -17 8 -17 15 -17 16 -16 16 -8 18 0 rrcurveto
          4 416 rmoveto
          31 0 26 11 21 22 22 21 11 27 0 31 0 32 -11 27 -21 21 -21 21 -27 11 -31 0 -29 0 -25 -11 -21 -21 -21 -21 -11 -26 0 -33 0 -31 11 -27 22 -21 21 -22 25 -11 28 0 rrcurveto
          894 hmoveto
          29 0 26 11 21 22 22 21 11 27 0 31 0 32 -11 27 -21 21 -21 21 -26 11 -30 0 -31 0 -25 -11 -21 -21 -21 -21 -11 -26 0 -33 0 -31 11 -27 22 -21 21 -22 26 -11 29 0 rrcurveto
          endchar
        </CharString>
        <CharString name="right_arrow_double">
          0 383 66 rmoveto
          18 0 18 7 17 15 rrcurveto
          456 456 rlineto
          15 17 8 18 0 20 0 20 -8 18 -15 15 rrcurveto
          -456 458 rlineto
          -17 15 -18 7 -18 0 -21 0 -17 -7 -15 -14 -15 -15 -7 -18 0 -21 0 -19 7 -18 15 -17 41 -41 22 -23 2 -5 1 -5 1 -6 0 -5 0 -11 -4 -10 -9 -9 -9 -9 -10 -4 -11 0 rrcurveto
          -1294 hlineto
          -20 0 -17 -7 -15 -14 -15 -15 -8 -18 0 -21 0 -21 8 -17 15 -15 15 -15 18 -7 19 0 rrcurveto
          1343 hlineto
          19 0 18 7 17 15 rrcurveto
          32 33 rlineto
          9 9 11 4 12 0 12 0 11 -4 9 -9 rrcurveto
          150 -149 rlineto
          9 -9 4 -11 0 -12 0 -12 -4 -11 -9 -9 rrcurveto
          -148 -147 rlineto
          -9 -9 -11 -4 -12 0 -12 0 -11 4 -9 9 rrcurveto
          -33 33 rlineto
          -16 15 -18 8 -20 0 rrcurveto
          -1344 hlineto
          -20 0 -17 -7 -15 -14 -15 -15 -8 -18 0 -21 0 -21 8 -17 15 -15 15 -15 18 -7 19 0 rrcurveto
          1296 hlineto
          11 0 11 -4 9 -9 9 -9 4 -11 0 -12 0 -11 -4 -9 -8 -9 -19 -20 -18 -18 -17 -17 -17 -17 -9 -19 0 -20 0 -21 7 -17 15 -15 15 -15 17 -7 21 0 rrcurveto
          endchar
        </CharString>
        <CharString name="right_arrow_double_long">
          0 383 66 rmoveto
          18 0 18 7 17 15 rrcurveto
          456 456 rlineto
          15 17 8 18 0 20 0 20 -8 18 -15 15 rrcurveto
          -456 458 rlineto
          -17 15 -18 7 -18 0 -21 0 -17 -7 -15 -14 -15 -15 -7 -18 0 -21 0 -19 7 -18 15 -17 41 -41 22 -23 2 -5 1 -5 1 -6 0 -5 0 -11 -4 -10 -9 -9 -9 -9 -10 -4 -11 0 rrcurveto
          -2494 hlineto
          -20 0 -17 -7 -15 -14 -15 -15 -8 -18 0 -21 0 -21 8 -17 15 -15 15 -15 18 -7 19 0 rrcurveto
          2543 hlineto
          19 0 18 7 17 15 rrcurveto
          32 33 rlineto
          9 9 11 4 12 0 12 0 11 -4 9 -9 rrcurveto
          150 -149 rlineto
          9 -9 4 -11 0 -12 0 -12 -4 -11 -9 -9 rrcurveto
          -148 -147 rlineto
          -9 -9 -11 -4 -12 0 -12 0 -11 4 -9 9 rrcurveto
          -33 33 rlineto
          -16 15 -18 8 -20 0 rrcurveto
          -2544 hlineto
          -20 0 -17 -7 -15 -14 -15 -15 -8 -18 0 -21 0 -21 8 -17 15 -15 15 -15 18 -7 19 0 rrcurveto
          2496 hlineto
          11 0 11 -4 9 -9 9 -9 4 -11 0 -12 0 -11 -4 -9 -8 -9 -19 -20 -18 -18 -17 -17 -17 -17 -9 -19 0 -20 0 -21 7 -17 15 -15 15 -15 17 -7 21 0 rrcurveto
          endchar
        </CharString>
        <CharString name="right_arrow_single">
          0 581 463 rmoveto
          -12 0 -11 4 -9 9 rrcurveto
          -90 89 rlineto
          -9 9 -4 11 0 12 0 12 4 11 9 9 rrcurveto
          90 89 rlineto
          9 9 11 4 12 0 12 0 11 -4 9 -9 rrcurveto
          88 -89 rlineto
          10 -9 5 -10 0 -13 0 -12 -5 -11 -9 -10 rrcurveto
          -89 -88 rlineto
          -9 -9 -11 -4 -12 0 rrcurveto
          -198 -397 rmoveto
          19 0 17 7 17 14 rrcurveto
          456 456 rlineto
          15 18 8 18 0 19 0 20 -8 18 -15 16 rrcurveto
          -456 458 rlineto
          -17 15 -18 7 -18 0 -19 0 -18 -7 -15 -14 -15 -15 -8 -18 0 -22 0 -19 7 -18 15 -17 rrcurveto
          113 -113 rlineto
          9 -9 4 -11 0 -11 0 -12 -4 -11 -9 -9 rrcurveto
          -115 -115 rlineto
          -11 -10 -13 -8 -17 -7 -17 -7 -15 -4 -15 0 rrcurveto
          -1180 hlineto
          -21 0 -17 -7 -15 -15 -15 -15 -7 -17 0 -21 0 -21 7 -17 15 -15 15 -15 17 -7 21 0 rrcurveto
          1180 hlineto
          15 0 15 -3 17 -7 17 -7 13 -9 11 -10 rrcurveto
          115 -118 rlineto
          9 -9 4 -11 0 -12 0 -12 -4 -11 -9 -9 rrcurveto
          -113 -113 rlineto
          -15 -17 -7 -18 0 -18 0 -21 7 -18 15 -14 14 -15 18 -7 21 0 rrcurveto
          endchar
        </CharString>
        <CharString name="right_arrow_single_long">
          0 581 463 rmoveto
          -12 0 -11 4 -9 9 rrcurveto
          -90 89 rlineto
          -9 9 -4 11 0 12 0 12 4 11 9 9 rrcurveto
          90 89 rlineto
          9 9 11 4 12 0 12 0 11 -4 9 -9 rrcurveto
          88 -89 rlineto
          10 -9 5 -10 0 -13 0 -12 -5 -11 -9 -10 rrcurveto
          -89 -88 rlineto
          -9 -9 -11 -4 -12 0 rrcurveto
          -198 -397 rmoveto
          19 0 17 7 17 14 rrcurveto
          456 456 rlineto
          15 18 8 18 0 19 0 20 -8 18 -15 16 rrcurveto
          -456 458 rlineto
          -17 15 -18 7 -18 0 -19 0 -18 -7 -15 -14 -15 -15 -8 -18 0 -22 0 -19 7 -18 15 -17 rrcurveto
          113 -113 rlineto
          9 -9 4 -11 0 -11 0 -12 -4 -11 -9 -9 rrcurveto
          -115 -115 rlineto
          -11 -10 -13 -8 -17 -7 -17 -7 -15 -4 -15 0 rrcurveto
          -2380 hlineto
          -21 0 -17 -7 -15 -15 -15 -15 -7 -17 0 -21 0 -21 7 -17 15 -15 15 -15 17 -7 21 0 rrcurveto
          2380 hlineto
          15 0 15 -3 17 -7 17 -7 13 -9 11 -10 rrcurveto
          115 -118 rlineto
          9 -9 4 -11 0 -12 0 -12 -4 -11 -9 -9 rrcurveto
          -113 -113 rlineto
          -15 -17 -7 -18 0 -18 0 -21 7 -18 15 -14 14 -15 18 -7 21 0 rrcurveto
          endchar
        </CharString>
        <CharString name="righthalfblock">
          0 600 -600 rmoveto
          600 2640 -600 hlineto
          endchar
        </CharString>
        <CharString name="rightoneeighthblock">
          0 1050 -600 rmoveto
          150 2640 -150 hlineto
          endchar
        </CharString>
        <CharString name="rightwardsarrow">
          0 497 85 rmoveto
          174 hlineto
          450 575 -452 575 rlineto
          -172 hlineto
          305 -383 rlineto
          17 -20 16 -18 17 -17 16 -18 15 -13 12 -11 rrcurveto
          -42 vlineto
          -28 4 -28 3 -26 2 -26 2 -25 1 -22 0 rrcurveto
          -645 -130 645 hlineto
          22 0 25 1 26 2 27 2 27 2 28 2 rrcurveto
          -41 vlineto
          -15 -12 -17 -14 -16 -17 -17 -16 -15 -16 -13 -17 rrcurveto
          endchar
        </CharString>
        <CharString name="s">
          0 603 -15 rmoveto
          115 0 96 27 76 55 77 54 38 75 0 95 0 82 -32 66 -64 48 -64 48 -98 37 -131 27 -89 20 -63 23 -37 26 -37 26 -18 33 0 40 0 41 20 33 41 27 41 27 55 13 68 0 rrcurveto
          57 0 49 -12 39 -23 39 -24 27 -29 14 -33 15 -35 24 -18 33 0 23 0 19 9 16 18 16 18 8 21 0 24 0 50 -31 50 -62 51 -73 60 -95 30 -118 0 -112 0 -93 -29 -72 -59 rrcurveto
          -73 -59 -36 -71 0 -84 0 -164 128 -107 255 -50 165 -29 82 -54 0 -80 0 -38 -20 -33 -41 -27 -40 -27 -59 -13 -78 0 -132 0 -86 43 -39 87 -16 35 -26 18 -38 0 -23 0 -17 -7 -13 -15 rrcurveto
          -13 -15 -6 -20 0 -24 0 -17 4 -16 7 -16 30 -61 47 -51 66 -39 66 -39 85 -19 104 0 rrcurveto
          endchar
        </CharString>
        <CharString name="section">
          0 937 367 rmoveto
          60 67 30 73 0 78 0 101 -37 79 -74 57 -46 42 -89 43 -134 44 -82 26 -60 29 -38 30 -38 30 -19 41 0 54 0 54 22 40 44 26 44 25 52 13 61 0 86 0 79 -12 73 -24 rrcurveto
          7 -2 7 -1 6 0 41 0 23 24 5 47 0 16 -5 15 -9 12 -10 12 -12 8 -15 3 -96 23 -92 11 -86 0 -126 0 -97 -28 -66 -55 -66 -55 -33 -74 0 -94 0 -68 24 -60 48 -54 rrcurveto
          25 -27 rlineto
          30 -31 49 -27 69 -24 rrcurveto
          98 -37 rlineto
          78 -27 66 -30 55 -33 55 -34 28 -52 0 -72 0 -64 -14 -47 -29 -29 44 -15 36 -20 28 -27 rrcurveto
          -386 -648 rmoveto
          139 0 107 26 75 52 75 53 37 78 0 103 0 151 -111 109 -221 68 -96 29 -78 32 -61 36 -60 36 -30 56 0 76 0 65 13 46 26 27 -24 5 -35 24 -45 41 -5 -5 -11 -15 -16 -24 rrcurveto
          -16 -25 -14 -27 -11 -31 -11 -31 -5 -33 0 -36 0 -102 35 -79 69 -56 54 -43 79 -40 106 -36 107 -29 77 -34 47 -36 45 -31 23 -43 0 -57 0 -109 -87 -57 -175 -4 -110 0 -77 11 -44 21 rrcurveto
          -17 9 -18 4 -19 0 -45 0 -23 -23 0 -47 0 -70 117 -35 234 0 rrcurveto
          endchar
        </CharString>
        <CharString name="semicolon">
          0 605 766 rmoveto
          39 0 34 15 28 29 28 29 14 35 0 41 0 42 -14 35 -28 29 -28 29 -34 15 -39 0 -42 0 -36 -15 -28 -29 -29 -29 -14 -35 0 -42 0 -41 14 -35 29 -29 28 -29 36 -15 42 0 rrcurveto
          -235 -1164 rmoveto
          142 15 109 56 77 97 55 71 28 81 0 90 0 102 -25 76 -51 50 -30 30 -35 15 -39 0 -54 0 -38 -19 -23 -39 -16 -22 -8 -24 0 -27 0 -43 19 -41 39 -37 38 -38 19 -40 0 -43 rrcurveto
          0 -40 -19 -36 -39 -31 -39 -31 -51 -20 -65 -8 -47 -6 -24 -26 0 -48 4 -43 26 -21 47 0 rrcurveto
          endchar
        </CharString>
        <CharString name="seven">
          0 453 -15 rmoveto
          31 0 24 16 16 31 rrcurveto
          521 1177 rlineto
          6 18 3 17 0 15 0 37 -13 32 -26 27 -25 27 -32 13 -37 0 rrcurveto
          -698 hlineto
          -20 0 -18 -7 -15 -15 -15 -15 -8 -18 0 -20 0 -21 8 -18 15 -15 15 -15 18 -8 20 0 406 0 206 0 5 -1 21 -3 11 -13 0 -23 0 -5 -83 -188 -166 -370 -166 -371 -83 -188 -1 -5 rrcurveto
          -1 -6 0 -4 0 -5 0 -23 7 -18 15 -14 15 -14 20 -7 24 0 rrcurveto
          endchar
        </CharString>
        <CharString name="six">
          0 600 135 rmoveto
          -60 0 -51 17 -40 35 -40 34 -29 42 -20 50 -19 49 -10 49 0 49 0 66 12 51 24 37 42 58 57 34 72 12 31 5 29 2 28 0 81 0 62 -24 42 -47 43 -48 21 -66 0 -84 rrcurveto
          0 -56 -10 -52 -21 -49 -20 -49 -31 -40 -41 -30 -42 -30 -50 -15 -60 0 rrcurveto
          -150 vmoveto
          94 0 78 22 63 43 62 44 48 59 32 75 32 75 16 83 0 93 0 93 -17 75 -34 58 -34 58 -47 43 -57 28 -58 27 -66 14 -72 0 -46 0 -45 -7 -42 -14 -42 -14 -35 -16 -28 -19 rrcurveto
          -6 -5 -7 -2 -8 0 -22 0 -11 14 0 28 0 44 17 58 34 71 47 94 72 71 96 47 34 15 37 10 41 5 60 8 50 4 39 0 20 1 17 8 14 14 13 14 7 17 0 21 rrcurveto
          0 19 -7 17 -14 15 -14 15 -16 7 -20 0 rrcurveto
          -39 hlineto
          -149 0 -123 -32 -97 -65 -97 -65 -73 -91 -48 -117 -49 -117 -24 -135 0 -155 0 -155 17 -125 33 -96 34 -96 48 -71 63 -44 62 -44 77 -22 90 0 rrcurveto
          endchar
        </CharString>
        <CharString name="slash">
          0 240 -185 rmoveto
          14 0 13 4 13 8 13 8 9 11 6 14 rrcurveto
          720 1620 rlineto
          5 11 2 10 0 10 0 14 -4 13 -8 13 -14 23 -21 11 -28 0 -14 0 -13 -4 -13 -7 -13 -8 -9 -11 -6 -14 rrcurveto
          -720 -1620 rlineto
          -5 -11 -2 -10 0 -9 0 -15 4 -13 8 -13 15 -23 21 -12 27 0 rrcurveto
          endchar
        </CharString>
        <CharString name="slash_asterisk">
          0 -760 -185 rmoveto
          14 0 13 4 13 8 13 8 9 11 6 14 rrcurveto
          720 1623 rlineto
          5 11 2 10 0 10 0 14 -4 13 -8 13 -14 23 -21 11 -28 0 -14 0 -13 -4 -13 -7 -13 -8 -9 -11 -6 -14 rrcurveto
          -720 -1623 rlineto
          -5 -11 -2 -10 0 -9 0 -15 4 -13 8 -13 15 -23 21 -12 27 0 rrcurveto
          1360 651 rmoveto
          21 0 17 7 15 15 15 15 7 17 0 21 rrcurveto
          277 vlineto
          241 -133 rlineto
          13 -6 12 -3 12 0 21 0 18 7 15 15 15 15 7 17 0 20 0 26 -13 22 -25 17 rrcurveto
          -242 135 242 135 rlineto
          25 17 13 22 0 26 0 20 -7 17 -15 15 -15 15 -18 7 -21 0 -12 0 -12 -3 -13 -6 rrcurveto
          -241 -135 rlineto
          278 vlineto
          0 21 -7 17 -15 15 -15 15 -17 7 -21 0 -21 0 -17 -7 -15 -15 -15 -15 -7 -17 0 -21 rrcurveto
          -278 vlineto
          -241 135 rlineto
          -12 6 -12 3 -13 0 -21 0 -17 -7 -15 -15 -15 -15 -8 -17 0 -20 0 -29 12 -21 25 -15 rrcurveto
          243 -135 -242 -135 rlineto
          -25 -18 -13 -22 0 -26 0 -20 8 -17 15 -15 15 -15 17 -7 21 0 13 0 12 3 12 6 rrcurveto
          241 135 rlineto
          -278 vlineto
          0 -21 7 -17 15 -15 15 -15 17 -7 21 0 rrcurveto
          endchar
        </CharString>
        <CharString name="slash_asterisk_asterisk">
          0 -600 466 rmoveto
          21 0 17 7 15 15 15 15 7 17 0 21 rrcurveto
          277 vlineto
          241 -133 rlineto
          13 -6 12 -3 12 0 21 0 18 7 15 15 15 15 7 17 0 20 0 26 -13 22 -25 17 rrcurveto
          -242 135 242 135 rlineto
          25 17 13 22 0 26 0 20 -7 17 -15 15 -15 15 -18 7 -21 0 -12 0 -12 -3 -13 -6 rrcurveto
          -241 -135 rlineto
          278 vlineto
          0 21 -7 17 -15 15 -15 15 -17 7 -21 0 -21 0 -17 -7 -15 -15 -15 -15 -7 -17 0 -21 rrcurveto
          -278 vlineto
          -241 135 rlineto
          -12 6 -12 3 -13 0 -21 0 -17 -7 -15 -15 -15 -15 -8 -17 0 -20 0 -29 12 -21 25 -15 rrcurveto
          243 -135 -242 -135 rlineto
          -25 -18 -13 -22 0 -26 0 -20 8 -17 15 -15 15 -15 17 -7 21 0 13 0 12 3 12 6 rrcurveto
          241 135 rlineto
          -278 vlineto
          0 -21 7 -17 15 -15 15 -15 17 -7 21 0 rrcurveto
          1040 hmoveto
          21 0 17 7 15 15 15 15 7 17 0 21 rrcurveto
          277 vlineto
          241 -133 rlineto
          13 -6 12 -3 12 0 21 0 18 7 15 15 15 15 7 17 0 20 0 26 -13 22 -25 17 rrcurveto
          -242 135 242 135 rlineto
          25 17 13 22 0 26 0 20 -7 17 -15 15 -15 15 -18 7 -21 0 -12 0 -12 -3 -13 -6 rrcurveto
          -241 -135 rlineto
          278 vlineto
          0 21 -7 17 -15 15 -15 15 -17 7 -21 0 -21 0 -17 -7 -15 -15 -15 -15 -7 -17 0 -21 rrcurveto
          -278 vlineto
          -241 135 rlineto
          -12 6 -12 3 -13 0 -21 0 -17 -7 -15 -15 -15 -15 -8 -17 0 -20 0 -29 12 -21 25 -15 rrcurveto
          243 -135 -242 -135 rlineto
          -25 -18 -13 -22 0 -26 0 -20 8 -17 15 -15 15 -15 17 -7 21 0 13 0 12 3 12 6 rrcurveto
          241 135 rlineto
          -278 vlineto
          0 -21 7 -17 15 -15 15 -15 17 -7 21 0 rrcurveto
          -2400 -651 rmoveto
          14 0 13 4 13 8 13 8 9 11 6 14 rrcurveto
          720 1623 rlineto
          5 11 2 10 0 10 0 14 -4 13 -8 13 -14 23 -21 11 -28 0 -14 0 -13 -4 -13 -7 -13 -8 -9 -11 -6 -14 rrcurveto
          -720 -1623 rlineto
          -5 -11 -2 -10 0 -9 0 -15 4 -13 8 -13 15 -23 21 -12 27 0 rrcurveto
          endchar
        </CharString>
        <CharString name="slash_greater">
          0 -748 -315 rmoveto
          14 0 13 4 13 8 13 8 9 11 6 14 rrcurveto
          589 1323 788 -416 rlineto
          17 -9 8 -13 0 -15 0 -16 -8 -13 -15 -10 rrcurveto
          -476 -254 rlineto
          -29 -18 -15 -23 0 -29 0 -20 8 -17 15 -15 15 -15 18 -8 20 0 11 0 10 2 11 5 rrcurveto
          692 363 rlineto
          28 17 14 22 0 29 0 31 -14 23 -28 14 rrcurveto
          -1009 522 128 290 rlineto
          5 11 2 10 0 10 0 14 -4 13 -8 13 -14 23 -21 11 -28 0 -14 0 -13 -4 -13 -7 -13 -8 -9 -11 -6 -14 rrcurveto
          -778 -1750 rlineto
          -5 -11 -2 -10 0 -9 0 -15 4 -13 8 -13 15 -23 21 -12 27 0 rrcurveto
          endchar
        </CharString>
        <CharString name="slash_slash">
          0 -810 -185 rmoveto
          14 0 13 4 13 8 13 8 9 11 6 14 rrcurveto
          720 1620 rlineto
          5 11 2 10 0 10 0 14 -4 13 -8 13 -14 23 -21 11 -28 0 -14 0 -13 -4 -13 -7 -13 -8 -9 -11 -6 -14 rrcurveto
          -720 -1620 rlineto
          -5 -11 -2 -10 0 -9 0 -15 4 -13 8 -13 15 -23 21 -12 27 0 rrcurveto
          900 hmoveto
          14 0 13 4 13 8 13 8 9 11 6 14 rrcurveto
          720 1620 rlineto
          5 11 2 10 0 10 0 14 -4 13 -8 13 -14 23 -21 11 -28 0 -14 0 -13 -4 -13 -7 -13 -8 -9 -11 -6 -14 rrcurveto
          -720 -1620 rlineto
          -5 -11 -2 -10 0 -9 0 -15 4 -13 8 -13 15 -23 21 -12 27 0 rrcurveto
          endchar
        </CharString>
        <CharString name="slash_slash_slash">
          0 -30 -185 rmoveto
          14 0 13 4 13 8 13 8 9 11 6 14 rrcurveto
          720 1620 rlineto
          5 10 2 11 0 10 0 14 -4 13 -8 13 -14 22 -21 12 -28 0 -14 0 -13 -4 -13 -8 -13 -8 -9 -10 -6 -14 rrcurveto
          -720 -1620 rlineto
          -5 -11 -2 -10 0 -9 0 -15 4 -14 8 -12 15 -24 21 -11 27 0 rrcurveto
          -1760 hmoveto
          14 0 13 4 13 8 13 8 9 11 6 14 rrcurveto
          720 1620 rlineto
          5 10 2 11 0 10 0 14 -4 13 -8 13 -14 22 -21 12 -28 0 -14 0 -13 -4 -13 -8 -13 -8 -9 -10 -6 -14 rrcurveto
          -720 -1620 rlineto
          -5 -11 -2 -10 0 -9 0 -15 4 -14 8 -12 15 -24 21 -11 27 0 rrcurveto
          880 hmoveto
          14 0 13 4 13 8 13 8 9 11 6 14 rrcurveto
          720 1620 rlineto
          5 10 2 11 0 10 0 14 -4 13 -8 13 -14 22 -21 12 -28 0 -14 0 -13 -4 -13 -8 -13 -8 -9 -10 -6 -14 rrcurveto
          -720 -1620 rlineto
          -5 -11 -2 -10 0 -9 0 -15 4 -14 8 -12 15 -24 21 -11 27 0 rrcurveto
          endchar
        </CharString>
        <CharString name="southeastarrow">
          0 295 165 rmoveto
          800 800 -130 -383 hlineto
          0 -33 2 -32 4 -30 4 -31 4 -29 4 -26 rrcurveto
          -38 -10 rlineto
          -13 20 -16 21 -18 21 -19 22 -19 20 -19 18 rrcurveto
          -699 706 -101 -105 695 -701 rlineto
          19 -17 19 -17 20 -18 20 -17 18 -15 16 -13 rrcurveto
          -5 -38 rlineto
          -25 5 -26 3 -29 2 -29 2 -31 1 -33 0 rrcurveto
          -375 hlineto
          endchar
        </CharString>
        <CharString name="southwestarrow">
          0 105 165 rmoveto
          800 126 -375 hlineto
          -33 0 -31 -1 -29 -2 -29 -2 -26 -3 -25 -5 rrcurveto
          -5 38 rlineto
          16 13 19 15 20 17 21 18 18 17 17 17 rrcurveto
          696 701 -99 101 -699 -706 rlineto
          -19 -18 -18 -20 -19 -22 -18 -21 -16 -21 -15 -20 rrcurveto
          -37 10 rlineto
          4 27 4 30 3 31 3 32 2 32 0 33 rrcurveto
          383 -130 vlineto
          endchar
        </CharString>
        <CharString name="space">
          0 endchar
        </CharString>
        <CharString name="t">
          0 862 -15 rmoveto
          141 0 70 31 0 62 0 20 -6 16 -13 12 -13 13 -17 6 -21 0 -9 0 -11 -2 -14 -5 -14 -5 -20 -2 -27 0 -212 4 -108 97 -4 189 rrcurveto
          378 vlineto
          0 41 21 20 42 0 rrcurveto
          334 hlineto
          23 0 18 7 14 15 15 14 7 18 0 21 0 23 -8 18 -15 15 -15 15 -18 8 -21 0 rrcurveto
          -334 hlineto
          -42 0 -21 20 0 39 rrcurveto
          226 vlineto
          0 25 -7 19 -15 13 -15 13 -18 7 -20 0 -20 0 -17 -7 -15 -15 -15 -14 -8 -19 0 -22 rrcurveto
          -226 vlineto
          0 -39 -20 -20 -39 0 rrcurveto
          -171 hlineto
          -21 0 -18 -8 -15 -15 -15 -15 -8 -18 0 -23 0 -21 8 -18 15 -14 15 -15 18 -7 21 0 rrcurveto
          171 hlineto
          39 0 20 -20 0 -41 rrcurveto
          -420 vlineto
          5 -263 143 -131 280 0 rrcurveto
          endchar
        </CharString>
        <CharString name="tag_todo">
          0 -1995 205 rmoveto
          151 0 108 34 64 68 64 67 32 115 0 163 0 162 -10 116 -19 69 -24 84 -53 56 -81 28 -37 13 -40 7 -44 3 -44 3 -48 1 -51 0 -12 0 -6 -6 0 -11 rrcurveto
          -954 vlineto
          0 -12 6 -6 12 0 rrcurveto
          -1083 -30 rmoveto
          96 0 69 59 42 119 32 93 16 116 0 138 0 140 -16 116 -33 92 -42 118 -69 59 -95 0 -95 0 -69 -58 -42 -117 -33 -91 -16 -117 0 -142 0 -142 16 -116 33 -92 41 -117 68 -58 97 0 rrcurveto
          2540 hmoveto
          96 0 69 59 42 119 32 93 16 116 0 138 0 140 -16 116 -33 92 -42 118 -69 59 -95 0 -95 0 -69 -58 -42 -117 -33 -91 -16 -117 0 -142 0 -142 16 -116 33 -92 41 -117 68 -58 97 0 rrcurveto
          -1425 -200 rmoveto
          -161 hlineto
          -31 0 -28 12 -24 24 -24 24 -12 28 0 31 rrcurveto
          1212 vlineto
          0 31 12 27 24 25 24 24 28 12 31 0 rrcurveto
          200 hlineto
          201 0 152 -51 103 -102 103 -102 51 -161 0 -221 rrcurveto
          -136 vlineto
          0 -161 -23 -130 -47 -99 -47 -99 -72 -73 -96 -46 -96 -46 -121 -23 -147 0 rrcurveto
          -2285 -30 rmoveto
          -30 0 -27 12 -23 24 -23 23 -12 27 0 29 0 753 -1 377 -2 2 -2 2 -87 1 -173 0 -30 0 -27 12 -23 23 -23 23 -12 26 0 30 0 30 12 27 23 24 23 23 27 12 30 0 rrcurveto
          760 hlineto
          30 0 27 -12 23 -23 23 -24 12 -27 0 -30 0 -30 -12 -26 -23 -23 -23 -23 -27 -12 -30 0 -171 0 -87 -1 -3 -2 -3 -3 -1 -5 0 -7 rrcurveto
          -1117 vlineto
          0 -29 -12 -27 -23 -23 -23 -24 -27 -12 -30 0 rrcurveto
          1170 hmoveto
          -153 0 -117 59 -79 119 -91 134 -45 193 0 250 0 61 4 65 8 69 7 69 14 67 20 66 20 66 28 60 37 54 36 53 47 43 57 33 57 33 69 16 82 0 152 0 116 -59 80 -119 rrcurveto
          91 -136 45 -192 0 -249 0 -61 -4 -64 -7 -69 -7 -69 -14 -68 -19 -66 -20 -67 -28 -60 -36 -53 -36 -54 -46 -43 -57 -32 -57 -33 -71 -16 -83 0 rrcurveto
          2540 hmoveto
          -153 0 -117 59 -79 119 -91 134 -45 193 0 250 0 61 4 65 8 69 7 69 14 67 20 66 20 66 28 60 37 54 36 53 47 43 57 33 57 33 69 16 82 0 152 0 116 -59 80 -119 rrcurveto
          91 -136 45 -192 0 -249 0 -61 -4 -64 -7 -69 -7 -69 -14 -68 -19 -66 -20 -67 -28 -60 -36 -53 -36 -54 -46 -43 -57 -32 -57 -33 -71 -16 -83 0 rrcurveto
          741 -215 rmoveto
          177 97 127 103 77 108 133 191 66 217 0 243 rrcurveto
          46 vlineto
          0 228 -66 209 -133 191 -99 141 -127 103 -155 65 rrcurveto
          -5487 -2 rlineto
          -26 0 -22 -9 -18 -18 -19 -19 -9 -22 0 -25 rrcurveto
          -1754 vlineto
          0 -25 9 -22 19 -18 18 -19 22 -9 26 0 rrcurveto
          endchar
        </CharString>
        <CharString name="three">
          0 542 -15 rmoveto
          148 0 113 40 78 79 82 89 41 112 0 135 0 76 -30 67 -60 58 -30 28 -35 23 -39 17 -33 15 -16 17 0 20 0 18 12 17 24 16 95 63 47 91 0 121 0 97 -37 79 -75 61 rrcurveto
          -74 61 -108 30 -141 0 -191 0 -96 -34 0 -68 0 -53 26 -27 51 0 7 0 9 2 10 5 39 17 57 8 74 0 186 0 93 -69 0 -138 0 -74 -29 -59 -59 -46 -64 -53 -96 -26 -127 0 rrcurveto
          -16 0 -14 -6 -11 -11 -12 -11 -6 -17 0 -22 0 -21 6 -16 12 -11 11 -12 14 -6 16 0 299 -7 150 -79 0 -151 -4 -194 -103 -98 -201 -3 -121 0 -79 6 -36 12 -16 5 -18 2 -20 0 rrcurveto
          -5 0 -9 -2 -12 -4 -12 -4 -11 -8 -10 -11 -9 -12 -5 -18 0 -24 0 -19 7 -15 13 -13 31 -30 116 -15 203 0 rrcurveto
          endchar
        </CharString>
        <CharString name="two">
          0 967 15 rmoveto
          20 0 18 8 15 15 16 15 8 17 0 20 0 20 -7 17 -15 15 -15 15 -18 8 -20 0 rrcurveto
          -524 1 rlineto
          -21 2 -11 12 0 20 0 9 3 8 6 7 rrcurveto
          342 330 rlineto
          77 74 58 69 39 67 38 66 19 79 0 91 0 90 -19 77 -38 61 -38 62 -51 46 -64 32 -64 31 -72 16 -78 0 -132 0 -116 -44 -99 -87 -14 -14 -7 -19 0 -24 0 -28 7 -21 14 -14 rrcurveto
          13 -13 18 -7 22 0 13 0 11 5 11 11 83 68 84 34 84 0 83 0 69 -26 53 -51 53 -51 26 -64 0 -78 0 -93 -30 -76 -60 -61 rrcurveto
          -564 -557 rlineto
          -20 -23 -10 -25 0 -28 0 -31 11 -27 23 -22 23 -23 27 -11 31 0 rrcurveto
          endchar
        </CharString>
        <CharString name="u">
          0 934 -15 rmoveto
          20 0 18 8 15 16 16 15 8 19 0 23 rrcurveto
          920 vlineto
          0 24 -7 20 -15 14 -14 14 -18 7 -23 0 -22 0 -18 -7 -13 -14 -14 -14 -7 -19 0 -25 rrcurveto
          -547 vlineto
          0 -95 -39 -74 -77 -53 -62 -41 -60 -21 -57 -1 -148 0 -76 88 -3 175 rrcurveto
          569 vlineto
          0 25 -7 19 -14 14 -14 14 -19 7 -23 0 -21 0 -17 -7 -14 -14 -13 -14 -7 -19 0 -25 rrcurveto
          -580 vlineto
          0 -153 30 -109 61 -65 56 -62 87 -31 117 0 86 1 86 45 84 88 11 11 11 6 9 0 19 0 10 -13 0 -26 rrcurveto
          -32 vlineto
          0 -23 8 -19 16 -15 15 -16 18 -8 21 0 rrcurveto
          endchar
        </CharString>
        <CharString name="underscore">
          0 920 -255 rmoveto
          21 0 17 7 15 15 15 15 7 17 0 21 0 21 -7 17 -15 15 -15 15 -17 7 -21 0 rrcurveto
          -640 hlineto
          -21 0 -17 -7 -15 -15 -15 -15 -7 -17 0 -21 0 -21 7 -17 15 -15 15 -15 17 -7 21 0 rrcurveto
          endchar
        </CharString>
        <CharString name="updownarrow">
          0 600 -320 rmoveto
          565 481 rlineto
          170 vlineto
          -345 -294 rlineto
          -59 -51 -37 -38 -16 -23 rrcurveto
          -45 hlineto
          4 28 3 29 2 30 2 30 1 29 0 29 rrcurveto
          1260 vlineto
          0 29 -1 29 -2 30 -2 30 -3 29 -4 28 rrcurveto
          44 hlineto
          9 -11 14 -15 18 -19 17 -18 24 -22 29 -25 rrcurveto
          347 -295 rlineto
          171 vlineto
          -565 479 -565 -481 rlineto
          -170 vlineto
          345 294 rlineto
          59 51 37 38 16 23 rrcurveto
          44 hlineto
          -2 -28 -2 -29 -3 -30 -3 -30 -1 -29 0 -29 rrcurveto
          -1260 vlineto
          0 -29 1 -29 3 -30 3 -30 2 -29 2 -28 rrcurveto
          -44 hlineto
          -8 12 -13 15 -18 18 -18 18 -24 22 -29 25 rrcurveto
          -347 295 rlineto
          -171 vlineto
          endchar
        </CharString>
        <CharString name="upperhalfblock">
          0 720 vmoveto
          1200 1320 -1200 hlineto
          endchar
        </CharString>
        <CharString name="upperoneeighthblock">
          0 1710 vmoveto
          1200 330 -1200 hlineto
          endchar
        </CharString>
        <CharString name="upwardsarrow">
          0 525 15 rmoveto
          150 1025 hlineto
          0 29 -1 29 -2 30 -2 30 -3 29 -4 28 rrcurveto
          44 hlineto
          9 -11 14 -15 18 -19 17 -18 24 -22 29 -25 rrcurveto
          347 -295 rlineto
          171 vlineto
          -563 479 -567 -481 rlineto
          -170 vlineto
          345 294 rlineto
          59 51 37 38 16 23 rrcurveto
          44 hlineto
          -2 -28 -2 -29 -3 -30 -3 -30 -1 -29 0 -29 rrcurveto
          endchar
        </CharString>
        <CharString name="v">
          0 605 -15 rmoveto
          54 1 37 27 21 53 221 606 110 307 0 8 0 20 -8 18 -15 16 -15 16 -18 8 -22 0 -17 0 -15 -5 -14 -9 -14 -9 -9 -12 -6 -16 rrcurveto
          -259 -739 rlineto
          -6 -16 -12 -8 -18 0 -18 0 -12 8 -6 16 rrcurveto
          -258 739 rlineto
          -6 16 -9 12 -14 9 -14 9 -15 5 -17 0 -22 0 -18 -8 -15 -16 -15 -16 -8 -18 0 -20 0 -8 2 -9 3 -10 rrcurveto
          327 -894 rlineto
          9 -25 15 -20 21 -14 21 -15 25 -7 29 0 rrcurveto
          endchar
        </CharString>
        <CharString name="w">
          0 838 -15 rmoveto
          32 0 26 10 18 21 19 21 11 25 3 30 56 597 28 300 0 5 0 47 -22 24 -43 0 -51 0 -27 -25 -3 -49 rrcurveto
          -43 -623 rlineto
          -3 -42 -9 -21 -17 0 -15 0 -14 18 -10 36 rrcurveto
          -99 346 rlineto
          -12 41 -25 20 -40 0 -40 0 -24 -20 -9 -39 rrcurveto
          -81 -339 rlineto
          -10 -36 -12 -18 -16 0 -19 0 -11 21 -3 42 rrcurveto
          -51 615 rlineto
          -5 49 -28 24 -50 0 -48 0 -24 -25 0 -50 0 -6 32 -301 64 -594 4 -30 10 -25 17 -20 17 -19 22 -10 26 0 62 0 38 26 14 53 rrcurveto
          101 390 rlineto
          6 24 9 12 11 0 12 0 9 -12 6 -23 rrcurveto
          103 -389 rlineto
          8 -26 14 -20 21 -14 21 -14 22 -7 22 0 rrcurveto
          endchar
        </CharString>
        <CharString name="x">
          0 945 -15 rmoveto
          19 0 18 7 16 15 15 14 8 18 0 22 0 16 -6 17 -11 16 rrcurveto
          -260 360 rlineto
          -11 14 -5 20 0 25 0 19 5 17 11 15 rrcurveto
          260 358 rlineto
          11 16 6 17 0 19 0 19 -8 17 -16 16 -15 15 -18 8 -19 0 -34 0 -24 -10 -15 -21 rrcurveto
          -230 -344 rlineto
          -10 -15 -14 -8 -19 0 -19 0 -14 8 -10 15 rrcurveto
          -230 344 rlineto
          -13 21 -24 10 -35 0 -19 0 -17 -8 -16 -15 -16 -16 -8 -17 0 -19 0 -18 6 -17 12 -17 rrcurveto
          259 -358 rlineto
          11 -16 5 -18 0 -21 0 -22 -5 -18 -11 -15 rrcurveto
          -260 -360 rlineto
          -11 -16 -6 -17 0 -16 0 -22 8 -18 15 -14 16 -15 18 -7 19 0 34 0 24 11 15 21 rrcurveto
          230 340 rlineto
          12 18 14 9 16 0 17 0 14 -9 12 -18 rrcurveto
          230 -341 rlineto
          15 -21 24 -10 34 0 rrcurveto
          endchar
        </CharString>
        <CharString name="x_center">
          0 913 314 rmoveto
          21 0 18 7 14 15 13 14 7 17 0 21 0 22 -7 18 -15 13 rrcurveto
          -258 259 258 258 rlineto
          15 15 7 17 0 21 0 21 -7 18 -14 15 -15 14 -18 7 -21 0 -21 0 -17 -7 -15 -15 rrcurveto
          -258 -258 -259 258 rlineto
          -13 15 -18 7 -21 0 -21 0 -17 -7 -15 -14 -15 -15 -7 -18 0 -21 0 -21 7 -17 15 -15 rrcurveto
          258 -258 -258 -259 rlineto
          -15 -13 -7 -18 0 -21 0 -21 7 -17 15 -15 15 -15 17 -7 21 0 21 0 18 7 13 15 rrcurveto
          259 258 258 -258 rlineto
          15 -15 18 -7 22 0 rrcurveto
          endchar
        </CharString>
        <CharString name="xml_comment_begin">
          0 -2981 463 rmoveto
          -12 0 -11 4 -9 9 rrcurveto
          -89 88 rlineto
          -9 10 -5 11 0 12 0 13 5 10 10 9 rrcurveto
          88 89 rlineto
          9 9 11 4 12 0 12 0 11 -4 9 -9 rrcurveto
          90 -89 rlineto
          9 -9 4 -11 0 -12 0 -12 -4 -11 -9 -9 rrcurveto
          -90 -89 rlineto
          -9 -9 -11 -4 -12 0 rrcurveto
          1185 -478 rmoveto
          39 0 34 15 28 29 28 29 14 35 0 41 0 42 -14 36 -28 29 -28 29 -34 15 -39 0 -43 0 -35 -15 -28 -29 -29 -29 -14 -36 0 -42 0 -41 14 -35 29 -29 28 -29 35 -15 43 0 rrcurveto
          -4 499 rmoveto
          17 0 16 6 13 13 13 13 7 15 1 19 rrcurveto
          25 804 rlineto
          0 25 -9 21 -18 19 -19 18 -21 9 -25 0 -25 0 -22 -9 -18 -19 -18 -19 -9 -21 0 -25 rrcurveto
          25 -803 rlineto
          1 -19 8 -15 13 -13 13 -13 15 -6 17 0 rrcurveto
          2740 41 rmoveto
          21 0 17 7 15 15 15 15 7 17 0 21 0 21 -7 17 -15 15 -15 15 -17 7 -21 0 rrcurveto
          -2425 -150 hlineto
          -1298 -459 rmoveto
          21 0 18 7 15 15 14 14 7 18 0 21 0 18 -7 18 -15 17 rrcurveto
          -113 113 rlineto
          -9 9 -4 11 0 12 0 12 4 11 9 9 rrcurveto
          113 118 rlineto
          11 10 15 9 17 7 17 7 15 3 14 0 rrcurveto
          526 150 -525 hlineto
          -15 0 -15 4 -17 7 -17 7 -13 8 -11 10 rrcurveto
          -115 115 rlineto
          -9 9 -4 11 0 12 0 11 4 11 9 9 rrcurveto
          113 113 rlineto
          15 17 7 18 0 19 0 22 -8 18 -15 15 -15 14 -18 7 -19 0 -18 0 -18 -7 -17 -15 rrcurveto
          -456 -458 rlineto
          -15 -16 -8 -18 0 -20 0 -19 8 -18 15 -18 rrcurveto
          456 -456 rlineto
          17 -14 17 -7 19 0 rrcurveto
          endchar
        </CharString>
        <CharString name="xml_comment_empty">
          0 1405 525 rmoveto
          -50 14 -25 25 0 36 0 36 23 25 45 14 rrcurveto
          -2883 -150 hlineto
          -315 -41 rmoveto
          17 0 16 6 13 13 13 13 7 15 1 19 rrcurveto
          25 804 rlineto
          0 25 -9 21 -18 19 -19 18 -21 9 -25 0 -25 0 -22 -9 -18 -19 -18 -19 -9 -21 0 -25 rrcurveto
          25 -803 rlineto
          1 -19 8 -15 13 -13 13 -13 15 -6 17 0 rrcurveto
          4 -499 rmoveto
          39 0 34 15 28 29 28 29 14 35 0 41 0 42 -14 36 -28 29 -28 29 -34 15 -39 0 -43 0 -35 -15 -28 -29 -29 -29 -14 -36 0 -42 0 -41 14 -35 29 -29 28 -29 35 -15 43 0 rrcurveto
          -1185 478 rmoveto
          -12 0 -11 4 -9 9 rrcurveto
          -89 88 rlineto
          -9 10 -5 11 0 12 0 13 5 10 10 9 rrcurveto
          88 89 rlineto
          9 9 11 4 12 0 12 0 11 -4 9 -9 rrcurveto
          90 -89 rlineto
          9 -9 4 -11 0 -12 0 -12 -4 -11 -9 -9 rrcurveto
          -90 -89 rlineto
          -9 -9 -11 -4 -12 0 rrcurveto
          1185 -478 rmoveto
          39 0 34 15 28 29 28 29 14 35 0 41 0 42 -14 36 -28 29 -28 29 -34 15 -39 0 -43 0 -35 -15 -28 -29 -29 -29 -14 -36 0 -42 0 -41 14 -35 29 -29 28 -29 35 -15 43 0 rrcurveto
          -4 499 rmoveto
          17 0 16 6 13 13 13 13 7 15 1 19 rrcurveto
          25 804 rlineto
          0 25 -9 21 -18 19 -19 18 -21 9 -25 0 -25 0 -22 -9 -18 -19 -18 -19 -9 -21 0 -25 rrcurveto
          25 -803 rlineto
          1 -19 8 -15 13 -13 13 -13 15 -6 17 0 rrcurveto
          -983 -418 rmoveto
          21 0 18 7 15 15 14 14 7 18 0 21 0 18 -7 18 -15 17 rrcurveto
          -113 113 rlineto
          -9 9 -4 11 0 12 0 12 4 11 9 9 rrcurveto
          113 118 rlineto
          11 10 15 9 17 7 17 7 15 3 14 0 rrcurveto
          526 150 -525 hlineto
          -15 0 -15 4 -17 7 -17 7 -13 8 -11 10 rrcurveto
          -115 115 rlineto
          -9 9 -4 11 0 12 0 11 4 11 9 9 rrcurveto
          113 113 rlineto
          15 17 7 18 0 19 0 22 -8 18 -15 15 -15 14 -18 7 -19 0 -18 0 -18 -7 -17 -15 rrcurveto
          -456 -458 rlineto
          -15 -16 -8 -18 0 -20 0 -19 8 -18 15 -18 rrcurveto
          456 -456 rlineto
          17 -14 17 -7 19 0 rrcurveto
          endchar
        </CharString>
        <CharString name="y">
          0 223 -465 rmoveto
          114 0 98 38 82 75 67 64 63 118 58 172 225 649 113 328 0 8 0 20 -8 18 -15 16 -16 16 -18 8 -21 0 -37 0 -25 -17 -13 -34 rrcurveto
          -254 -718 rlineto
          -6 -16 -12 -8 -18 0 -18 0 -11 8 -6 16 rrcurveto
          -254 718 rlineto
          -13 34 -25 17 -37 0 -21 0 -18 -8 -16 -16 -15 -16 -8 -18 0 -20 0 -8 117 -329 235 -648 5 -12 2 -15 0 -16 0 -52 -29 -63 -58 -74 -52 -64 -60 -32 -68 0 -68 0 -34 -24 0 -48 rrcurveto
          0 -45 25 -22 50 0 rrcurveto
          endchar
        </CharString>
        <CharString name="z">
          0 949 15 rmoveto
          21 0 17 7 15 15 15 15 7 17 0 21 0 21 -7 18 -15 14 -15 15 -17 7 -21 0 rrcurveto
          -454 hlineto
          -17 0 -14 6 -11 12 -11 11 -5 14 0 15 0 13 5 13 9 12 rrcurveto
          545 582 rlineto
          19 22 9 25 0 28 0 32 -11 27 -23 23 -22 23 -27 11 -31 0 rrcurveto
          -659 hlineto
          -20 0 -17 -7 -15 -15 -15 -15 -8 -18 0 -20 0 -20 8 -18 15 -15 15 -15 17 -7 20 0 rrcurveto
          453 hlineto
          18 0 14 -6 10 -12 11 -12 5 -14 0 -15 0 -13 -5 -12 -9 -12 rrcurveto
          -545 -584 rlineto
          -18 -22 -9 -25 0 -28 0 -31 11 -27 23 -22 23 -23 27 -11 31 0 rrcurveto
          endchar
        </CharString>
        <CharString name="zero">
          0 325 524 rmoveto
          -7 65 -3 58 0 53 0 148 18 123 36 99 47 130 77 65 107 0 87 0 67 -45 48 -89 15 -27 13 -31 11 -33 rrcurveto
          -241 -905 rmoveto
          -107 0 -77 65 -47 130 rrcurveto
          -8 19 515 514 rlineto
          6 -67 3 -54 0 -42 0 -46 -2 -48 -5 -52 -5 -51 -8 -50 -12 -49 -12 -50 -17 -45 -22 -40 -21 -40 -28 -32 -33 -25 -33 -25 -40 -12 -47 0 rrcurveto
          -150 vmoveto
          75 0 62 15 51 30 51 29 41 40 33 50 32 50 25 56 18 63 18 62 13 64 6 67 7 66 3 63 0 60 0 61 -3 63 -7 66 -7 66 -13 64 -18 62 -18 63 -25 56 -32 49 rrcurveto
          -33 50 -41 40 -50 30 -51 30 -62 15 -74 0 -136 0 -103 -55 -72 -110 -83 -128 -42 -183 0 -239 0 -349 83 -223 165 -98 51 -30 62 -15 74 0 rrcurveto
          endchar
        </CharString>
</ttFont>
